<svg width="56" height="56" viewBox="0 0 56 56" fill="none" xmlns="http://www.w3.org/2000/svg">
<path d="M0 12C0 5.37258 5.37258 0 12 0H44C50.6274 0 56 5.37258 56 12V44C56 50.6274 50.6274 56 44 56H12C5.37258 56 0 50.6274 0 44V12Z" fill="#FFF5E3"/>
<path d="M32.4391 14.2521L32.2846 14.1095C31.6411 13.5866 30.7106 13.6341 30.1192 14.2521L29.9828 14.4136C29.4824 15.0861 29.5279 16.0585 30.1192 16.6765L35.5197 22.3214H16.5154L16.3241 22.333C15.5083 22.432 14.875 23.1566 14.875 24.0357C14.875 24.9825 15.6094 25.75 16.5154 25.75H39.4813L39.6677 25.7397C41.0031 25.5909 41.6297 23.8565 40.6412 22.8235L32.4391 14.2521Z" fill="url(#paint0_linear_1456_38027)"/>
<path d="M39.4846 30.25C40.3906 30.25 41.125 31.0175 41.125 31.9643C41.125 32.8434 40.4917 33.568 39.6759 33.667L39.4846 33.6786H20.4803L25.8808 39.3235C26.4721 39.9415 26.5176 40.9139 26.0172 41.5864L25.8808 41.7479C25.2894 42.3659 24.3589 42.4134 23.7154 41.8905L23.5609 41.7479L15.3588 33.1765C14.3703 32.1435 14.9969 30.4091 16.3323 30.2603L16.5187 30.25H39.4846Z" fill="url(#paint1_linear_1456_38027)"/>
<defs>
<linearGradient id="paint0_linear_1456_38027" x1="14.875" y1="13.75" x2="41.125" y2="25.75" gradientUnits="userSpaceOnUse">
<stop stop-color="#FFC154"/>
<stop offset="1" stop-color="#FFAA13"/>
</linearGradient>
<linearGradient id="paint1_linear_1456_38027" x1="14.875" y1="30.25" x2="41.125" y2="42.25" gradientUnits="userSpaceOnUse">
<stop stop-color="#FFC154"/>
<stop offset="1" stop-color="#FFAA13"/>
</linearGradient>
</defs>
</svg>
