<svg width="56" height="56" viewBox="0 0 56 56" fill="none" xmlns="http://www.w3.org/2000/svg">
<path d="M0 8C0 3.58172 3.58172 0 8 0H48C52.4183 0 56 3.58172 56 8V48C56 52.4183 52.4183 56 48 56H8C3.58172 56 0 52.4183 0 48V8Z" fill="#ECF2FF"/>
<path d="M17.5 17.0625H33.9062C36.9266 17.0625 39.375 19.5109 39.375 22.5312V22.5312C39.375 25.5516 36.9266 28 33.9063 28H27.5625" stroke="#C1CFEC" stroke-width="2.5"/>
<path d="M39.375 38.9375H22.9688C19.9484 38.9375 17.5 36.4891 17.5 33.4688V33.4688C17.5 30.4484 19.9484 28 22.9687 28H29.3125" stroke="#C1CFEC" stroke-width="2.5"/>
<path fill-rule="evenodd" clip-rule="evenodd" d="M23.625 17.5C23.625 20.3995 21.2745 22.75 18.375 22.75C15.4755 22.75 13.125 20.3995 13.125 17.5C13.125 14.6005 15.4755 12.25 18.375 12.25C21.2745 12.25 23.625 14.6005 23.625 17.5ZM33.25 28C33.25 30.8995 30.8995 33.25 28 33.25C25.1005 33.25 22.75 30.8995 22.75 28C22.75 25.1005 25.1005 22.75 28 22.75C30.8995 22.75 33.25 25.1005 33.25 28ZM37.625 43.75C40.5245 43.75 42.875 41.3995 42.875 38.5C42.875 35.6005 40.5245 33.25 37.625 33.25C34.7255 33.25 32.375 35.6005 32.375 38.5C32.375 41.3995 34.7255 43.75 37.625 43.75Z" fill="url(#paint0_linear_1443_37749)"/>
<defs>
<linearGradient id="paint0_linear_1443_37749" x1="9.1875" y1="7.875" x2="37.4588" y2="47.6638" gradientUnits="userSpaceOnUse">
<stop stop-color="#6DD6FF"/>
<stop offset="1" stop-color="#5D87FF"/>
</linearGradient>
</defs>
</svg>
