<svg width="56" height="56" viewBox="0 0 56 56" fill="none" xmlns="http://www.w3.org/2000/svg">
<rect width="56" height="56" rx="12" fill="#E0F2FF"/>
<g clip-path="url(#clip0_1443_37735)">
<path d="M41.4453 40.4688C41.9902 40.4688 42.4379 40.0168 42.4379 39.4567C42.4379 37.4326 42.3795 36.3027 42 35.3889C41.4161 33.974 40.3066 32.8539 38.9149 32.2742C37.8639 31.832 36.5403 31.832 33.8835 31.832H29.6013C26.9445 31.832 25.6112 31.832 24.5699 32.2742C23.1685 32.8539 22.059 33.9838 21.4848 35.3889C21.1053 36.3027 21.0566 37.4326 21.0469 39.4567C21.0469 40.0069 21.4945 40.4688 22.0395 40.4688H41.4453ZM37.4454 21.2891C37.4454 24.4726 34.8956 27.0469 31.7424 27.0469C28.5892 27.0469 26.0394 24.4726 26.0394 21.2891C26.0394 18.1056 28.5892 15.5312 31.7424 15.5312C34.8956 15.5312 37.4454 18.1056 37.4454 21.2891Z" fill="url(#paint0_linear_1443_37735)"/>
<mask id="mask0_1443_37735" style="mask-type:alpha" maskUnits="userSpaceOnUse" x="15" y="15" width="22" height="26">
<path d="M35.9296 40.4688C36.4746 40.4688 36.9223 40.0168 36.9223 39.4567C36.9223 37.4326 36.8639 36.3027 36.4844 35.3889C35.9004 33.974 34.791 32.8539 33.3993 32.2742C32.3482 31.832 31.0247 31.832 28.3678 31.832H24.0857C21.4289 31.832 20.0956 31.832 19.0543 32.2742C17.6528 32.8539 16.5434 33.9838 15.9692 35.3889C15.5896 36.3027 15.5312 37.4228 15.5312 39.4567C15.5312 40.0069 15.9789 40.4688 16.5239 40.4688H35.9296ZM31.9298 21.2891C31.9298 24.4726 29.38 27.0469 26.2268 27.0469C23.0736 27.0469 20.5238 24.4726 20.5238 21.2891C20.5238 18.1056 23.0736 15.5312 26.2268 15.5312C29.38 15.5312 31.9298 18.1056 31.9298 21.2891Z" fill="url(#paint1_linear_1443_37735)"/>
</mask>
<g mask="url(#mask0_1443_37735)">
<path d="M41.4453 40.4688C41.9902 40.4688 42.4379 40.0168 42.4379 39.4567C42.4379 37.4326 42.3795 36.3027 42 35.3889C41.4161 33.974 40.3066 32.8539 38.9149 32.2742C37.8639 31.832 36.5403 31.832 33.8835 31.832H29.6013C26.9445 31.832 25.6112 31.832 24.5699 32.2742C23.1685 32.8539 22.059 33.9838 21.4848 35.3889C21.1053 36.3027 21.0566 37.4326 21.0469 39.4567C21.0469 40.0069 21.4945 40.4688 22.0395 40.4688H41.4453ZM37.4454 21.2891C37.4454 24.4726 34.8956 27.0469 31.7424 27.0469C28.5892 27.0469 26.0394 24.4726 26.0394 21.2891C26.0394 18.1056 28.5892 15.5312 31.7424 15.5312C34.8956 15.5312 37.4454 18.1056 37.4454 21.2891Z" fill="#EA7782"/>
</g>
<path d="M33.9609 40.4688C34.5059 40.4688 34.9536 40.0168 34.9536 39.4567C34.9536 37.4326 34.8952 36.3027 34.5156 35.3889C33.9317 33.974 32.8222 32.8539 31.4305 32.2742C30.3795 31.832 29.0559 31.832 26.3991 31.832H22.117C19.4601 31.832 18.1268 31.832 17.0855 32.2742C15.6841 32.8539 14.5746 33.9838 14.0004 35.3889C13.6209 36.3027 13.5625 37.4228 13.5625 39.4567C13.5625 40.0069 14.0102 40.4688 14.5552 40.4688H33.9609ZM29.961 21.2891C29.961 24.4726 27.4112 27.0469 24.258 27.0469C21.1048 27.0469 18.555 24.4726 18.555 21.2891C18.555 18.1056 21.1048 15.5312 24.258 15.5312C27.4112 15.5312 29.961 18.1056 29.961 21.2891Z" fill="url(#paint2_linear_1443_37735)"/>
</g>
<defs>
<linearGradient id="paint0_linear_1443_37735" x1="31.7424" y1="15.5312" x2="31.7424" y2="40.4688" gradientUnits="userSpaceOnUse">
<stop stop-color="#FF9E95"/>
<stop offset="1" stop-color="#FE8185"/>
</linearGradient>
<linearGradient id="paint1_linear_1443_37735" x1="15.5231" y1="15.5312" x2="37.4576" y2="40.159" gradientUnits="userSpaceOnUse">
<stop stop-color="#3DABFF"/>
<stop offset="1" stop-color="#5D87FF"/>
</linearGradient>
<linearGradient id="paint2_linear_1443_37735" x1="13.5543" y1="15.5312" x2="35.4888" y2="40.159" gradientUnits="userSpaceOnUse">
<stop stop-color="#6DD6FF"/>
<stop offset="1" stop-color="#5D87FF"/>
</linearGradient>
<clipPath id="clip0_1443_37735">
<rect width="28.875" height="24.9375" fill="white" transform="translate(13.5625 15.5312)"/>
</clipPath>
</defs>
</svg>
