<svg width="56" height="56" viewBox="0 0 56 56" fill="none" xmlns="http://www.w3.org/2000/svg">
<rect width="56" height="56" rx="12" fill="#E6F7E1"/>
<g clip-path="url(#clip0_1456_38055)">
<path d="M20.1328 33.2501C19.9473 33.2319 19.7612 33.2164 19.5758 33.1956C18.8287 33.1107 18.2073 32.5915 18.0473 31.8643C18.0186 31.7346 18.0148 31.5972 18.0148 31.4631C18.0123 30.4247 18.0059 29.3863 18.0161 28.3479C18.0218 27.7477 17.8357 27.2234 17.452 26.7787C17.046 26.3081 16.6209 25.8557 16.2015 25.3975C15.761 24.9165 15.3257 24.4297 14.8732 23.9605C14.3269 23.394 14.4079 22.4502 14.9369 21.9233C15.4608 21.4028 15.9777 20.8752 16.4921 20.345C16.8427 19.9839 17.1843 19.6145 17.5279 19.247C17.8988 18.8503 18.0849 18.3868 18.0766 17.8288C18.0626 16.8701 18.0703 15.9108 18.0792 14.9515C18.0817 14.6754 18.0881 14.3921 18.1506 14.1258C18.3513 13.2682 19.1009 12.8774 19.6828 12.8365C19.8384 12.8255 19.9945 12.8249 20.15 12.8242C20.8983 12.8216 21.6466 12.8236 22.3949 12.8184C22.6517 12.8164 22.9086 12.8022 23.1655 12.7899C23.5434 12.7724 23.8889 12.646 24.1776 12.4042C24.5135 12.1229 24.8386 11.8254 25.1471 11.5123C25.7265 10.9251 26.2899 10.3216 26.861 9.72596C27.4875 9.0726 28.5851 9.09593 29.1855 9.75642C29.8458 10.4837 30.5476 11.172 31.2353 11.874C31.3724 12.014 31.5228 12.141 31.67 12.2707C32.1143 12.6602 32.6369 12.8346 33.2182 12.8404C34.1144 12.8489 35.0105 12.8527 35.9067 12.8676C36.147 12.8715 36.3917 12.8819 36.6256 12.9331C37.4173 13.1062 37.9871 13.8153 37.996 14.6391C38.0062 15.5822 38.0285 16.5272 37.9903 17.4684C37.9527 18.3868 38.2911 19.1037 38.9202 19.7337C39.6079 20.4227 40.2651 21.1448 40.9292 21.8578C41.2014 22.1501 41.3996 22.4885 41.4716 22.8923C41.5551 23.3616 41.4493 23.7667 41.1083 24.1095C40.2772 24.9463 39.4556 25.7922 38.6264 26.6303C38.1891 27.0717 37.9648 27.5902 37.9711 28.2248C37.982 29.3183 37.9769 30.4124 37.9648 31.5065C37.9622 31.7327 37.9303 31.968 37.8615 32.1825C37.7015 32.6784 37.335 32.9798 36.8576 33.1295C36.6377 33.1982 36.3994 33.2073 36.1693 33.2423C36.0775 33.2566 35.9851 33.2676 35.8933 33.2805C35.8251 33.2669 35.7575 33.2429 35.6887 33.2416C34.8104 33.2274 33.9321 33.2131 33.0538 33.2066C32.4731 33.2021 31.9817 33.4115 31.5712 33.8386C30.7503 34.6923 29.9191 35.5362 29.0918 36.3833C28.9063 36.5732 28.6998 36.7204 28.4213 36.7197C28.4015 36.7197 28.3824 36.7424 28.3627 36.7541C28.0937 36.7593 27.8247 36.7651 27.5551 36.7703C27.3135 36.6996 27.0879 36.6024 26.9056 36.4144C26.0298 35.5128 25.1413 34.6229 24.2777 33.7096C23.9577 33.3719 23.5989 33.195 23.1438 33.1976C22.4191 33.2015 21.695 33.1976 20.9703 33.2053C20.6905 33.2086 20.4107 33.2339 20.1309 33.2494L20.1328 33.2501ZM28.0956 14.737C23.6091 14.6864 19.8084 18.3713 19.8103 23.1094C19.8116 27.67 23.3376 31.4119 27.926 31.4268C32.505 31.4417 36.1737 27.7276 36.2031 23.1081C36.233 18.3577 32.4922 14.7266 28.0962 14.7363L28.0956 14.737Z" fill="url(#paint0_linear_1456_38055)"/>
<path d="M36.5632 34.5197C36.3523 34.6364 36.1394 34.7505 35.9303 34.871C35.2675 35.2522 34.6065 35.6365 33.9436 36.0183C33.3419 36.3651 32.7396 36.7112 32.1366 37.0554C31.3367 37.5117 30.5362 37.9667 29.735 38.4204C29.6585 38.4639 29.5788 38.4969 29.5782 38.6045C29.5304 38.5339 29.4769 38.4671 29.4348 38.3932C29.162 37.9168 28.8918 37.4385 28.619 36.9627C28.5616 36.8629 28.5151 36.7436 28.3672 36.7553C28.3869 36.743 28.4067 36.7203 28.4258 36.7209C28.7044 36.7209 28.9109 36.5744 29.0963 36.3845C29.9237 35.5374 30.7548 34.6934 31.5758 33.8398C31.9862 33.4133 32.4776 33.2033 33.0583 33.2078C33.9366 33.215 34.8149 33.2286 35.6932 33.2428C35.7614 33.2441 35.8296 33.2681 35.8978 33.2817C36.0827 33.6168 36.2688 33.9519 36.4523 34.2883C36.4931 34.3635 36.5263 34.4426 36.5632 34.5204V34.5197Z" fill="#5A6A85"/>
<path d="M26.4463 38.5804C26.3685 38.5079 26.3003 38.4178 26.2111 38.3659C25.2302 37.7988 24.2461 37.2381 23.2632 36.6755C22.3817 36.1705 21.5002 35.6663 20.62 35.16C20.295 34.9734 19.9737 34.7796 19.6487 34.5922C19.5964 34.5618 19.5339 34.5501 19.4766 34.5294C19.6302 34.2513 19.787 33.9752 19.9348 33.6932C20.0094 33.5506 20.0668 33.3983 20.1324 33.2499C20.4122 33.2343 20.692 33.2084 20.9719 33.2058C21.6966 33.198 22.4206 33.2019 23.1453 33.198C23.5998 33.1954 23.9592 33.3724 24.2792 33.7101C25.1435 34.6234 26.0314 35.5133 26.9071 36.4149C27.0894 36.6029 27.315 36.7001 27.5566 36.7708C27.2596 37.2763 26.9645 37.7832 26.6643 38.2868C26.6025 38.3912 26.5202 38.4826 26.4469 38.5798L26.4463 38.5804Z" fill="#5A6A85"/>
<path d="M28.0984 14.7373C32.4944 14.7276 36.2352 18.358 36.2052 23.1091C36.1759 27.7286 32.5078 31.4427 27.9282 31.4278C23.3398 31.4128 19.8144 27.6709 19.8125 23.1104C19.8112 18.3723 23.6113 14.6874 28.0978 14.738L28.0984 14.7373ZM24.2499 28.5427C24.255 28.7819 24.4373 28.9044 24.6228 28.8195C24.6865 28.7903 24.7445 28.7489 24.8032 28.7106C25.5821 28.1992 26.3597 27.6852 27.1404 27.177C27.3304 27.0532 27.5312 26.9469 27.7294 26.8361C27.8728 26.7557 28.0309 26.7421 28.1832 26.7914C28.3081 26.8322 28.4286 26.8951 28.5408 26.9651C28.9334 27.2088 29.3241 27.4545 29.7104 27.7085C30.254 28.065 30.7933 28.4287 31.3325 28.7916C31.4408 28.8642 31.546 28.8882 31.6569 28.8072C31.7589 28.7333 31.7774 28.6277 31.7557 28.511C31.7366 28.4099 31.7162 28.3088 31.6939 28.2083C31.4574 27.142 31.2286 26.0732 30.9781 25.0102C30.9035 24.6939 30.9857 24.4683 31.1993 24.2402C31.815 23.5823 32.5378 23.0547 33.23 22.4895C33.4486 22.3112 33.6698 22.1362 33.8807 21.9482C33.9923 21.8484 34.0108 21.7142 33.9534 21.6047C33.8973 21.4984 33.8036 21.4498 33.687 21.4388C33.2535 21.3966 32.8195 21.3532 32.3861 21.3072C31.6429 21.2288 30.9003 21.1419 30.1565 21.0706C29.8544 21.0414 29.6823 20.8839 29.5714 20.6059C29.1711 19.5993 28.7619 18.5972 28.3534 17.5938C28.3151 17.4992 28.2737 17.402 28.2125 17.3222C28.0882 17.1608 27.8913 17.1725 27.7842 17.3456C27.7307 17.4318 27.6956 17.5303 27.6567 17.6256C27.2469 18.6367 26.8351 19.6466 26.431 20.6603C26.3316 20.9092 26.1614 21.035 25.9052 21.0648C25.5413 21.1069 25.1799 21.1659 24.8153 21.2009C24.0402 21.2748 23.2639 21.3377 22.4889 21.4064C22.4194 21.4128 22.3499 21.4265 22.2823 21.4453C22.0255 21.5172 21.963 21.7518 22.1459 21.9541C22.1988 22.0124 22.2556 22.0669 22.3168 22.1161C22.6342 22.3721 22.9535 22.6256 23.2728 22.8797C23.8375 23.3282 24.4042 23.7741 24.8962 24.3102C25.0683 24.4981 25.1282 24.6926 25.0715 24.9376C24.8134 26.0557 24.5578 27.1751 24.3022 28.2938C24.2812 28.3865 24.2633 28.4792 24.2499 28.5434V28.5427Z" fill="#FCFCFB"/>
<path d="M24.2481 28.5428C24.2615 28.4793 24.2794 28.3859 24.3004 28.2932C24.5566 27.1745 24.8122 26.0551 25.0697 24.937C25.1264 24.692 25.0665 24.4975 24.8944 24.3096C24.4024 23.7735 23.8357 23.3282 23.271 22.879C22.9517 22.6256 22.6324 22.3715 22.315 22.1155C22.2538 22.0662 22.197 22.0118 22.1441 21.9535C21.9612 21.7512 22.0237 21.5166 22.2805 21.4446C22.3475 21.4258 22.4176 21.4122 22.4871 21.4057C23.2627 21.337 24.0384 21.2742 24.8135 21.2003C25.1774 21.1653 25.5395 21.1063 25.9034 21.0642C26.1603 21.0343 26.3298 20.9086 26.4292 20.6597C26.8333 19.6466 27.2451 18.6361 27.6549 17.625C27.6932 17.5297 27.7289 17.4312 27.7824 17.345C27.8895 17.1719 28.0858 17.1602 28.2107 17.3216C28.2719 17.4013 28.3133 17.4986 28.3516 17.5932C28.7595 18.5959 29.1693 19.5986 29.5696 20.6053C29.6799 20.8833 29.8526 21.0408 30.1547 21.07C30.8985 21.1413 31.6411 21.2275 32.3843 21.3066C32.8177 21.3526 33.2511 21.3954 33.6852 21.4382C33.8024 21.4498 33.8955 21.4978 33.9516 21.6041C34.0096 21.7136 33.9911 21.8478 33.8789 21.9476C33.668 22.1349 33.4468 22.31 33.2282 22.4888C32.536 23.0541 31.8138 23.581 31.1975 24.2396C30.9839 24.4677 30.9017 24.6926 30.9763 25.0096C31.2268 26.0726 31.4556 27.1414 31.6921 28.2077C31.7144 28.3081 31.7348 28.4093 31.7539 28.5104C31.7756 28.627 31.7571 28.7327 31.6551 28.8066C31.5442 28.887 31.439 28.8636 31.3307 28.791C30.7915 28.4281 30.2516 28.0651 29.7086 27.7079C29.3223 27.4545 28.9316 27.2082 28.539 26.9645C28.4268 26.8945 28.3063 26.8316 28.1814 26.7908C28.0297 26.7415 27.8716 26.7551 27.7276 26.8355C27.5294 26.9463 27.3286 27.0526 27.1386 27.1764C26.3579 27.6846 25.5803 28.1986 24.8014 28.71C24.7427 28.7489 24.6841 28.7904 24.621 28.8189C24.4355 28.9038 24.2532 28.7813 24.2481 28.5421V28.5428Z" fill="url(#paint1_linear_1456_38055)"/>
<path d="M36.556 34.5195C37.4133 36.0188 38.2724 37.5173 39.1278 39.0178C39.7448 40.1009 40.3605 41.1847 40.9698 42.2723C41.0616 42.4357 41.1222 42.6178 41.1878 42.7947C41.2363 42.925 41.1961 43.0404 41.1043 43.1441C40.9016 43.3729 40.6467 43.4747 40.3516 43.4475C39.964 43.4118 39.5778 43.3574 39.1915 43.3075C38.4031 43.207 37.6153 43.1039 36.8269 43.0035C36.7969 42.9996 36.7657 43.0035 36.7179 43.0035C36.6548 43.1376 36.5904 43.2718 36.5292 43.4073C36.1175 44.3218 35.7044 45.2364 35.2972 46.1529C35.1933 46.3863 35.0479 46.5697 34.8153 46.6779C34.5578 46.7985 34.3296 46.7719 34.1301 46.5652C34.0281 46.4589 33.9408 46.3331 33.8675 46.2041C33.0096 44.6958 32.1555 43.1849 31.2995 41.6747C30.7826 40.7621 30.2644 39.8495 29.7475 38.9368C29.6857 38.8279 29.629 38.7158 29.5703 38.6056C29.5703 38.498 29.6506 38.465 29.7271 38.4215C30.5283 37.9678 31.3288 37.5128 32.1288 37.0565C32.7317 36.7123 33.334 36.3662 33.9357 36.0194C34.5986 35.6376 35.2596 35.2533 35.9224 34.8721C36.1315 34.7516 36.3444 34.6381 36.5553 34.5208L36.556 34.5195Z" fill="#7C8FAC"/>
<path d="M26.4461 38.5805C26.4148 38.6603 26.3925 38.7458 26.3505 38.8191C25.3071 40.6573 24.2611 42.4935 23.2177 44.3311C22.8595 44.9618 22.509 45.597 22.152 46.229C22.0902 46.3385 22.0227 46.4467 21.943 46.5427C21.7709 46.7494 21.5306 46.8007 21.2884 46.6969C21.0162 46.5803 20.8365 46.3787 20.7148 46.1045C20.2654 45.0953 19.8071 44.0893 19.352 43.0827C19.3425 43.0613 19.3259 43.0438 19.2972 43.003C19.1411 43.0199 18.9728 43.0341 18.8052 43.0562C17.8242 43.1819 16.8427 43.3083 15.8624 43.4379C15.5985 43.4729 15.3493 43.4444 15.1198 43.3018C14.8445 43.1307 14.7693 42.9155 14.8949 42.6154C14.9643 42.4488 15.0548 42.29 15.1441 42.1325C16.3379 40.0266 17.5323 37.9207 18.7287 35.8161C18.9741 35.3844 19.2271 34.9579 19.4763 34.5288C19.5343 34.5496 19.5962 34.5619 19.6484 34.5917C19.9735 34.779 20.2947 34.9722 20.6198 35.1595C21.5 35.6657 22.3815 36.1706 23.263 36.6749C24.2458 37.2375 25.2299 37.7988 26.2109 38.3653C26.3001 38.4172 26.3683 38.5073 26.4461 38.5799V38.5805Z" fill="#7C8FAC"/>
</g>
<defs>
<linearGradient id="paint0_linear_1456_38055" x1="14.4993" y1="9.2497" x2="41.9001" y2="36.2467" gradientUnits="userSpaceOnUse">
<stop stop-color="#A0DF81"/>
<stop offset="1" stop-color="#19BB8D"/>
</linearGradient>
<linearGradient id="paint1_linear_1456_38055" x1="22.0388" y1="17.2081" x2="33.6333" y2="29.1481" gradientUnits="userSpaceOnUse">
<stop stop-color="#A0DF81"/>
<stop offset="1" stop-color="#19BB8D"/>
</linearGradient>
<clipPath id="clip0_1456_38055">
<rect width="27" height="37.5" fill="white" transform="translate(14.5 9.25)"/>
</clipPath>
</defs>
</svg>
