<svg width="56" height="56" viewBox="0 0 56 56" fill="none" xmlns="http://www.w3.org/2000/svg">
<path d="M0 8C0 3.58172 3.58172 0 8 0H48C52.4183 0 56 3.58172 56 8V48C56 52.4183 52.4183 56 48 56H8C3.58172 56 0 52.4183 0 48V8Z" fill="#E1F3FF"/>
<path d="M26.8472 43.8391C27.2082 44.0524 27.3888 44.1591 27.6514 44.2083C27.8483 44.2494 28.1437 44.2494 28.3406 44.2083C28.595 44.1509 28.7755 44.0442 29.1448 43.8391C32.345 41.9764 41.1252 36.1175 41.1252 28.0594V20.2147C41.1252 18.9018 41.1252 18.2453 40.9119 17.6791C40.7231 17.1786 40.4113 16.7355 40.0174 16.3826C39.5661 15.9806 38.9507 15.7508 37.7198 15.2913L28.9232 11.9926C28.5786 11.8613 28.4145 11.8038 28.234 11.7792C28.0781 11.7546 27.9221 11.7546 27.7662 11.7792C27.5939 11.8038 27.4216 11.8695 27.077 11.9926L18.2804 15.2913C17.0495 15.7508 16.4341 15.9806 15.9828 16.3826C15.5807 16.7355 15.2771 17.1786 15.0883 17.6791C14.875 18.2453 14.875 18.9018 14.875 20.2147V28.0594C14.875 36.1175 23.6634 41.9764 26.8554 43.8391H26.8472Z" fill="url(#paint0_linear_1443_37757)"/>
<mask id="mask0_1443_37757" style="mask-type:luminance" maskUnits="userSpaceOnUse" x="14" y="11" width="28" height="34">
<path d="M26.8472 43.8391C27.2082 44.0524 27.3888 44.1591 27.6514 44.2083C27.8483 44.2494 28.1437 44.2494 28.3406 44.2083C28.595 44.1509 28.7755 44.0442 29.1448 43.8391C32.345 41.9764 41.1252 36.1175 41.1252 28.0594V20.2147C41.1252 18.9018 41.1252 18.2453 40.9119 17.6791C40.7231 17.1786 40.4113 16.7355 40.0174 16.3826C39.5661 15.9806 38.9507 15.7508 37.7198 15.2913L28.9232 11.9926C28.5786 11.8613 28.4145 11.8038 28.234 11.7792C28.0781 11.7546 27.9221 11.7546 27.7662 11.7792C27.5939 11.8038 27.4216 11.8695 27.077 11.9926L18.2804 15.2913C17.0495 15.7508 16.4341 15.9806 15.9828 16.3826C15.5807 16.7355 15.2771 17.1786 15.0883 17.6791C14.875 18.2453 14.875 18.9018 14.875 20.2147V28.0594C14.875 36.1175 23.6634 41.9764 26.8554 43.8391H26.8472Z" fill="white"/>
</mask>
<g mask="url(#mask0_1443_37757)">
<path d="M27.9964 11.5332H14.8672V44.3562H27.9964V11.5332Z" fill="url(#paint1_linear_1443_37757)"/>
</g>
<path d="M23.0781 28.3088L26.9285 32.047L33.7456 25.4824" stroke="#5876E4" stroke-width="3" stroke-linecap="round" stroke-linejoin="round"/>
<path d="M23.0781 26.6682L26.9285 30.4064L33.7456 23.8418" stroke="white" stroke-width="3" stroke-linecap="round" stroke-linejoin="round"/>
<defs>
<linearGradient id="paint0_linear_1443_37757" x1="28.0001" y1="11.7607" x2="28.0001" y2="44.2391" gradientUnits="userSpaceOnUse">
<stop stop-color="#59A9FF"/>
<stop offset="1" stop-color="#5D87FF"/>
</linearGradient>
<linearGradient id="paint1_linear_1443_37757" x1="14.8672" y1="11.5332" x2="27.9964" y2="44.3562" gradientUnits="userSpaceOnUse">
<stop stop-color="#6CC9FF"/>
<stop offset="1" stop-color="#5D87FF"/>
</linearGradient>
</defs>
</svg>
