<svg width="64" height="64" viewBox="0 0 64 64" fill="none" xmlns="http://www.w3.org/2000/svg">
<rect width="64" height="64" rx="12" fill="#FFEBE3"/>
<g clip-path="url(#clip0_1456_38029)">
<path d="M47 41.0001V22.9999L32 14L17 22.9999V41.0001L32 50L47 41.0001Z" fill="url(#paint0_linear_1456_38029)"/>
<path d="M31.0482 24.4143C31.3488 23.4955 32.6486 23.4955 32.9491 24.4143L34.5115 29.1915C34.6443 29.5977 35.0206 29.8746 35.4479 29.8806L40.3794 29.9499C41.3248 29.9632 41.7255 31.1596 40.9788 31.7395L36.9646 34.8573C36.6387 35.1104 36.5017 35.5376 36.6197 35.933L38.0893 40.8585C38.3635 41.7773 37.3125 42.5179 36.5395 41.9506L32.5903 39.0527C32.2382 38.7944 31.7592 38.7944 31.4071 39.0527L27.4578 41.9508C26.6848 42.518 25.6338 41.7775 25.9079 40.8587L27.3774 35.933C27.4954 35.5376 27.3584 35.1104 27.0326 34.8573L23.0183 31.7395C22.2716 31.1596 22.6723 29.9632 23.6177 29.9499L28.5492 29.8806C28.9765 29.8746 29.3528 29.5977 29.4856 29.1916L31.0482 24.4143Z" fill="#F34759"/>
<path d="M31.0482 22.916C31.3488 21.9972 32.6486 21.9972 32.9491 22.9161L34.5115 27.6932C34.6443 28.0994 35.0206 28.3763 35.4479 28.3823L40.3794 28.4516C41.3248 28.4649 41.7255 29.6613 40.9788 30.2413L36.9646 33.359C36.6387 33.6121 36.5017 34.0393 36.6197 34.4347L38.0893 39.3602C38.3635 40.279 37.3125 41.0196 36.5395 40.4524L32.5903 37.5544C32.2382 37.2961 31.7592 37.2961 31.4071 37.5544L27.4578 40.4525C26.6848 41.0197 25.6338 40.2792 25.9079 39.3604L27.3774 34.4347C27.4954 34.0393 27.3584 33.6121 27.0326 33.359L23.0183 30.2413C22.2716 29.6613 22.6723 28.4649 23.6177 28.4516L28.5492 28.3823C28.9765 28.3763 29.3528 28.0994 29.4856 27.6933L31.0482 22.916Z" fill="#FFEBE2"/>
<mask id="mask0_1456_38029" style="mask-type:alpha" maskUnits="userSpaceOnUse" x="22" y="22" width="20" height="19">
<path d="M31.0482 22.916C31.3488 21.9972 32.6486 21.9972 32.9491 22.9161L34.5115 27.6932C34.6443 28.0994 35.0206 28.3763 35.4479 28.3823L40.3794 28.4516C41.3248 28.4649 41.7255 29.6613 40.9788 30.2413L36.9646 33.359C36.6387 33.6121 36.5017 34.0393 36.6197 34.4347L38.0893 39.3602C38.3635 40.279 37.3125 41.0196 36.5395 40.4524L32.5903 37.5544C32.2382 37.2961 31.7592 37.2961 31.4071 37.5544L27.4578 40.4525C26.6848 41.0197 25.6338 40.2792 25.9079 39.3604L27.3774 34.4347C27.4954 34.0393 27.3584 33.6121 27.0326 33.359L23.0183 30.2413C22.2716 29.6613 22.6723 28.4649 23.6177 28.4516L28.5492 28.3823C28.9765 28.3763 29.3528 28.0994 29.4856 27.6933L31.0482 22.916Z" fill="#FFEBE2"/>
</mask>
<g mask="url(#mask0_1456_38029)">
<path d="M31.9969 20.01V31.1434L29.2617 28.3723L31.9969 20.01Z" fill="white"/>
<path d="M25.0547 42.2132L32.0488 31.1111L27.5713 33.7774" fill="white"/>
<path d="M20.7656 28.4914L31.9989 31.1434L29.2636 28.3721L20.7656 28.4914Z" fill="white"/>
<path d="M43.2328 28.491L32 31.1423L36.4254 33.7782L43.2328 28.491Z" fill="#FFC4C2"/>
<path d="M38.9403 42.2141L31.998 37.1198L25.0781 42.1977L31.998 31.1428L38.9403 42.2141Z" fill="#FFC4C2"/>
</g>
</g>
<defs>
<linearGradient id="paint0_linear_1456_38029" x1="17" y1="14" x2="47" y2="50" gradientUnits="userSpaceOnUse">
<stop stop-color="#FFC992"/>
<stop offset="1" stop-color="#F02D4E"/>
</linearGradient>
<clipPath id="clip0_1456_38029">
<rect width="30" height="36" fill="white" transform="translate(17 14)"/>
</clipPath>
</defs>
</svg>
