<svg width="28" height="26" viewBox="0 0 28 26" fill="none" xmlns="http://www.w3.org/2000/svg">
<path d="M22.9822 26C22.8687 26 22.7536 25.9951 22.6384 25.9871C20.9411 25.8625 19.4475 24.7394 18.8316 23.126C18.7515 22.9173 18.6898 22.7037 18.6464 22.4933C18.3427 21.0159 17.4565 19.7618 16.2148 19.0546L15.7542 18.7924C14.9865 18.3539 14.1036 18.1225 13.2024 18.1225C12.3012 18.1225 11.3399 18.3668 10.5121 18.8313C9.45406 19.4235 8.24577 19.7359 7.01913 19.7359C5.02646 19.7359 3.1189 18.9089 1.78878 17.4687C0.440305 16.0075 -0.178859 14.1206 0.0447739 12.1529C0.40192 9.01027 3.01709 6.4907 6.26145 6.16058C6.51345 6.13469 6.76879 6.12174 7.01913 6.12174C8.25746 6.12174 9.47576 6.44053 10.5405 7.04251C11.3833 7.51989 12.3296 7.77233 13.2759 7.77233C14.1637 7.77233 15.0332 7.5474 15.7926 7.1218L16.1964 6.89525C17.4565 6.18809 18.3293 4.97442 18.6514 3.4808C18.6981 3.26234 18.7666 3.04388 18.8517 2.82866C19.4959 1.22338 20.9995 0.11813 22.6818 0.00970934C22.7819 0.00323645 22.8821 0 22.9822 0C24.2372 0 25.4372 0.521068 26.275 1.42889C27.1228 2.34966 27.5116 3.53744 27.3681 4.777C27.1378 6.76579 25.4105 8.38725 23.3477 8.54746C23.2259 8.55717 23.1024 8.56202 22.9822 8.56202C22.3697 8.56202 21.7789 8.44227 21.2232 8.20763C20.5556 7.92606 19.853 7.78204 19.132 7.78204C18.2358 7.78204 17.3563 8.01021 16.5853 8.44227C14.9982 9.3323 14.0235 11.0282 14.0402 12.8665V12.928C14.0402 12.9733 14.0402 13.0186 14.0402 13.0639C14.0035 14.8796 14.9681 16.5706 16.5553 17.4752L16.622 17.5124C17.3964 17.9542 18.2876 18.1872 19.1938 18.1872C19.9031 18.1872 20.5973 18.0497 21.2582 17.7762C21.804 17.5513 22.3847 17.4364 22.9822 17.4364C23.2125 17.4364 23.4462 17.4542 23.6765 17.4881C25.4922 17.7568 26.9909 19.163 27.3197 20.9075C27.56 22.1842 27.2162 23.4772 26.3734 24.4562C25.5306 25.4352 24.294 25.9984 22.9805 25.9984L22.9822 26ZM6.8706 9.3064C4.77111 9.3064 3.06215 10.9635 3.06215 12.9992C3.06215 15.0349 4.77111 16.692 6.8706 16.692C8.97008 16.692 10.679 15.0349 10.679 12.9992C10.679 10.9635 8.97008 9.3064 6.8706 9.3064Z" fill="url(#paint0_linear_1749_21539)"/>
<defs>
<linearGradient id="paint0_linear_1749_21539" x1="27.3973" y1="13" x2="0" y2="13" gradientUnits="userSpaceOnUse">
<stop stop-color="#F9A6A7"/>
<stop offset="0.248" stop-color="#E382AF"/>
<stop offset="0.5" stop-color="#5D87FF"/>
<stop offset="1" stop-color="#62B6FF"/>
</linearGradient>
</defs>
</svg>
