<svg width="24" height="24" viewBox="0 0 24 24" fill="none" xmlns="http://www.w3.org/2000/svg">
<g clip-path="url(#clip0_1680_41317)">
<path d="M0 11.9981C0 18.6269 5.35364 24 11.9546 24C18.5555 24 23.9129 18.6269 23.9129 12.0019C23.9129 5.3769 18.5593 0 11.9546 0C5.34988 0 0 5.36936 0 11.9981ZM5.31231 11.9981C5.31231 8.31799 8.28781 5.33166 11.9546 5.33166C15.6214 5.33166 18.5969 8.31799 18.5969 11.9981C18.5969 15.6782 15.6214 18.6646 11.9546 18.6646C8.28405 18.6646 5.31231 15.6782 5.31231 11.9981Z" fill="url(#paint0_linear_1680_41317)"/>
<path d="M18.8735 2.21704C24.3136 5.99897 25.636 13.4422 21.8265 18.8455C21.0225 19.988 20.0231 20.9797 18.8735 21.779L15.7891 17.4013C18.7946 15.3124 19.5235 11.1987 17.4196 8.2161C16.9763 7.5864 16.424 7.03589 15.7891 6.59473L18.8735 2.21704Z" fill="url(#paint1_linear_1680_41317)"/>
</g>
<defs>
<linearGradient id="paint0_linear_1680_41317" x1="11.9722" y1="23.5902" x2="11.9259" y2="-6.62726" gradientUnits="userSpaceOnUse">
<stop stop-color="#AABAD3"/>
<stop offset="1" stop-color="#7C8FAC"/>
</linearGradient>
<linearGradient id="paint1_linear_1680_41317" x1="15.4792" y1="-5.07242" x2="21.6372" y2="21.3701" gradientUnits="userSpaceOnUse">
<stop stop-color="#576B8A"/>
<stop offset="1" stop-color="#7C8FAC"/>
</linearGradient>
<clipPath id="clip0_1680_41317">
<rect width="24" height="24" fill="white"/>
</clipPath>
</defs>
</svg>
