<svg width="48" height="48" viewBox="0 0 48 48" fill="none" xmlns="http://www.w3.org/2000/svg">
<rect width="48" height="48" rx="8" fill="#F6F2FF"/>
<path d="M32.1324 36C32.033 36 31.9321 35.9955 31.8312 35.9881C30.3444 35.873 29.036 34.8364 28.4965 33.3471C28.4263 33.1544 28.3722 32.9572 28.3342 32.7631C28.0681 31.3993 27.2918 30.2416 26.2041 29.5888L25.8006 29.3469C25.1281 28.9421 24.3548 28.7285 23.5653 28.7285C22.7759 28.7285 21.9338 28.954 21.2086 29.3827C20.2817 29.9294 19.2233 30.2177 18.1487 30.2177C16.4032 30.2177 14.7322 29.4544 13.567 28.125C12.3857 26.7761 11.8433 25.0344 12.0392 23.218C12.3521 20.3172 14.643 17.9914 17.485 17.6867C17.7058 17.6628 17.9295 17.6508 18.1487 17.6508C19.2335 17.6508 20.3008 17.9451 21.2335 18.5008C21.9718 18.9414 22.8007 19.1745 23.6296 19.1745C24.4074 19.1745 25.1691 18.9668 25.8343 18.574L26.1881 18.3648C27.2918 17.7121 28.0564 16.5918 28.3386 15.213C28.3795 15.0114 28.4395 14.8097 28.514 14.6111C29.0784 13.1293 30.3956 12.109 31.8692 12.009C31.957 12.003 32.0447 12 32.1324 12C33.2318 12 34.2829 12.481 35.0168 13.319C35.7595 14.1689 36.1001 15.2653 35.9744 16.4095C35.7727 18.2453 34.2595 19.7421 32.4526 19.89C32.3458 19.8989 32.2376 19.9034 32.1324 19.9034C31.5958 19.9034 31.0783 19.7929 30.5915 19.5763C30.0067 19.3164 29.3912 19.1834 28.7597 19.1834C27.9746 19.1834 27.2041 19.394 26.5287 19.7929C25.1384 20.6144 24.2846 22.1799 24.2992 23.8768V23.9335C24.2992 23.9754 24.2992 24.0172 24.2992 24.059C24.267 25.735 25.1121 27.2959 26.5024 28.131L26.5609 28.1653C27.2392 28.5731 28.0199 28.7882 28.8137 28.7882C29.4351 28.7882 30.0433 28.6612 30.6222 28.4088C31.1002 28.2012 31.609 28.0951 32.1324 28.0951C32.3341 28.0951 32.5388 28.1115 32.7406 28.1429C34.3312 28.3909 35.644 29.6889 35.932 31.2992C36.1425 32.4778 35.8414 33.6713 35.1031 34.575C34.3648 35.4787 33.2815 35.9985 32.1309 35.9985L32.1324 36ZM18.0186 20.5905C16.1795 20.5905 14.6824 22.1201 14.6824 23.9993C14.6824 25.8784 16.1795 27.408 18.0186 27.408C19.8578 27.408 21.3548 25.8784 21.3548 23.9993C21.3548 22.1201 19.8578 20.5905 18.0186 20.5905Z" fill="url(#paint0_linear_2291_63306)"/>
<defs>
<linearGradient id="paint0_linear_2291_63306" x1="36" y1="24" x2="12" y2="24" gradientUnits="userSpaceOnUse">
<stop stop-color="#F9A6A7"/>
<stop offset="0.248" stop-color="#E382AF"/>
<stop offset="0.5" stop-color="#5D87FF"/>
<stop offset="1" stop-color="#62B6FF"/>
</linearGradient>
</defs>
</svg>
