<svg width="48" height="48" viewBox="0 0 48 48" fill="none" xmlns="http://www.w3.org/2000/svg">
<rect width="48" height="48" rx="8" fill="#F1F8FF"/>
<path d="M21.8881 22.0679C21.2041 22.0679 20.6641 22.6679 20.6641 23.3999C20.6641 24.1319 21.2161 24.7319 21.8881 24.7319C22.5721 24.7319 23.1121 24.1319 23.1121 23.3999C23.1241 22.6679 22.5721 22.0679 21.8881 22.0679ZM26.2681 22.0679C25.5841 22.0679 25.0441 22.6679 25.0441 23.3999C25.0441 24.1319 25.5961 24.7319 26.2681 24.7319C26.9521 24.7319 27.4921 24.1319 27.4921 23.3999C27.4921 22.6679 26.9521 22.0679 26.2681 22.0679Z" fill="#7289DA"/>
<path d="M32.1005 12H16.0205C14.6645 12 13.5605 13.104 13.5605 14.472V30.696C13.5605 32.064 14.6645 33.168 16.0205 33.168H29.6285L28.9925 30.948L30.5285 32.376L31.9805 33.72L34.5605 36V14.472C34.5605 13.104 33.4565 12 32.1005 12ZM27.4685 27.672C27.4685 27.672 27.0365 27.156 26.6765 26.7C28.2485 26.256 28.8485 25.272 28.8485 25.272C28.3565 25.596 27.8885 25.824 27.4685 25.98C26.8685 26.232 26.2925 26.4 25.7285 26.496C24.5765 26.712 23.5205 26.652 22.6205 26.484C21.9365 26.352 21.3485 26.16 20.8565 25.968C20.5805 25.86 20.2805 25.728 19.9805 25.56C19.9445 25.536 19.9085 25.524 19.8725 25.5C19.8485 25.488 19.8365 25.476 19.8245 25.464C19.6085 25.344 19.4885 25.26 19.4885 25.26C19.4885 25.26 20.0645 26.22 21.5885 26.676C21.2285 27.132 20.7845 27.672 20.7845 27.672C18.1325 27.588 17.1245 25.848 17.1245 25.848C17.1245 21.984 18.8525 18.852 18.8525 18.852C20.5805 17.556 22.2245 17.592 22.2245 17.592L22.3445 17.736C20.1845 18.36 19.1885 19.308 19.1885 19.308C19.1885 19.308 19.4525 19.164 19.8965 18.96C21.1805 18.396 22.2005 18.24 22.6205 18.204C22.6925 18.192 22.7525 18.18 22.8245 18.18C23.5565 18.084 24.3845 18.06 25.2485 18.156C26.3885 18.288 27.6125 18.624 28.8605 19.308C28.8605 19.308 27.9125 18.408 25.8725 17.784L26.0405 17.592C26.0405 17.592 27.6845 17.556 29.4125 18.852C29.4125 18.852 31.1405 21.984 31.1405 25.848C31.1405 25.848 30.1205 27.588 27.4685 27.672Z" fill="#7289DA"/>
</svg>
