<svg width="49" height="48" viewBox="0 0 49 48" fill="none" xmlns="http://www.w3.org/2000/svg">
<g clip-path="url(#clip0_575_23196)">
<path d="M37.5 6H11.5V30L24.5 36L37.5 42V6Z" fill="#F55376"/>
<path d="M11.5 6H37.5V30L24.5 36L11.5 42V6Z" fill="#F55376"/>
<path d="M11.5 6V30L24.5 36L32 32.538L37.5 25V6H11.5Z" fill="#EB0000"/>
<path d="M37.5 29.768L48.5 21H26.5L37.5 29.768Z" fill="#FADB00"/>
<path d="M37.5 29.732L44.457 34H44.5L37.5 14L30.5 34H30.544L37.5 29.732Z" fill="#FADB00"/>
<path d="M39.9496 21H35.0496L33.1846 26.329L37.4736 29.748L37.4996 29.732L37.5256 29.748L41.8146 26.329L39.9496 21Z" fill="#F5BC00"/>
</g>
<defs>
<clipPath id="clip0_575_23196">
<rect width="48" height="48" fill="white" transform="translate(0.5)"/>
</clipPath>
</defs>
</svg>
