<svg width="49" height="48" viewBox="0 0 49 48" fill="none" xmlns="http://www.w3.org/2000/svg">
<path d="M20.5 44C29.3366 44 36.5 36.8366 36.5 28C36.5 19.1634 29.3366 12 20.5 12C11.6634 12 4.5 19.1634 4.5 28C4.5 36.8366 11.6634 44 20.5 44Z" fill="#3DDAB4"/>
<path d="M32.0838 30.9273C39.5114 30.9273 45.5328 24.906 45.5328 17.4783C45.5328 10.0506 39.5114 4.0293 32.0838 4.0293C24.6561 4.0293 18.6348 10.0506 18.6348 17.4783C18.6348 24.906 24.6561 30.9273 32.0838 30.9273Z" fill="#F5BC00"/>
<path d="M20.4998 12C20.2608 12 20.0288 12.025 19.7918 12.036C19.0528 13.701 18.6348 15.54 18.6348 17.479C18.6348 24.907 24.6558 30.928 32.0838 30.928C33.5678 30.928 34.9908 30.678 36.3258 30.235C36.4288 29.502 36.4998 28.76 36.4998 28C36.4998 19.163 29.3368 12 20.4998 12Z" fill="#00B569"/>
</svg>
