<svg width="49" height="48" viewBox="0 0 49 48" fill="none" xmlns="http://www.w3.org/2000/svg">
<path d="M24.5004 44C16.2844 44 9.36339 37.86 8.38439 29.703L7.58739 25.064C6.37139 14.924 14.2884 6 24.5004 6C34.7124 6 42.6294 14.924 41.4124 25.063L40.6154 29.702C39.6374 37.86 32.7164 44 24.5004 44Z" fill="#DDBAFF"/>
<path d="M38.2008 10.9169C37.3758 9.79991 36.4138 8.78391 35.3428 7.89991C32.4118 5.47491 28.6448 4.00391 24.4998 4.00391C20.3548 4.00391 16.5878 5.47491 13.6558 7.89891C13.1018 8.35691 12.5718 8.84991 12.0758 9.38391C8.96081 12.7069 7.17281 17.2629 7.50281 22.1609C10.8648 20.7119 13.3828 17.6789 14.1178 14.0029H34.8818C35.6168 17.6799 38.1348 20.7119 41.4968 22.1609C41.7778 17.9829 40.5188 14.0539 38.2008 10.9169Z" fill="#6C19FF"/>
<path d="M40.5 31H8.5C6.843 31 5.5 29.657 5.5 28C5.5 26.343 6.843 25 8.5 25H40.5C42.157 25 43.5 26.343 43.5 28C43.5 29.657 42.157 31 40.5 31Z" fill="#DDBAFF"/>
<path d="M38.2008 13.913C37.3758 12.796 36.4138 11.78 35.3428 10.896C32.4118 8.471 28.6448 7 24.4998 7C20.3548 7 16.5878 8.471 13.6558 10.895C13.1018 11.353 12.5718 11.846 12.0758 12.38C8.96081 15.703 7.17281 20.259 7.50281 25.157C10.8648 23.708 13.3828 20.675 14.1178 16.999H34.8818C35.6168 20.676 38.1348 23.708 41.4968 25.157C41.7778 20.979 40.5188 17.05 38.2008 13.913Z" fill="#2100C4"/>
</svg>
