<svg width="498" height="382" viewBox="0 0 498 382" fill="none" xmlns="http://www.w3.org/2000/svg">
<rect y="40" width="446" height="342" rx="12" fill="#F2F6FA"/>
<g filter="url(#filter0_dd_2216_57447)">
<rect x="32" y="8" width="446" height="342" rx="12" fill="white" shape-rendering="crispEdges"/>
<path d="M68.788 58V51.952L64.198 44.59H66.592L70.264 50.548H69.418L73.072 44.59H75.466L70.894 51.952V58H68.788ZM79.8528 58.216C78.9168 58.216 78.0588 57.994 77.2788 57.55C76.5108 57.106 75.8988 56.5 75.4428 55.732C74.9868 54.964 74.7588 54.094 74.7588 53.122C74.7588 52.138 74.9868 51.268 75.4428 50.512C75.8988 49.744 76.5108 49.144 77.2788 48.712C78.0468 48.268 78.9048 48.046 79.8528 48.046C80.8128 48.046 81.6708 48.268 82.4268 48.712C83.1948 49.144 83.8008 49.744 84.2448 50.512C84.7008 51.268 84.9288 52.138 84.9288 53.122C84.9288 54.106 84.7008 54.982 84.2448 55.75C83.7888 56.518 83.1768 57.124 82.4088 57.568C81.6408 58 80.7888 58.216 79.8528 58.216ZM79.8528 56.326C80.4288 56.326 80.9388 56.188 81.3828 55.912C81.8268 55.636 82.1748 55.258 82.4268 54.778C82.6908 54.286 82.8228 53.734 82.8228 53.122C82.8228 52.51 82.6908 51.964 82.4268 51.484C82.1748 51.004 81.8268 50.626 81.3828 50.35C80.9388 50.074 80.4288 49.936 79.8528 49.936C79.2888 49.936 78.7788 50.074 78.3228 50.35C77.8788 50.626 77.5248 51.004 77.2608 51.484C77.0088 51.964 76.8828 52.51 76.8828 53.122C76.8828 53.734 77.0088 54.286 77.2608 54.778C77.5248 55.258 77.8788 55.636 78.3228 55.912C78.7788 56.188 79.2888 56.326 79.8528 56.326ZM90.3886 58.216C89.6566 58.216 89.0146 58.054 88.4626 57.73C87.9106 57.394 87.4786 56.932 87.1666 56.344C86.8666 55.744 86.7166 55.054 86.7166 54.274V48.262H88.7506V54.094C88.7506 54.538 88.8406 54.928 89.0206 55.264C89.2006 55.6 89.4526 55.864 89.7766 56.056C90.1006 56.236 90.4726 56.326 90.8926 56.326C91.3246 56.326 91.7026 56.23 92.0266 56.038C92.3506 55.846 92.6026 55.576 92.7826 55.228C92.9746 54.88 93.0706 54.472 93.0706 54.004V48.262H95.0866V58H93.1606V56.092L93.3766 56.344C93.1486 56.944 92.7706 57.406 92.2426 57.73C91.7146 58.054 91.0966 58.216 90.3886 58.216ZM97.4614 58V48.262H99.4054V50.224L99.2254 49.936C99.4414 49.3 99.7894 48.844 100.269 48.568C100.749 48.28 101.325 48.136 101.997 48.136H102.591V49.99H101.745C101.073 49.99 100.527 50.2 100.107 50.62C99.6994 51.028 99.4954 51.616 99.4954 52.384V58H97.4614ZM112.331 58.216C111.575 58.216 110.885 58.06 110.261 57.748C109.649 57.436 109.175 56.986 108.839 56.398L109.073 56.02V58H107.129V44.374H109.163V50.278L108.839 49.81C109.199 49.258 109.679 48.826 110.279 48.514C110.879 48.202 111.563 48.046 112.331 48.046C113.255 48.046 114.083 48.268 114.815 48.712C115.559 49.156 116.141 49.762 116.561 50.53C116.993 51.298 117.209 52.162 117.209 53.122C117.209 54.082 116.993 54.946 116.561 55.714C116.141 56.482 115.565 57.094 114.833 57.55C114.101 57.994 113.267 58.216 112.331 58.216ZM112.133 56.326C112.709 56.326 113.219 56.188 113.663 55.912C114.107 55.636 114.455 55.258 114.707 54.778C114.971 54.286 115.103 53.734 115.103 53.122C115.103 52.51 114.971 51.964 114.707 51.484C114.455 51.004 114.107 50.626 113.663 50.35C113.219 50.074 112.709 49.936 112.133 49.936C111.569 49.936 111.059 50.074 110.603 50.35C110.159 50.626 109.805 51.004 109.541 51.484C109.289 51.964 109.163 52.51 109.163 53.122C109.163 53.734 109.289 54.286 109.541 54.778C109.805 55.258 110.159 55.636 110.603 55.912C111.059 56.188 111.569 56.326 112.133 56.326ZM122.104 58.216C121.444 58.216 120.862 58.102 120.358 57.874C119.866 57.634 119.482 57.31 119.206 56.902C118.93 56.482 118.792 55.99 118.792 55.426C118.792 54.898 118.906 54.424 119.134 54.004C119.374 53.584 119.74 53.23 120.232 52.942C120.724 52.654 121.342 52.45 122.086 52.33L125.47 51.772V53.374L122.482 53.896C121.942 53.992 121.546 54.166 121.294 54.418C121.042 54.658 120.916 54.97 120.916 55.354C120.916 55.726 121.054 56.032 121.33 56.272C121.618 56.5 121.984 56.614 122.428 56.614C122.98 56.614 123.46 56.494 123.868 56.254C124.288 56.014 124.612 55.696 124.84 55.3C125.068 54.892 125.182 54.442 125.182 53.95V51.448C125.182 50.968 125.002 50.578 124.642 50.278C124.294 49.966 123.826 49.81 123.238 49.81C122.698 49.81 122.224 49.954 121.816 50.242C121.42 50.518 121.126 50.878 120.934 51.322L119.242 50.476C119.422 49.996 119.716 49.576 120.124 49.216C120.532 48.844 121.006 48.556 121.546 48.352C122.098 48.148 122.68 48.046 123.292 48.046C124.06 48.046 124.738 48.19 125.326 48.478C125.926 48.766 126.388 49.168 126.712 49.684C127.048 50.188 127.216 50.776 127.216 51.448V58H125.272V56.236L125.686 56.29C125.458 56.686 125.164 57.028 124.804 57.316C124.456 57.604 124.054 57.826 123.598 57.982C123.154 58.138 122.656 58.216 122.104 58.216ZM129.594 58V44.374H131.628V58H129.594ZM136.922 58.216C136.262 58.216 135.68 58.102 135.176 57.874C134.684 57.634 134.3 57.31 134.024 56.902C133.748 56.482 133.61 55.99 133.61 55.426C133.61 54.898 133.724 54.424 133.952 54.004C134.192 53.584 134.558 53.23 135.05 52.942C135.542 52.654 136.16 52.45 136.904 52.33L140.288 51.772V53.374L137.3 53.896C136.76 53.992 136.364 54.166 136.112 54.418C135.86 54.658 135.734 54.97 135.734 55.354C135.734 55.726 135.872 56.032 136.148 56.272C136.436 56.5 136.802 56.614 137.246 56.614C137.798 56.614 138.278 56.494 138.686 56.254C139.106 56.014 139.43 55.696 139.658 55.3C139.886 54.892 140 54.442 140 53.95V51.448C140 50.968 139.82 50.578 139.46 50.278C139.112 49.966 138.644 49.81 138.056 49.81C137.516 49.81 137.042 49.954 136.634 50.242C136.238 50.518 135.944 50.878 135.752 51.322L134.06 50.476C134.24 49.996 134.534 49.576 134.942 49.216C135.35 48.844 135.824 48.556 136.364 48.352C136.916 48.148 137.498 48.046 138.11 48.046C138.878 48.046 139.556 48.19 140.144 48.478C140.744 48.766 141.206 49.168 141.53 49.684C141.866 50.188 142.034 50.776 142.034 51.448V58H140.09V56.236L140.504 56.29C140.276 56.686 139.982 57.028 139.622 57.316C139.274 57.604 138.872 57.826 138.416 57.982C137.972 58.138 137.474 58.216 136.922 58.216ZM144.413 58V48.262H146.357V50.17L146.123 49.918C146.363 49.306 146.747 48.844 147.275 48.532C147.803 48.208 148.415 48.046 149.111 48.046C149.831 48.046 150.467 48.202 151.019 48.514C151.571 48.826 152.003 49.258 152.315 49.81C152.627 50.362 152.783 50.998 152.783 51.718V58H150.767V52.258C150.767 51.766 150.677 51.352 150.497 51.016C150.317 50.668 150.059 50.404 149.723 50.224C149.399 50.032 149.027 49.936 148.607 49.936C148.187 49.936 147.809 50.032 147.473 50.224C147.149 50.404 146.897 50.668 146.717 51.016C146.537 51.364 146.447 51.778 146.447 52.258V58H144.413ZM159.585 58.216C158.613 58.216 157.749 57.994 156.993 57.55C156.249 57.094 155.655 56.482 155.211 55.714C154.779 54.946 154.563 54.076 154.563 53.104C154.563 52.144 154.779 51.28 155.211 50.512C155.643 49.744 156.237 49.144 156.993 48.712C157.749 48.268 158.613 48.046 159.585 48.046C160.245 48.046 160.863 48.166 161.439 48.406C162.015 48.634 162.513 48.952 162.933 49.36C163.365 49.768 163.683 50.242 163.887 50.782L162.105 51.61C161.901 51.106 161.571 50.704 161.115 50.404C160.671 50.092 160.161 49.936 159.585 49.936C159.033 49.936 158.535 50.074 158.091 50.35C157.659 50.614 157.317 50.992 157.065 51.484C156.813 51.964 156.687 52.51 156.687 53.122C156.687 53.734 156.813 54.286 157.065 54.778C157.317 55.258 157.659 55.636 158.091 55.912C158.535 56.188 159.033 56.326 159.585 56.326C160.173 56.326 160.683 56.176 161.115 55.876C161.559 55.564 161.889 55.15 162.105 54.634L163.887 55.48C163.695 55.996 163.383 56.464 162.951 56.884C162.531 57.292 162.033 57.616 161.457 57.856C160.881 58.096 160.257 58.216 159.585 58.216ZM170.448 58.216C169.476 58.216 168.612 57.994 167.856 57.55C167.112 57.094 166.53 56.482 166.11 55.714C165.69 54.934 165.48 54.064 165.48 53.104C165.48 52.12 165.69 51.25 166.11 50.494C166.542 49.738 167.118 49.144 167.838 48.712C168.558 48.268 169.374 48.046 170.286 48.046C171.018 48.046 171.672 48.172 172.248 48.424C172.824 48.676 173.31 49.024 173.706 49.468C174.102 49.9 174.402 50.398 174.605 50.962C174.822 51.526 174.93 52.126 174.93 52.762C174.93 52.918 174.924 53.08 174.912 53.248C174.9 53.416 174.876 53.572 174.84 53.716H167.082V52.096H173.688L172.716 52.834C172.836 52.246 172.794 51.724 172.59 51.268C172.398 50.8 172.098 50.434 171.69 50.17C171.294 49.894 170.826 49.756 170.286 49.756C169.746 49.756 169.266 49.894 168.846 50.17C168.426 50.434 168.102 50.818 167.874 51.322C167.646 51.814 167.556 52.414 167.604 53.122C167.544 53.782 167.634 54.358 167.874 54.85C168.126 55.342 168.474 55.726 168.918 56.002C169.374 56.278 169.89 56.416 170.466 56.416C171.054 56.416 171.552 56.284 171.96 56.02C172.38 55.756 172.71 55.414 172.95 54.994L174.605 55.804C174.414 56.26 174.114 56.674 173.706 57.046C173.31 57.406 172.83 57.694 172.266 57.91C171.714 58.114 171.108 58.216 170.448 58.216Z" fill="#2A3547"/>
<path d="M69.992 82.168C69.2547 82.168 68.578 82.0373 67.962 81.776C67.346 81.5053 66.8093 81.132 66.352 80.656C65.904 80.1707 65.554 79.6013 65.302 78.948C65.05 78.2947 64.924 77.576 64.924 76.792C64.924 76.008 65.05 75.2893 65.302 74.636C65.554 73.9827 65.904 73.4133 66.352 72.928C66.8093 72.4427 67.346 72.0693 67.962 71.808C68.578 71.5373 69.2547 71.402 69.992 71.402C70.7013 71.402 71.336 71.528 71.896 71.78C72.4653 72.032 72.9413 72.3587 73.324 72.76C73.716 73.152 73.996 73.5673 74.164 74.006L73.114 74.468C72.8527 73.8613 72.4513 73.376 71.91 73.012C71.378 72.6387 70.7387 72.452 69.992 72.452C69.2267 72.452 68.5453 72.634 67.948 72.998C67.3507 73.362 66.884 73.8707 66.548 74.524C66.212 75.168 66.044 75.924 66.044 76.792C66.044 77.6507 66.212 78.4067 66.548 79.06C66.884 79.7133 67.3507 80.222 67.948 80.586C68.5453 80.9407 69.2267 81.118 69.992 81.118C70.7387 81.118 71.378 80.936 71.91 80.572C72.4513 80.208 72.8527 79.7227 73.114 79.116L74.164 79.578C73.996 80.0073 73.716 80.4227 73.324 80.824C72.9413 81.216 72.4653 81.538 71.896 81.79C71.336 82.042 70.7013 82.168 69.992 82.168ZM78.3955 82.168C77.8728 82.168 77.3968 82.0467 76.9675 81.804C76.5382 81.552 76.1975 81.2067 75.9455 80.768C75.7028 80.32 75.5815 79.8067 75.5815 79.228V74.496H76.6315V79.102C76.6315 79.5033 76.7108 79.858 76.8695 80.166C77.0375 80.4647 77.2662 80.698 77.5555 80.866C77.8542 81.034 78.1948 81.118 78.5775 81.118C78.9602 81.118 79.3008 81.034 79.5995 80.866C79.8982 80.6887 80.1315 80.4413 80.2995 80.124C80.4675 79.7973 80.5515 79.41 80.5515 78.962V74.496H81.6015V82H80.5515V80.544L80.7895 80.6C80.6122 81.0853 80.3088 81.468 79.8795 81.748C79.4502 82.028 78.9555 82.168 78.3955 82.168ZM83.4809 82V74.496H84.5309V75.728L84.3909 75.546C84.5682 75.1913 84.8342 74.9113 85.1889 74.706C85.5529 74.5007 85.9916 74.398 86.5049 74.398H86.9809V75.448H86.3229C85.7816 75.448 85.3476 75.616 85.0209 75.952C84.6942 76.288 84.5309 76.764 84.5309 77.38V82H83.4809ZM87.9314 82V74.496H88.9814V75.728L88.8414 75.546C89.0187 75.1913 89.2847 74.9113 89.6394 74.706C90.0034 74.5007 90.442 74.398 90.9554 74.398H91.4314V75.448H90.7734C90.232 75.448 89.798 75.616 89.4714 75.952C89.1447 76.288 88.9814 76.764 88.9814 77.38V82H87.9314ZM95.7978 82.168C95.0978 82.168 94.4632 82 93.8938 81.664C93.3338 81.3187 92.8905 80.8473 92.5638 80.25C92.2372 79.6527 92.0738 78.976 92.0738 78.22C92.0738 77.464 92.2325 76.7967 92.5498 76.218C92.8672 75.63 93.2965 75.168 93.8378 74.832C94.3885 74.496 95.0045 74.328 95.6858 74.328C96.2272 74.328 96.7078 74.4307 97.1278 74.636C97.5572 74.832 97.9212 75.1027 98.2198 75.448C98.5185 75.784 98.7472 76.1667 98.9058 76.596C99.0645 77.016 99.1438 77.45 99.1438 77.898C99.1438 77.9913 99.1392 78.0987 99.1298 78.22C99.1205 78.332 99.1065 78.4487 99.0878 78.57H92.7458V77.59H98.4858L97.9818 78.01C98.0658 77.4967 98.0052 77.0393 97.7998 76.638C97.6038 76.2273 97.3192 75.9053 96.9458 75.672C96.5725 75.4293 96.1525 75.308 95.6858 75.308C95.2192 75.308 94.7852 75.4293 94.3838 75.672C93.9918 75.9147 93.6838 76.2553 93.4598 76.694C93.2358 77.1233 93.1472 77.6367 93.1938 78.234C93.1472 78.8313 93.2405 79.354 93.4738 79.802C93.7165 80.2407 94.0432 80.5813 94.4538 80.824C94.8738 81.0667 95.3218 81.188 95.7978 81.188C96.3485 81.188 96.8105 81.0573 97.1838 80.796C97.5572 80.5347 97.8605 80.208 98.0938 79.816L98.9898 80.292C98.8405 80.628 98.6118 80.9407 98.3038 81.23C97.9958 81.51 97.6272 81.7387 97.1978 81.916C96.7778 82.084 96.3112 82.168 95.7978 82.168ZM100.715 82V74.496H101.765V75.952L101.527 75.896C101.714 75.4107 102.017 75.028 102.437 74.748C102.866 74.468 103.361 74.328 103.921 74.328C104.453 74.328 104.929 74.4493 105.349 74.692C105.778 74.9347 106.114 75.2707 106.357 75.7C106.609 76.12 106.735 76.596 106.735 77.128V82H105.685V77.534C105.685 77.0767 105.601 76.6893 105.433 76.372C105.274 76.0547 105.046 75.812 104.747 75.644C104.458 75.4667 104.122 75.378 103.739 75.378C103.356 75.378 103.016 75.4667 102.717 75.644C102.418 75.812 102.185 76.0593 102.017 76.386C101.849 76.7033 101.765 77.086 101.765 77.534V82H100.715ZM111.33 82.084C110.658 82.084 110.14 81.888 109.776 81.496C109.412 81.104 109.23 80.544 109.23 79.816V75.546H107.844V74.496H108.194C108.512 74.496 108.764 74.3933 108.95 74.188C109.137 73.9733 109.23 73.7073 109.23 73.39V72.76H110.28V74.496H111.932V75.546H110.28V79.816C110.28 80.068 110.318 80.292 110.392 80.488C110.467 80.6747 110.593 80.824 110.77 80.936C110.957 81.048 111.204 81.104 111.512 81.104C111.587 81.104 111.676 81.0993 111.778 81.09C111.881 81.0807 111.97 81.0713 112.044 81.062V82C111.932 82.028 111.806 82.0467 111.667 82.056C111.526 82.0747 111.414 82.084 111.33 82.084ZM119.501 82.168C118.857 82.168 118.274 82.0233 117.751 81.734C117.238 81.4353 116.85 81.0153 116.589 80.474L116.757 80.32V82H115.707V71.402H116.757V76.176L116.589 75.882C116.888 75.406 117.284 75.028 117.779 74.748C118.283 74.468 118.857 74.328 119.501 74.328C120.21 74.328 120.84 74.5007 121.391 74.846C121.951 75.182 122.39 75.644 122.707 76.232C123.034 76.82 123.197 77.492 123.197 78.248C123.197 78.9947 123.034 79.6667 122.707 80.264C122.39 80.852 121.951 81.3187 121.391 81.664C120.84 82 120.21 82.168 119.501 82.168ZM119.445 81.118C119.949 81.118 120.397 80.992 120.789 80.74C121.19 80.488 121.503 80.1473 121.727 79.718C121.96 79.2793 122.077 78.7893 122.077 78.248C122.077 77.6973 121.96 77.2073 121.727 76.778C121.503 76.3487 121.19 76.008 120.789 75.756C120.397 75.504 119.949 75.378 119.445 75.378C118.941 75.378 118.484 75.504 118.073 75.756C117.672 76.008 117.35 76.3533 117.107 76.792C116.874 77.2213 116.757 77.7067 116.757 78.248C116.757 78.7893 116.874 79.2793 117.107 79.718C117.35 80.1473 117.672 80.488 118.073 80.74C118.484 80.992 118.941 81.118 119.445 81.118ZM126.935 82.168C126.459 82.168 126.034 82.0793 125.661 81.902C125.288 81.7153 124.994 81.4633 124.779 81.146C124.564 80.8287 124.457 80.4647 124.457 80.054C124.457 79.662 124.541 79.3073 124.709 78.99C124.877 78.6633 125.138 78.388 125.493 78.164C125.848 77.94 126.3 77.7813 126.851 77.688L129.791 77.198V78.15L127.103 78.598C126.562 78.6913 126.17 78.864 125.927 79.116C125.694 79.368 125.577 79.6667 125.577 80.012C125.577 80.348 125.708 80.6327 125.969 80.866C126.24 81.0993 126.585 81.216 127.005 81.216C127.518 81.216 127.966 81.1087 128.349 80.894C128.732 80.67 129.03 80.3713 129.245 79.998C129.46 79.6247 129.567 79.2093 129.567 78.752V76.848C129.567 76.4 129.404 76.036 129.077 75.756C128.75 75.476 128.326 75.336 127.803 75.336C127.346 75.336 126.944 75.4527 126.599 75.686C126.254 75.91 125.997 76.204 125.829 76.568L124.877 76.05C125.017 75.7327 125.236 75.4433 125.535 75.182C125.843 74.9207 126.193 74.7153 126.585 74.566C126.977 74.4073 127.383 74.328 127.803 74.328C128.354 74.328 128.839 74.4353 129.259 74.65C129.688 74.8647 130.02 75.1633 130.253 75.546C130.496 75.9193 130.617 76.3533 130.617 76.848V82H129.567V80.502L129.721 80.656C129.59 80.936 129.385 81.1927 129.105 81.426C128.834 81.65 128.512 81.832 128.139 81.972C127.775 82.1027 127.374 82.168 126.935 82.168ZM132.497 82V71.402H133.547V82H132.497ZM137.586 82.168C137.11 82.168 136.685 82.0793 136.312 81.902C135.939 81.7153 135.645 81.4633 135.43 81.146C135.215 80.8287 135.108 80.4647 135.108 80.054C135.108 79.662 135.192 79.3073 135.36 78.99C135.528 78.6633 135.789 78.388 136.144 78.164C136.499 77.94 136.951 77.7813 137.502 77.688L140.442 77.198V78.15L137.754 78.598C137.213 78.6913 136.821 78.864 136.578 79.116C136.345 79.368 136.228 79.6667 136.228 80.012C136.228 80.348 136.359 80.6327 136.62 80.866C136.891 81.0993 137.236 81.216 137.656 81.216C138.169 81.216 138.617 81.1087 139 80.894C139.383 80.67 139.681 80.3713 139.896 79.998C140.111 79.6247 140.218 79.2093 140.218 78.752V76.848C140.218 76.4 140.055 76.036 139.728 75.756C139.401 75.476 138.977 75.336 138.454 75.336C137.997 75.336 137.595 75.4527 137.25 75.686C136.905 75.91 136.648 76.204 136.48 76.568L135.528 76.05C135.668 75.7327 135.887 75.4433 136.186 75.182C136.494 74.9207 136.844 74.7153 137.236 74.566C137.628 74.4073 138.034 74.328 138.454 74.328C139.005 74.328 139.49 74.4353 139.91 74.65C140.339 74.8647 140.671 75.1633 140.904 75.546C141.147 75.9193 141.268 76.3533 141.268 76.848V82H140.218V80.502L140.372 80.656C140.241 80.936 140.036 81.1927 139.756 81.426C139.485 81.65 139.163 81.832 138.79 81.972C138.426 82.1027 138.025 82.168 137.586 82.168ZM143.148 82V74.496H144.198V75.952L143.96 75.896C144.146 75.4107 144.45 75.028 144.87 74.748C145.299 74.468 145.794 74.328 146.354 74.328C146.886 74.328 147.362 74.4493 147.782 74.692C148.211 74.9347 148.547 75.2707 148.79 75.7C149.042 76.12 149.168 76.596 149.168 77.128V82H148.118V77.534C148.118 77.0767 148.034 76.6893 147.866 76.372C147.707 76.0547 147.478 75.812 147.18 75.644C146.89 75.4667 146.554 75.378 146.172 75.378C145.789 75.378 145.448 75.4667 145.15 75.644C144.851 75.812 144.618 76.0593 144.45 76.386C144.282 76.7033 144.198 77.086 144.198 77.534V82H143.148ZM154.323 82.168C153.586 82.168 152.937 81.9953 152.377 81.65C151.817 81.3047 151.378 80.838 151.061 80.25C150.744 79.6527 150.585 78.9807 150.585 78.234C150.585 77.4873 150.744 76.82 151.061 76.232C151.378 75.644 151.817 75.182 152.377 74.846C152.937 74.5007 153.586 74.328 154.323 74.328C154.79 74.328 155.228 74.412 155.639 74.58C156.05 74.748 156.414 74.9767 156.731 75.266C157.048 75.546 157.286 75.8727 157.445 76.246L156.493 76.736C156.306 76.3347 156.022 76.008 155.639 75.756C155.256 75.504 154.818 75.378 154.323 75.378C153.828 75.378 153.38 75.504 152.979 75.756C152.587 75.9987 152.274 76.3393 152.041 76.778C151.817 77.2073 151.705 77.6973 151.705 78.248C151.705 78.7893 151.817 79.2793 152.041 79.718C152.274 80.1473 152.587 80.488 152.979 80.74C153.38 80.992 153.828 81.118 154.323 81.118C154.818 81.118 155.252 80.992 155.625 80.74C156.008 80.488 156.297 80.152 156.493 79.732L157.445 80.25C157.286 80.614 157.048 80.9407 156.731 81.23C156.414 81.5193 156.05 81.748 155.639 81.916C155.228 82.084 154.79 82.168 154.323 82.168ZM162.424 82.168C161.724 82.168 161.089 82 160.52 81.664C159.96 81.3187 159.516 80.8473 159.19 80.25C158.863 79.6527 158.7 78.976 158.7 78.22C158.7 77.464 158.858 76.7967 159.176 76.218C159.493 75.63 159.922 75.168 160.464 74.832C161.014 74.496 161.63 74.328 162.312 74.328C162.853 74.328 163.334 74.4307 163.754 74.636C164.183 74.832 164.547 75.1027 164.846 75.448C165.144 75.784 165.373 76.1667 165.532 76.596C165.69 77.016 165.77 77.45 165.77 77.898C165.77 77.9913 165.765 78.0987 165.756 78.22C165.746 78.332 165.732 78.4487 165.714 78.57H159.372V77.59H165.112L164.608 78.01C164.692 77.4967 164.631 77.0393 164.426 76.638C164.23 76.2273 163.945 75.9053 163.572 75.672C163.198 75.4293 162.778 75.308 162.312 75.308C161.845 75.308 161.411 75.4293 161.01 75.672C160.618 75.9147 160.31 76.2553 160.086 76.694C159.862 77.1233 159.773 77.6367 159.82 78.234C159.773 78.8313 159.866 79.354 160.1 79.802C160.342 80.2407 160.669 80.5813 161.08 80.824C161.5 81.0667 161.948 81.188 162.424 81.188C162.974 81.188 163.436 81.0573 163.81 80.796C164.183 80.5347 164.486 80.208 164.72 79.816L165.616 80.292C165.466 80.628 165.238 80.9407 164.93 81.23C164.622 81.51 164.253 81.7387 163.824 81.916C163.404 82.084 162.937 82.168 162.424 82.168ZM173.234 82.168C172.59 82.168 172.006 82.0233 171.484 81.734C170.97 81.4353 170.583 81.0153 170.322 80.474L170.49 80.32V82H169.44V71.402H170.49V76.176L170.322 75.882C170.62 75.406 171.017 75.028 171.512 74.748C172.016 74.468 172.59 74.328 173.234 74.328C173.943 74.328 174.573 74.5007 175.124 74.846C175.684 75.182 176.122 75.644 176.44 76.232C176.766 76.82 176.93 77.492 176.93 78.248C176.93 78.9947 176.766 79.6667 176.44 80.264C176.122 80.852 175.684 81.3187 175.124 81.664C174.573 82 173.943 82.168 173.234 82.168ZM173.178 81.118C173.682 81.118 174.13 80.992 174.522 80.74C174.923 80.488 175.236 80.1473 175.46 79.718C175.693 79.2793 175.81 78.7893 175.81 78.248C175.81 77.6973 175.693 77.2073 175.46 76.778C175.236 76.3487 174.923 76.008 174.522 75.756C174.13 75.504 173.682 75.378 173.178 75.378C172.674 75.378 172.216 75.504 171.806 75.756C171.404 76.008 171.082 76.3533 170.84 76.792C170.606 77.2213 170.49 77.7067 170.49 78.248C170.49 78.7893 170.606 79.2793 170.84 79.718C171.082 80.1473 171.404 80.488 171.806 80.74C172.216 80.992 172.674 81.118 173.178 81.118ZM178.498 82V74.496H179.548V75.728L179.408 75.546C179.585 75.1913 179.851 74.9113 180.206 74.706C180.57 74.5007 181.008 74.398 181.522 74.398H181.998V75.448H181.34C180.798 75.448 180.364 75.616 180.038 75.952C179.711 76.288 179.548 76.764 179.548 77.38V82H178.498ZM186.364 82.168C185.664 82.168 185.029 82 184.46 81.664C183.9 81.3187 183.457 80.8473 183.13 80.25C182.803 79.6527 182.64 78.976 182.64 78.22C182.64 77.464 182.799 76.7967 183.116 76.218C183.433 75.63 183.863 75.168 184.404 74.832C184.955 74.496 185.571 74.328 186.252 74.328C186.793 74.328 187.274 74.4307 187.694 74.636C188.123 74.832 188.487 75.1027 188.786 75.448C189.085 75.784 189.313 76.1667 189.472 76.596C189.631 77.016 189.71 77.45 189.71 77.898C189.71 77.9913 189.705 78.0987 189.696 78.22C189.687 78.332 189.673 78.4487 189.654 78.57H183.312V77.59H189.052L188.548 78.01C188.632 77.4967 188.571 77.0393 188.366 76.638C188.17 76.2273 187.885 75.9053 187.512 75.672C187.139 75.4293 186.719 75.308 186.252 75.308C185.785 75.308 185.351 75.4293 184.95 75.672C184.558 75.9147 184.25 76.2553 184.026 76.694C183.802 77.1233 183.713 77.6367 183.76 78.234C183.713 78.8313 183.807 79.354 184.04 79.802C184.283 80.2407 184.609 80.5813 185.02 80.824C185.44 81.0667 185.888 81.188 186.364 81.188C186.915 81.188 187.377 81.0573 187.75 80.796C188.123 80.5347 188.427 80.208 188.66 79.816L189.556 80.292C189.407 80.628 189.178 80.9407 188.87 81.23C188.562 81.51 188.193 81.7387 187.764 81.916C187.344 82.084 186.877 82.168 186.364 82.168ZM193.315 82.168C192.839 82.168 192.414 82.0793 192.041 81.902C191.667 81.7153 191.373 81.4633 191.159 81.146C190.944 80.8287 190.837 80.4647 190.837 80.054C190.837 79.662 190.921 79.3073 191.089 78.99C191.257 78.6633 191.518 78.388 191.873 78.164C192.227 77.94 192.68 77.7813 193.231 77.688L196.171 77.198V78.15L193.483 78.598C192.941 78.6913 192.549 78.864 192.307 79.116C192.073 79.368 191.957 79.6667 191.957 80.012C191.957 80.348 192.087 80.6327 192.349 80.866C192.619 81.0993 192.965 81.216 193.385 81.216C193.898 81.216 194.346 81.1087 194.729 80.894C195.111 80.67 195.41 80.3713 195.625 79.998C195.839 79.6247 195.947 79.2093 195.947 78.752V76.848C195.947 76.4 195.783 76.036 195.457 75.756C195.13 75.476 194.705 75.336 194.183 75.336C193.725 75.336 193.324 75.4527 192.979 75.686C192.633 75.91 192.377 76.204 192.209 76.568L191.257 76.05C191.397 75.7327 191.616 75.4433 191.915 75.182C192.223 74.9207 192.573 74.7153 192.965 74.566C193.357 74.4073 193.763 74.328 194.183 74.328C194.733 74.328 195.219 74.4353 195.639 74.65C196.068 74.8647 196.399 75.1633 196.633 75.546C196.875 75.9193 196.997 76.3533 196.997 76.848V82H195.947V80.502L196.101 80.656C195.97 80.936 195.765 81.1927 195.485 81.426C195.214 81.65 194.892 81.832 194.519 81.972C194.155 82.1027 193.753 82.168 193.315 82.168ZM198.876 82V71.402H199.926V78.822L199.478 78.752L203.692 74.496H205.05L202.11 77.506L205.316 82H204.056L201.046 77.842L201.718 77.898L199.576 80.11L199.926 79.242V82H198.876ZM209.518 82.168C208.818 82.168 208.188 82 207.628 81.664C207.068 81.3187 206.624 80.852 206.298 80.264C205.98 79.6667 205.822 78.9947 205.822 78.248C205.822 77.492 205.98 76.82 206.298 76.232C206.624 75.644 207.063 75.182 207.614 74.846C208.174 74.5007 208.808 74.328 209.518 74.328C210.162 74.328 210.736 74.468 211.24 74.748C211.744 75.028 212.14 75.406 212.43 75.882L212.262 76.176V71.402H213.312V82H212.262V80.32L212.43 80.474C212.168 81.0153 211.776 81.4353 211.254 81.734C210.74 82.0233 210.162 82.168 209.518 82.168ZM209.574 81.118C210.078 81.118 210.53 80.992 210.932 80.74C211.342 80.488 211.664 80.1473 211.898 79.718C212.14 79.2793 212.262 78.7893 212.262 78.248C212.262 77.7067 212.14 77.2213 211.898 76.792C211.664 76.3533 211.342 76.008 210.932 75.756C210.53 75.504 210.078 75.378 209.574 75.378C209.079 75.378 208.631 75.504 208.23 75.756C207.828 76.008 207.511 76.3487 207.278 76.778C207.054 77.2073 206.942 77.6973 206.942 78.248C206.942 78.7893 207.054 79.2793 207.278 79.718C207.511 80.1473 207.824 80.488 208.216 80.74C208.617 80.992 209.07 81.118 209.574 81.118ZM218.702 82.168C217.992 82.168 217.348 82 216.77 81.664C216.191 81.3187 215.729 80.852 215.384 80.264C215.048 79.6667 214.88 78.99 214.88 78.234C214.88 77.4873 215.048 76.82 215.384 76.232C215.72 75.644 216.172 75.182 216.742 74.846C217.32 74.5007 217.974 74.328 218.702 74.328C219.43 74.328 220.078 74.496 220.648 74.832C221.226 75.168 221.679 75.63 222.006 76.218C222.342 76.806 222.51 77.478 222.51 78.234C222.51 78.9993 222.337 79.6807 221.992 80.278C221.646 80.866 221.184 81.328 220.606 81.664C220.036 82 219.402 82.168 218.702 82.168ZM218.702 81.118C219.206 81.118 219.658 80.992 220.06 80.74C220.47 80.488 220.792 80.1427 221.026 79.704C221.268 79.2653 221.39 78.7753 221.39 78.234C221.39 77.6927 221.268 77.2073 221.026 76.778C220.792 76.3487 220.47 76.008 220.06 75.756C219.658 75.504 219.206 75.378 218.702 75.378C218.198 75.378 217.74 75.504 217.33 75.756C216.928 76.008 216.606 76.3487 216.364 76.778C216.121 77.2073 216 77.6927 216 78.234C216 78.7753 216.121 79.2653 216.364 79.704C216.606 80.1427 216.928 80.488 217.33 80.74C217.74 80.992 218.198 81.118 218.702 81.118ZM225.597 82L223.021 74.496H224.211L226.339 81.062H225.919L227.921 74.496H228.971L230.973 81.062H230.553L232.695 74.496H233.871L231.295 82H230.245L228.299 75.574H228.593L226.647 82H225.597ZM234.821 82V74.496H235.871V75.952L235.633 75.896C235.82 75.4107 236.123 75.028 236.543 74.748C236.972 74.468 237.467 74.328 238.027 74.328C238.559 74.328 239.035 74.4493 239.455 74.692C239.884 74.9347 240.22 75.2707 240.463 75.7C240.715 76.12 240.841 76.596 240.841 77.128V82H239.791V77.534C239.791 77.0767 239.707 76.6893 239.539 76.372C239.38 76.0547 239.152 75.812 238.853 75.644C238.564 75.4667 238.228 75.378 237.845 75.378C237.462 75.378 237.122 75.4667 236.823 75.644C236.524 75.812 236.291 76.0593 236.123 76.386C235.955 76.7033 235.871 77.086 235.871 77.534V82H234.821Z" fill="#7C8FAC"/>
<mask id="path-5-outside-1_2216_57447" maskUnits="userSpaceOnUse" x="62.8125" y="198.214" width="52" height="89" fill="black">
<rect fill="white" x="62.8125" y="198.214" width="52" height="89"/>
<path d="M97.4322 283.704C96.2648 284.852 94.389 284.855 93.2551 283.674C83.025 273.017 75.2502 260.302 70.4772 246.394C65.7106 232.505 64.0583 217.778 65.6185 203.223C65.7946 201.581 67.3046 200.435 68.9418 200.652L88.6065 203.267C90.254 203.486 91.4032 205.003 91.2431 206.657C90.2109 217.322 91.4746 228.094 94.9656 238.266C98.455 248.434 104.084 257.752 111.472 265.618C112.62 266.84 112.624 268.763 111.429 269.939L97.4322 283.704Z"/>
</mask>
<path d="M97.4322 283.704C96.2648 284.852 94.389 284.855 93.2551 283.674C83.025 273.017 75.2502 260.302 70.4772 246.394C65.7106 232.505 64.0583 217.778 65.6185 203.223C65.7946 201.581 67.3046 200.435 68.9418 200.652L88.6065 203.267C90.254 203.486 91.4032 205.003 91.2431 206.657C90.2109 217.322 91.4746 228.094 94.9656 238.266C98.455 248.434 104.084 257.752 111.472 265.618C112.62 266.84 112.624 268.763 111.429 269.939L97.4322 283.704Z" fill="#FFAA50"/>
<path d="M97.4322 283.704C96.2648 284.852 94.389 284.855 93.2551 283.674C83.025 273.017 75.2502 260.302 70.4772 246.394C65.7106 232.505 64.0583 217.778 65.6185 203.223C65.7946 201.581 67.3046 200.435 68.9418 200.652L88.6065 203.267C90.254 203.486 91.4032 205.003 91.2431 206.657C90.2109 217.322 91.4746 228.094 94.9656 238.266C98.455 248.434 104.084 257.752 111.472 265.618C112.62 266.84 112.624 268.763 111.429 269.939L97.4322 283.704Z" stroke="white" stroke-width="4" mask="url(#path-5-outside-1_2216_57447)"/>
<mask id="path-6-outside-2_2216_57447" maskUnits="userSpaceOnUse" x="64.8125" y="132.215" width="57" height="72" fill="black">
<rect fill="white" x="64.8125" y="132.215" width="57" height="72"/>
<path d="M69.3518 198.134C67.7093 197.873 66.5883 196.324 66.9072 194.692C71.4634 171.379 84.1764 150.363 102.838 135.299C104.112 134.27 105.974 134.51 106.987 135.798L119.093 151.183C120.129 152.5 119.881 154.407 118.589 155.473C105.133 166.577 95.9084 181.849 92.43 198.782C92.0979 200.399 90.5706 201.507 88.9404 201.248L69.3518 198.134Z"/>
</mask>
<path d="M69.3518 198.134C67.7093 197.873 66.5883 196.324 66.9072 194.692C71.4634 171.379 84.1764 150.363 102.838 135.299C104.112 134.27 105.974 134.51 106.987 135.798L119.093 151.183C120.129 152.5 119.881 154.407 118.589 155.473C105.133 166.577 95.9084 181.849 92.43 198.782C92.0979 200.399 90.5706 201.507 88.9404 201.248L69.3518 198.134Z" fill="#543F7F"/>
<path d="M69.3518 198.134C67.7093 197.873 66.5883 196.324 66.9072 194.692C71.4634 171.379 84.1764 150.363 102.838 135.299C104.112 134.27 105.974 134.51 106.987 135.798L119.093 151.183C120.129 152.5 119.881 154.407 118.589 155.473C105.133 166.577 95.9084 181.849 92.43 198.782C92.0979 200.399 90.5706 201.507 88.9404 201.248L69.3518 198.134Z" stroke="white" stroke-width="4" mask="url(#path-6-outside-2_2216_57447)"/>
<mask id="path-7-outside-3_2216_57447" maskUnits="userSpaceOnUse" x="105.812" y="110.214" width="63" height="44" fill="black">
<rect fill="white" x="105.812" y="110.214" width="63" height="44"/>
<path d="M109.065 134.377C108.062 133.035 108.352 131.127 109.739 130.187C125.54 119.47 144.065 113.29 163.237 112.342C164.891 112.26 166.262 113.578 166.298 115.234L166.717 134.647C166.753 136.304 165.438 137.67 163.783 137.768C149.895 138.588 136.486 143.069 124.964 150.739C123.601 151.647 121.752 151.369 120.772 150.056L109.065 134.377Z"/>
</mask>
<path d="M109.065 134.377C108.062 133.035 108.352 131.127 109.739 130.187C125.54 119.47 144.065 113.29 163.237 112.342C164.891 112.26 166.262 113.578 166.298 115.234L166.717 134.647C166.753 136.304 165.438 137.67 163.783 137.768C149.895 138.588 136.486 143.069 124.964 150.739C123.601 151.647 121.752 151.369 120.772 150.056L109.065 134.377Z" fill="#F9A6A7"/>
<path d="M109.065 134.377C108.062 133.035 108.352 131.127 109.739 130.187C125.54 119.47 144.065 113.29 163.237 112.342C164.891 112.26 166.262 113.578 166.298 115.234L166.717 134.647C166.753 136.304 165.438 137.67 163.783 137.768C149.895 138.588 136.486 143.069 124.964 150.739C123.601 151.647 121.752 151.369 120.772 150.056L109.065 134.377Z" stroke="white" stroke-width="4" mask="url(#path-7-outside-3_2216_57447)"/>
<mask id="path-8-outside-4_2216_57447" maskUnits="userSpaceOnUse" x="165.812" y="110.214" width="108" height="168" fill="black">
<rect fill="white" x="165.812" y="110.214" width="108" height="168"/>
<path d="M168.431 115.214C168.431 113.557 169.774 112.209 171.431 112.257C189.807 112.781 207.729 118.117 223.337 127.738C239.793 137.881 253.01 152.378 261.475 169.568C269.941 186.758 273.311 205.945 271.2 224.931C269.198 242.945 262.338 260.086 251.357 274.593C250.368 275.899 248.504 276.114 247.211 275.109L231.671 263.032C230.348 262.004 230.129 260.094 231.126 258.746C239.07 248.01 244.037 235.403 245.508 222.169C247.091 207.929 244.563 193.539 238.214 180.647C231.865 167.754 221.952 156.882 209.61 149.274C198.117 142.189 184.95 138.203 171.43 137.688C169.774 137.625 168.431 136.288 168.431 134.631L168.431 115.214Z"/>
</mask>
<path d="M168.431 115.214C168.431 113.557 169.774 112.209 171.431 112.257C189.807 112.781 207.729 118.117 223.337 127.738C239.793 137.881 253.01 152.378 261.475 169.568C269.941 186.758 273.311 205.945 271.2 224.931C269.198 242.945 262.338 260.086 251.357 274.593C250.368 275.899 248.504 276.114 247.211 275.109L231.671 263.032C230.348 262.004 230.129 260.094 231.126 258.746C239.07 248.01 244.037 235.403 245.508 222.169C247.091 207.929 244.563 193.539 238.214 180.647C231.865 167.754 221.952 156.882 209.61 149.274C198.117 142.189 184.95 138.203 171.43 137.688C169.774 137.625 168.431 136.288 168.431 134.631L168.431 115.214Z" fill="#9C80FF"/>
<path d="M168.431 115.214C168.431 113.557 169.774 112.209 171.431 112.257C189.807 112.781 207.729 118.117 223.337 127.738C239.793 137.881 253.01 152.378 261.475 169.568C269.941 186.758 273.311 205.945 271.2 224.931C269.198 242.945 262.338 260.086 251.357 274.593C250.368 275.899 248.504 276.114 247.211 275.109L231.671 263.032C230.348 262.004 230.129 260.094 231.126 258.746C239.07 248.01 244.037 235.403 245.508 222.169C247.091 207.929 244.563 193.539 238.214 180.647C231.865 167.754 221.952 156.882 209.61 149.274C198.117 142.189 184.95 138.203 171.43 137.688C169.774 137.625 168.431 136.288 168.431 134.631L168.431 115.214Z" stroke="white" stroke-width="4" mask="url(#path-8-outside-4_2216_57447)"/>
<mask id="path-9-outside-5_2216_57447" maskUnits="userSpaceOnUse" x="96.0856" y="261.976" width="153.811" height="55.9941" fill="black">
<rect fill="white" x="96.0856" y="261.976" width="153.811" height="55.9941"/>
<path d="M246.165 277.247C247.466 278.308 247.672 280.216 246.582 281.46C238.009 291.244 227.593 299.288 215.893 305.146C203.293 311.454 189.475 315.092 175.309 315.83C161.142 316.569 146.933 314.391 133.573 309.436C121.167 304.834 109.742 297.928 99.9141 289.103C98.6652 287.981 98.6146 286.065 99.7649 284.875L113.313 270.869C114.449 269.694 116.331 269.673 117.575 270.77C124.825 277.164 133.206 282.179 142.288 285.547C152.308 289.264 162.965 290.897 173.59 290.343C184.215 289.789 194.578 287.061 204.028 282.33C212.593 278.042 220.24 272.192 226.58 265.091C227.669 263.871 229.54 263.695 230.826 264.743L246.165 277.247Z"/>
</mask>
<path d="M246.165 277.247C247.466 278.308 247.672 280.216 246.582 281.46C238.009 291.244 227.593 299.288 215.893 305.146C203.293 311.454 189.475 315.092 175.309 315.83C161.142 316.569 146.933 314.391 133.573 309.436C121.167 304.834 109.742 297.928 99.9141 289.103C98.6652 287.981 98.6146 286.065 99.7649 284.875L113.313 270.869C114.449 269.694 116.331 269.673 117.575 270.77C124.825 277.164 133.206 282.179 142.288 285.547C152.308 289.264 162.965 290.897 173.59 290.343C184.215 289.789 194.578 287.061 204.028 282.33C212.593 278.042 220.24 272.192 226.58 265.091C227.669 263.871 229.54 263.695 230.826 264.743L246.165 277.247Z" fill="#1DCD9B"/>
<path d="M246.165 277.247C247.466 278.308 247.672 280.216 246.582 281.46C238.009 291.244 227.593 299.288 215.893 305.146C203.293 311.454 189.475 315.092 175.309 315.83C161.142 316.569 146.933 314.391 133.573 309.436C121.167 304.834 109.742 297.928 99.9141 289.103C98.6652 287.981 98.6146 286.065 99.7649 284.875L113.313 270.869C114.449 269.694 116.331 269.673 117.575 270.77C124.825 277.164 133.206 282.179 142.288 285.547C152.308 289.264 162.965 290.897 173.59 290.343C184.215 289.789 194.578 287.061 204.028 282.33C212.593 278.042 220.24 272.192 226.58 265.091C227.669 263.871 229.54 263.695 230.826 264.743L246.165 277.247Z" stroke="white" stroke-width="4" mask="url(#path-9-outside-5_2216_57447)"/>
<path d="M128.309 212.252C127.329 212.252 126.419 212.07 125.579 211.706C124.739 211.328 124.025 210.817 123.437 210.173C122.849 209.529 122.415 208.787 122.135 207.947L124.235 207.065C124.613 208.031 125.166 208.773 125.894 209.291C126.622 209.809 127.462 210.068 128.414 210.068C128.974 210.068 129.464 209.984 129.884 209.816C130.304 209.634 130.626 209.382 130.85 209.06C131.088 208.738 131.207 208.367 131.207 207.947C131.207 207.373 131.046 206.918 130.724 206.582C130.402 206.246 129.926 205.98 129.296 205.784L126.356 204.86C125.18 204.496 124.284 203.943 123.668 203.201C123.052 202.445 122.744 201.563 122.744 200.555C122.744 199.673 122.961 198.903 123.395 198.245C123.829 197.573 124.424 197.048 125.18 196.67C125.95 196.292 126.825 196.103 127.805 196.103C128.743 196.103 129.597 196.271 130.367 196.607C131.137 196.929 131.795 197.377 132.341 197.951C132.901 198.525 133.307 199.19 133.559 199.946L131.501 200.849C131.193 200.023 130.71 199.386 130.052 198.938C129.408 198.49 128.659 198.266 127.805 198.266C127.287 198.266 126.832 198.357 126.44 198.539C126.048 198.707 125.74 198.959 125.516 199.295C125.306 199.617 125.201 199.995 125.201 200.429C125.201 200.933 125.362 201.381 125.684 201.773C126.006 202.165 126.496 202.459 127.154 202.655L129.884 203.516C131.13 203.894 132.068 204.44 132.698 205.154C133.328 205.854 133.643 206.729 133.643 207.779C133.643 208.647 133.412 209.417 132.95 210.089C132.502 210.761 131.879 211.293 131.081 211.685C130.283 212.063 129.359 212.252 128.309 212.252ZM127.343 214.1V194.255H129.023V214.1H127.343ZM138.504 212V198.455H135.501V196.355H140.961V212H138.504ZM150.57 212.252C149.324 212.252 148.232 211.916 147.294 211.244C146.356 210.558 145.621 209.613 145.089 208.409C144.571 207.191 144.312 205.777 144.312 204.167C144.312 202.543 144.571 201.129 145.089 199.925C145.621 198.721 146.349 197.783 147.273 197.111C148.211 196.439 149.303 196.103 150.549 196.103C151.795 196.103 152.88 196.439 153.804 197.111C154.742 197.783 155.47 198.728 155.988 199.946C156.52 201.15 156.786 202.557 156.786 204.167C156.786 205.777 156.527 207.191 156.009 208.409C155.491 209.613 154.763 210.558 153.825 211.244C152.901 211.916 151.816 212.252 150.57 212.252ZM150.57 209.984C151.34 209.984 152.005 209.746 152.565 209.27C153.125 208.794 153.559 208.122 153.867 207.254C154.175 206.386 154.329 205.357 154.329 204.167C154.329 202.977 154.175 201.948 153.867 201.08C153.559 200.212 153.125 199.54 152.565 199.064C152.005 198.588 151.333 198.35 150.549 198.35C149.779 198.35 149.114 198.588 148.554 199.064C147.994 199.54 147.56 200.212 147.252 201.08C146.944 201.948 146.79 202.977 146.79 204.167C146.79 205.343 146.944 206.372 147.252 207.254C147.56 208.122 147.994 208.794 148.554 209.27C149.128 209.746 149.8 209.984 150.57 209.984ZM165.602 212.252C164.356 212.252 163.264 211.916 162.326 211.244C161.388 210.558 160.653 209.613 160.121 208.409C159.603 207.191 159.344 205.777 159.344 204.167C159.344 202.543 159.603 201.129 160.121 199.925C160.653 198.721 161.381 197.783 162.305 197.111C163.243 196.439 164.335 196.103 165.581 196.103C166.827 196.103 167.912 196.439 168.836 197.111C169.774 197.783 170.502 198.728 171.02 199.946C171.552 201.15 171.818 202.557 171.818 204.167C171.818 205.777 171.559 207.191 171.041 208.409C170.523 209.613 169.795 210.558 168.857 211.244C167.933 211.916 166.848 212.252 165.602 212.252ZM165.602 209.984C166.372 209.984 167.037 209.746 167.597 209.27C168.157 208.794 168.591 208.122 168.899 207.254C169.207 206.386 169.361 205.357 169.361 204.167C169.361 202.977 169.207 201.948 168.899 201.08C168.591 200.212 168.157 199.54 167.597 199.064C167.037 198.588 166.365 198.35 165.581 198.35C164.811 198.35 164.146 198.588 163.586 199.064C163.026 199.54 162.592 200.212 162.284 201.08C161.976 201.948 161.822 202.977 161.822 204.167C161.822 205.343 161.976 206.372 162.284 207.254C162.592 208.122 163.026 208.794 163.586 209.27C164.16 209.746 164.832 209.984 165.602 209.984ZM183.046 212.252C182.22 212.252 181.443 212.105 180.715 211.811C179.987 211.503 179.357 211.076 178.825 210.53C178.293 209.984 177.915 209.326 177.691 208.556L179.77 207.758C180.036 208.5 180.47 209.067 181.072 209.459C181.674 209.851 182.332 210.047 183.046 210.047C183.634 210.047 184.152 209.914 184.6 209.648C185.048 209.382 185.398 209.018 185.65 208.556C185.916 208.094 186.049 207.569 186.049 206.981C186.049 206.379 185.916 205.854 185.65 205.406C185.398 204.944 185.048 204.587 184.6 204.335C184.152 204.069 183.634 203.936 183.046 203.936C182.458 203.936 181.919 204.069 181.429 204.335C180.939 204.601 180.582 204.958 180.358 205.406L178.363 204.965L179.581 196.355H187.918V198.455H180.547L181.492 197.426L180.589 204.02L179.812 203.495C180.232 202.907 180.743 202.48 181.345 202.214C181.947 201.948 182.633 201.815 183.403 201.815C184.425 201.815 185.314 202.046 186.07 202.508C186.84 202.956 187.435 203.572 187.855 204.356C188.289 205.126 188.506 206.001 188.506 206.981C188.506 207.975 188.268 208.871 187.792 209.669C187.316 210.467 186.665 211.097 185.839 211.559C185.027 212.021 184.096 212.252 183.046 212.252ZM195.966 212.252C195.14 212.252 194.363 212.105 193.635 211.811C192.907 211.503 192.277 211.076 191.745 210.53C191.213 209.984 190.835 209.326 190.611 208.556L192.69 207.758C192.956 208.5 193.39 209.067 193.992 209.459C194.594 209.851 195.252 210.047 195.966 210.047C196.554 210.047 197.072 209.914 197.52 209.648C197.968 209.382 198.318 209.018 198.57 208.556C198.836 208.094 198.969 207.569 198.969 206.981C198.969 206.379 198.836 205.854 198.57 205.406C198.318 204.944 197.968 204.587 197.52 204.335C197.072 204.069 196.554 203.936 195.966 203.936C195.378 203.936 194.839 204.069 194.349 204.335C193.859 204.601 193.502 204.958 193.278 205.406L191.283 204.965L192.501 196.355H200.838V198.455H193.467L194.412 197.426L193.509 204.02L192.732 203.495C193.152 202.907 193.663 202.48 194.265 202.214C194.867 201.948 195.553 201.815 196.323 201.815C197.345 201.815 198.234 202.046 198.99 202.508C199.76 202.956 200.355 203.572 200.775 204.356C201.209 205.126 201.426 206.001 201.426 206.981C201.426 207.975 201.188 208.871 200.712 209.669C200.236 210.467 199.585 211.097 198.759 211.559C197.947 212.021 197.016 212.252 195.966 212.252ZM208.927 212.252C207.905 212.252 206.995 212.028 206.197 211.58C205.399 211.132 204.769 210.516 204.307 209.732C203.859 208.948 203.635 208.059 203.635 207.065C203.635 206.547 203.691 206.029 203.803 205.511C203.915 204.993 204.111 204.454 204.391 203.894C204.685 203.334 205.077 202.732 205.567 202.088L209.935 196.355H212.896L207.541 203.285L207.121 203.012C207.317 202.788 207.527 202.613 207.751 202.487C207.989 202.361 208.234 202.27 208.486 202.214C208.752 202.158 209.032 202.13 209.326 202.13C210.264 202.13 211.104 202.347 211.846 202.781C212.588 203.215 213.169 203.803 213.589 204.545C214.023 205.287 214.24 206.141 214.24 207.107C214.24 208.087 214.009 208.969 213.547 209.753C213.085 210.523 212.455 211.132 211.657 211.58C210.873 212.028 209.963 212.252 208.927 212.252ZM208.927 210.047C209.473 210.047 209.956 209.921 210.376 209.669C210.796 209.417 211.132 209.074 211.384 208.64C211.636 208.192 211.762 207.688 211.762 207.128C211.762 206.554 211.636 206.05 211.384 205.616C211.146 205.182 210.81 204.846 210.376 204.608C209.956 204.356 209.473 204.23 208.927 204.23C208.395 204.23 207.912 204.356 207.478 204.608C207.058 204.846 206.722 205.182 206.47 205.616C206.218 206.05 206.092 206.554 206.092 207.128C206.092 207.688 206.218 208.192 206.47 208.64C206.722 209.074 207.058 209.417 207.478 209.669C207.912 209.921 208.395 210.047 208.927 210.047Z" fill="#2A3547"/>
<path d="M156.249 233V223.62H153.365V222.57H160.225V223.62H157.369V233H156.249ZM163.703 233.168C162.993 233.168 162.349 233 161.771 232.664C161.192 232.319 160.73 231.852 160.385 231.264C160.049 230.667 159.881 229.99 159.881 229.234C159.881 228.487 160.049 227.82 160.385 227.232C160.721 226.644 161.173 226.182 161.743 225.846C162.321 225.501 162.975 225.328 163.703 225.328C164.431 225.328 165.079 225.496 165.649 225.832C166.227 226.168 166.68 226.63 167.007 227.218C167.343 227.806 167.511 228.478 167.511 229.234C167.511 229.999 167.338 230.681 166.993 231.278C166.647 231.866 166.185 232.328 165.607 232.664C165.037 233 164.403 233.168 163.703 233.168ZM163.703 232.118C164.207 232.118 164.659 231.992 165.061 231.74C165.471 231.488 165.793 231.143 166.027 230.704C166.269 230.265 166.391 229.775 166.391 229.234C166.391 228.693 166.269 228.207 166.027 227.778C165.793 227.349 165.471 227.008 165.061 226.756C164.659 226.504 164.207 226.378 163.703 226.378C163.199 226.378 162.741 226.504 162.331 226.756C161.929 227.008 161.607 227.349 161.365 227.778C161.122 228.207 161.001 228.693 161.001 229.234C161.001 229.775 161.122 230.265 161.365 230.704C161.607 231.143 161.929 231.488 162.331 231.74C162.741 231.992 163.199 232.118 163.703 232.118ZM171.816 233.084C171.144 233.084 170.626 232.888 170.262 232.496C169.898 232.104 169.716 231.544 169.716 230.816V226.546H168.33V225.496H168.68C168.997 225.496 169.249 225.393 169.436 225.188C169.622 224.973 169.716 224.707 169.716 224.39V223.76H170.766V225.496H172.418V226.546H170.766V230.816C170.766 231.068 170.803 231.292 170.878 231.488C170.952 231.675 171.078 231.824 171.256 231.936C171.442 232.048 171.69 232.104 171.998 232.104C172.072 232.104 172.161 232.099 172.264 232.09C172.366 232.081 172.455 232.071 172.53 232.062V233C172.418 233.028 172.292 233.047 172.152 233.056C172.012 233.075 171.9 233.084 171.816 233.084ZM176.127 233.168C175.651 233.168 175.226 233.079 174.853 232.902C174.479 232.715 174.185 232.463 173.971 232.146C173.756 231.829 173.649 231.465 173.649 231.054C173.649 230.662 173.733 230.307 173.901 229.99C174.069 229.663 174.33 229.388 174.685 229.164C175.039 228.94 175.492 228.781 176.043 228.688L178.983 228.198V229.15L176.295 229.598C175.753 229.691 175.361 229.864 175.119 230.116C174.885 230.368 174.769 230.667 174.769 231.012C174.769 231.348 174.899 231.633 175.161 231.866C175.431 232.099 175.777 232.216 176.197 232.216C176.71 232.216 177.158 232.109 177.541 231.894C177.923 231.67 178.222 231.371 178.437 230.998C178.651 230.625 178.759 230.209 178.759 229.752V227.848C178.759 227.4 178.595 227.036 178.269 226.756C177.942 226.476 177.517 226.336 176.995 226.336C176.537 226.336 176.136 226.453 175.791 226.686C175.445 226.91 175.189 227.204 175.021 227.568L174.069 227.05C174.209 226.733 174.428 226.443 174.727 226.182C175.035 225.921 175.385 225.715 175.777 225.566C176.169 225.407 176.575 225.328 176.995 225.328C177.545 225.328 178.031 225.435 178.451 225.65C178.88 225.865 179.211 226.163 179.445 226.546C179.687 226.919 179.809 227.353 179.809 227.848V233H178.759V231.502L178.913 231.656C178.782 231.936 178.577 232.193 178.297 232.426C178.026 232.65 177.704 232.832 177.331 232.972C176.967 233.103 176.565 233.168 176.127 233.168ZM181.688 233V222.402H182.738V233H181.688Z" fill="#7C8FAC"/>
<circle cx="333" cy="164" r="5" fill="#9C80FF"/>
<path d="M347.056 168.5V159.56H350.812C351.316 159.56 351.752 159.656 352.12 159.848C352.496 160.032 352.784 160.292 352.984 160.628C353.192 160.964 353.296 161.356 353.296 161.804C353.296 162.268 353.18 162.68 352.948 163.04C352.724 163.392 352.4 163.66 351.976 163.844L351.964 163.556C352.316 163.684 352.616 163.864 352.864 164.096C353.12 164.328 353.316 164.6 353.452 164.912C353.588 165.216 353.656 165.544 353.656 165.896C353.656 166.696 353.4 167.332 352.888 167.804C352.384 168.268 351.696 168.5 350.824 168.5H347.056ZM348.016 167.6H350.824C351.392 167.6 351.844 167.452 352.18 167.156C352.524 166.852 352.696 166.436 352.696 165.908C352.696 165.388 352.524 164.976 352.18 164.672C351.844 164.36 351.392 164.204 350.824 164.204H348.016V167.6ZM348.016 163.34H350.74C351.22 163.34 351.604 163.2 351.892 162.92C352.188 162.64 352.336 162.28 352.336 161.84C352.336 161.392 352.188 161.052 351.892 160.82C351.604 160.58 351.22 160.46 350.74 160.46H348.016V163.34ZM355.244 168.5V162.068H356.144V168.5H355.244ZM355.244 160.88V159.56H356.144V160.88H355.244ZM360.447 168.572C359.871 168.572 359.427 168.404 359.115 168.068C358.803 167.732 358.646 167.252 358.646 166.628V162.968H357.458V162.068H357.759C358.031 162.068 358.247 161.98 358.407 161.804C358.567 161.62 358.646 161.392 358.646 161.12V160.58H359.547V162.068H360.963V162.968H359.547V166.628C359.547 166.844 359.579 167.036 359.643 167.204C359.707 167.364 359.815 167.492 359.967 167.588C360.127 167.684 360.339 167.732 360.603 167.732C360.667 167.732 360.743 167.728 360.831 167.72C360.919 167.712 360.995 167.704 361.059 167.696V168.5C360.963 168.524 360.855 168.54 360.735 168.548C360.615 168.564 360.519 168.572 360.447 168.572ZM365.344 168.644C364.712 168.644 364.156 168.496 363.676 168.2C363.196 167.904 362.82 167.504 362.548 167C362.276 166.488 362.14 165.912 362.14 165.272C362.14 164.632 362.276 164.06 362.548 163.556C362.82 163.052 363.196 162.656 363.676 162.368C364.156 162.072 364.712 161.924 365.344 161.924C365.744 161.924 366.12 161.996 366.472 162.14C366.824 162.284 367.136 162.48 367.408 162.728C367.68 162.968 367.884 163.248 368.02 163.568L367.204 163.988C367.044 163.644 366.8 163.364 366.472 163.148C366.144 162.932 365.768 162.824 365.344 162.824C364.92 162.824 364.536 162.932 364.192 163.148C363.856 163.356 363.588 163.648 363.388 164.024C363.196 164.392 363.1 164.812 363.1 165.284C363.1 165.748 363.196 166.168 363.388 166.544C363.588 166.912 363.856 167.204 364.192 167.42C364.536 167.636 364.92 167.744 365.344 167.744C365.768 167.744 366.14 167.636 366.46 167.42C366.788 167.204 367.036 166.916 367.204 166.556L368.02 167C367.884 167.312 367.68 167.592 367.408 167.84C367.136 168.088 366.824 168.284 366.472 168.428C366.12 168.572 365.744 168.644 365.344 168.644ZM372.612 168.644C372.004 168.644 371.452 168.5 370.956 168.212C370.46 167.916 370.064 167.516 369.768 167.012C369.48 166.5 369.336 165.92 369.336 165.272C369.336 164.632 369.48 164.06 369.768 163.556C370.056 163.052 370.444 162.656 370.932 162.368C371.428 162.072 371.988 161.924 372.612 161.924C373.236 161.924 373.792 162.068 374.28 162.356C374.776 162.644 375.164 163.04 375.444 163.544C375.732 164.048 375.876 164.624 375.876 165.272C375.876 165.928 375.728 166.512 375.432 167.024C375.136 167.528 374.74 167.924 374.244 168.212C373.756 168.5 373.212 168.644 372.612 168.644ZM372.612 167.744C373.044 167.744 373.432 167.636 373.776 167.42C374.128 167.204 374.404 166.908 374.604 166.532C374.812 166.156 374.916 165.736 374.916 165.272C374.916 164.808 374.812 164.392 374.604 164.024C374.404 163.656 374.128 163.364 373.776 163.148C373.432 162.932 373.044 162.824 372.612 162.824C372.18 162.824 371.788 162.932 371.436 163.148C371.092 163.364 370.816 163.656 370.608 164.024C370.4 164.392 370.296 164.808 370.296 165.272C370.296 165.736 370.4 166.156 370.608 166.532C370.816 166.908 371.092 167.204 371.436 167.42C371.788 167.636 372.18 167.744 372.612 167.744ZM377.463 168.5V162.068H378.363V168.5H377.463ZM377.463 160.88V159.56H378.363V160.88H377.463ZM380.205 168.5V162.068H381.105V163.316L380.901 163.268C381.061 162.852 381.321 162.524 381.681 162.284C382.049 162.044 382.473 161.924 382.953 161.924C383.409 161.924 383.817 162.028 384.177 162.236C384.545 162.444 384.833 162.732 385.041 163.1C385.257 163.46 385.365 163.868 385.365 164.324V168.5H384.465V164.672C384.465 164.28 384.393 163.948 384.249 163.676C384.113 163.404 383.917 163.196 383.661 163.052C383.413 162.9 383.125 162.824 382.797 162.824C382.469 162.824 382.177 162.9 381.921 163.052C381.665 163.196 381.465 163.408 381.321 163.688C381.177 163.96 381.105 164.288 381.105 164.672V168.5H380.205Z" fill="#7C8FAC"/>
<circle cx="333" cy="189" r="5" fill="#1DCD9B"/>
<path d="M350.2 193.644C349.568 193.644 349.012 193.512 348.532 193.248C348.052 192.984 347.68 192.624 347.416 192.168C347.152 191.704 347.02 191.176 347.02 190.584V184.56H347.98V190.584C347.98 191.016 348.072 191.396 348.256 191.724C348.448 192.044 348.708 192.296 349.036 192.48C349.372 192.656 349.76 192.744 350.2 192.744C350.64 192.744 351.024 192.656 351.352 192.48C351.688 192.296 351.948 192.044 352.132 191.724C352.324 191.396 352.42 191.016 352.42 190.584V184.56H353.38V190.584C353.38 191.176 353.248 191.704 352.984 192.168C352.72 192.624 352.348 192.984 351.868 193.248C351.396 193.512 350.84 193.644 350.2 193.644ZM358.47 193.644C357.902 193.644 357.386 193.536 356.922 193.32C356.458 193.104 356.066 192.816 355.746 192.456C355.426 192.088 355.198 191.684 355.062 191.244L355.926 190.92C356.134 191.528 356.458 191.992 356.898 192.312C357.338 192.624 357.862 192.78 358.47 192.78C358.854 192.78 359.19 192.72 359.478 192.6C359.774 192.472 360.002 192.296 360.162 192.072C360.322 191.848 360.402 191.588 360.402 191.292C360.402 190.852 360.282 190.512 360.042 190.272C359.802 190.032 359.458 189.848 359.01 189.72L357.402 189.24C356.77 189.056 356.282 188.748 355.938 188.316C355.602 187.884 355.434 187.392 355.434 186.84C355.434 186.368 355.55 185.952 355.782 185.592C356.014 185.224 356.33 184.936 356.73 184.728C357.138 184.52 357.598 184.416 358.11 184.416C358.646 184.416 359.126 184.516 359.55 184.716C359.982 184.908 360.346 185.164 360.642 185.484C360.938 185.804 361.15 186.16 361.278 186.552L360.438 186.888C360.246 186.36 359.946 185.96 359.538 185.688C359.138 185.416 358.666 185.28 358.122 185.28C357.778 185.28 357.474 185.34 357.21 185.46C356.954 185.58 356.754 185.752 356.61 185.976C356.466 186.2 356.394 186.464 356.394 186.768C356.394 187.136 356.51 187.468 356.742 187.764C356.974 188.052 357.33 188.268 357.81 188.412L359.226 188.832C359.93 189.04 360.462 189.34 360.822 189.732C361.182 190.124 361.362 190.616 361.362 191.208C361.362 191.688 361.238 192.112 360.99 192.48C360.75 192.84 360.41 193.124 359.97 193.332C359.538 193.54 359.038 193.644 358.47 193.644ZM363.216 193.5V184.56H366.156C367.044 184.56 367.816 184.744 368.472 185.112C369.128 185.472 369.636 185.988 369.996 186.66C370.356 187.324 370.536 188.112 370.536 189.024C370.536 189.928 370.356 190.716 369.996 191.388C369.636 192.06 369.128 192.58 368.472 192.948C367.816 193.316 367.044 193.5 366.156 193.5H363.216ZM364.176 192.6H366.156C366.844 192.6 367.44 192.456 367.944 192.168C368.448 191.872 368.836 191.456 369.108 190.92C369.388 190.384 369.528 189.752 369.528 189.024C369.528 188.296 369.388 187.668 369.108 187.14C368.828 186.604 368.436 186.192 367.932 185.904C367.428 185.608 366.836 185.46 366.156 185.46H364.176V192.6Z" fill="#7C8FAC"/>
<circle cx="333" cy="214" r="5" fill="#FFAA50"/>
<path d="M351.136 218.644C350.504 218.644 349.924 218.532 349.396 218.308C348.868 218.076 348.408 217.756 348.016 217.348C347.632 216.932 347.332 216.444 347.116 215.884C346.9 215.324 346.792 214.708 346.792 214.036C346.792 213.364 346.9 212.748 347.116 212.188C347.332 211.628 347.632 211.14 348.016 210.724C348.408 210.308 348.868 209.988 349.396 209.764C349.924 209.532 350.504 209.416 351.136 209.416C351.744 209.416 352.288 209.524 352.768 209.74C353.256 209.956 353.664 210.236 353.992 210.58C354.328 210.916 354.568 211.272 354.712 211.648L353.848 212.068C353.624 211.524 353.28 211.096 352.816 210.784C352.352 210.472 351.792 210.316 351.136 210.316C350.48 210.316 349.896 210.472 349.384 210.784C348.872 211.096 348.472 211.532 348.184 212.092C347.896 212.644 347.752 213.292 347.752 214.036C347.752 214.772 347.896 215.42 348.184 215.98C348.472 216.54 348.872 216.976 349.384 217.288C349.896 217.592 350.48 217.744 351.136 217.744C351.72 217.744 352.244 217.616 352.708 217.36C353.18 217.104 353.552 216.756 353.824 216.316C354.096 215.868 354.232 215.356 354.232 214.78V214.288L354.664 214.72H351.136V213.88H355.192V214.624C355.192 215.208 355.088 215.748 354.88 216.244C354.672 216.732 354.384 217.156 354.016 217.516C353.648 217.876 353.216 218.156 352.72 218.356C352.232 218.548 351.704 218.644 351.136 218.644ZM359.791 218.644C359.183 218.644 358.631 218.5 358.135 218.212C357.639 217.916 357.243 217.516 356.947 217.012C356.659 216.5 356.515 215.92 356.515 215.272C356.515 214.632 356.659 214.06 356.947 213.556C357.235 213.052 357.623 212.656 358.111 212.368C358.607 212.072 359.167 211.924 359.791 211.924C360.415 211.924 360.971 212.068 361.459 212.356C361.955 212.644 362.343 213.04 362.623 213.544C362.911 214.048 363.055 214.624 363.055 215.272C363.055 215.928 362.907 216.512 362.611 217.024C362.315 217.528 361.919 217.924 361.423 218.212C360.935 218.5 360.391 218.644 359.791 218.644ZM359.791 217.744C360.223 217.744 360.611 217.636 360.955 217.42C361.307 217.204 361.583 216.908 361.783 216.532C361.991 216.156 362.095 215.736 362.095 215.272C362.095 214.808 361.991 214.392 361.783 214.024C361.583 213.656 361.307 213.364 360.955 213.148C360.611 212.932 360.223 212.824 359.791 212.824C359.359 212.824 358.967 212.932 358.615 213.148C358.271 213.364 357.995 213.656 357.787 214.024C357.579 214.392 357.475 214.808 357.475 215.272C357.475 215.736 357.579 216.156 357.787 216.532C357.995 216.908 358.271 217.204 358.615 217.42C358.967 217.636 359.359 217.744 359.791 217.744ZM364.643 218.5V209.416H365.543V218.5H364.643ZM370.289 218.644C369.689 218.644 369.149 218.5 368.669 218.212C368.189 217.916 367.809 217.516 367.529 217.012C367.257 216.5 367.121 215.924 367.121 215.284C367.121 214.636 367.257 214.06 367.529 213.556C367.809 213.052 368.185 212.656 368.657 212.368C369.137 212.072 369.681 211.924 370.289 211.924C370.841 211.924 371.333 212.044 371.765 212.284C372.197 212.524 372.537 212.848 372.785 213.256L372.641 213.508V209.416H373.541V218.5H372.641V217.06L372.785 217.192C372.561 217.656 372.225 218.016 371.777 218.272C371.337 218.52 370.841 218.644 370.289 218.644ZM370.337 217.744C370.769 217.744 371.157 217.636 371.501 217.42C371.853 217.204 372.129 216.912 372.329 216.544C372.537 216.168 372.641 215.748 372.641 215.284C372.641 214.82 372.537 214.404 372.329 214.036C372.129 213.66 371.853 213.364 371.501 213.148C371.157 212.932 370.769 212.824 370.337 212.824C369.913 212.824 369.529 212.932 369.185 213.148C368.841 213.364 368.569 213.656 368.369 214.024C368.177 214.392 368.081 214.812 368.081 215.284C368.081 215.748 368.177 216.168 368.369 216.544C368.569 216.912 368.837 217.204 369.173 217.42C369.517 217.636 369.905 217.744 370.337 217.744Z" fill="#7C8FAC"/>
<circle cx="333" cy="239" r="5" fill="#543F7F"/>
<path d="M347.056 243.5V234.56H348.016V243.5H347.056ZM354.206 243.644C353.574 243.644 352.994 243.532 352.466 243.308C351.938 243.076 351.478 242.756 351.086 242.348C350.702 241.932 350.402 241.444 350.186 240.884C349.97 240.324 349.862 239.708 349.862 239.036C349.862 238.364 349.97 237.748 350.186 237.188C350.402 236.628 350.702 236.14 351.086 235.724C351.478 235.308 351.938 234.988 352.466 234.764C352.994 234.532 353.574 234.416 354.206 234.416C354.814 234.416 355.358 234.524 355.838 234.74C356.326 234.956 356.734 235.236 357.062 235.58C357.398 235.916 357.638 236.272 357.782 236.648L356.882 237.044C356.658 236.524 356.314 236.108 355.85 235.796C355.394 235.476 354.846 235.316 354.206 235.316C353.55 235.316 352.966 235.472 352.454 235.784C351.942 236.096 351.542 236.532 351.254 237.092C350.966 237.644 350.822 238.292 350.822 239.036C350.822 239.772 350.966 240.42 351.254 240.98C351.542 241.54 351.942 241.976 352.454 242.288C352.966 242.592 353.55 242.744 354.206 242.744C354.846 242.744 355.394 242.588 355.85 242.276C356.314 241.964 356.658 241.548 356.882 241.028L357.782 241.424C357.638 241.792 357.398 242.148 357.062 242.492C356.734 242.828 356.326 243.104 355.838 243.32C355.358 243.536 354.814 243.644 354.206 243.644ZM359.501 243.5V234.56H362.573C363.157 234.56 363.669 234.676 364.109 234.908C364.549 235.132 364.889 235.452 365.129 235.868C365.377 236.276 365.501 236.752 365.501 237.296C365.501 237.84 365.377 238.316 365.129 238.724C364.889 239.132 364.549 239.452 364.109 239.684C363.677 239.908 363.165 240.02 362.573 240.02H360.461V243.5H359.501ZM360.461 239.12H362.621C363.005 239.12 363.341 239.048 363.629 238.904C363.917 238.752 364.141 238.54 364.301 238.268C364.461 237.988 364.541 237.66 364.541 237.284C364.541 236.908 364.461 236.584 364.301 236.312C364.141 236.04 363.917 235.832 363.629 235.688C363.341 235.536 363.005 235.46 362.621 235.46H360.461V239.12Z" fill="#7C8FAC"/>
<circle cx="333" cy="264" r="5" fill="#F9A6A7"/>
<path d="M351.136 268.644C350.504 268.644 349.924 268.532 349.396 268.308C348.868 268.076 348.408 267.756 348.016 267.348C347.632 266.932 347.332 266.444 347.116 265.884C346.9 265.324 346.792 264.708 346.792 264.036C346.792 263.364 346.9 262.748 347.116 262.188C347.332 261.628 347.632 261.14 348.016 260.724C348.408 260.308 348.868 259.988 349.396 259.764C349.924 259.532 350.504 259.416 351.136 259.416C351.744 259.416 352.288 259.524 352.768 259.74C353.256 259.956 353.664 260.236 353.992 260.58C354.328 260.916 354.568 261.272 354.712 261.648L353.812 262.044C353.588 261.524 353.244 261.108 352.78 260.796C352.324 260.476 351.776 260.316 351.136 260.316C350.48 260.316 349.896 260.472 349.384 260.784C348.872 261.096 348.472 261.532 348.184 262.092C347.896 262.644 347.752 263.292 347.752 264.036C347.752 264.772 347.896 265.42 348.184 265.98C348.472 266.54 348.872 266.976 349.384 267.288C349.896 267.592 350.48 267.744 351.136 267.744C351.776 267.744 352.324 267.588 352.78 267.276C353.244 266.964 353.588 266.548 353.812 266.028L354.712 266.424C354.568 266.792 354.328 267.148 353.992 267.492C353.664 267.828 353.256 268.104 352.768 268.32C352.288 268.536 351.744 268.644 351.136 268.644ZM360.643 268.644C360.019 268.644 359.435 268.532 358.891 268.308C358.355 268.076 357.883 267.756 357.475 267.348C357.067 266.932 356.747 266.444 356.515 265.884C356.283 265.316 356.167 264.696 356.167 264.024C356.167 263.352 356.283 262.736 356.515 262.176C356.747 261.608 357.067 261.12 357.475 260.712C357.883 260.296 358.355 259.976 358.891 259.752C359.435 259.528 360.019 259.416 360.643 259.416C361.267 259.416 361.847 259.532 362.383 259.764C362.927 259.988 363.403 260.308 363.811 260.724C364.219 261.132 364.539 261.616 364.771 262.176C365.003 262.736 365.119 263.352 365.119 264.024C365.119 264.696 365.003 265.316 364.771 265.884C364.539 266.444 364.219 266.932 363.811 267.348C363.403 267.756 362.927 268.076 362.383 268.308C361.847 268.532 361.267 268.644 360.643 268.644ZM360.643 267.744C361.163 267.744 361.635 267.648 362.059 267.456C362.491 267.264 362.863 266.996 363.175 266.652C363.487 266.308 363.727 265.912 363.895 265.464C364.071 265.016 364.159 264.536 364.159 264.024C364.159 263.52 364.071 263.044 363.895 262.596C363.727 262.148 363.487 261.752 363.175 261.408C362.863 261.064 362.491 260.796 362.059 260.604C361.635 260.412 361.163 260.316 360.643 260.316C360.123 260.316 359.647 260.412 359.215 260.604C358.791 260.796 358.423 261.064 358.111 261.408C357.799 261.752 357.555 262.148 357.379 262.596C357.211 263.044 357.127 263.52 357.127 264.024C357.127 264.536 357.211 265.016 357.379 265.464C357.555 265.912 357.799 266.308 358.111 266.652C358.423 266.996 358.795 267.264 359.227 267.456C359.659 267.648 360.131 267.744 360.643 267.744ZM371.178 268.644C370.554 268.644 369.97 268.532 369.426 268.308C368.89 268.076 368.418 267.756 368.01 267.348C367.602 266.932 367.282 266.444 367.05 265.884C366.818 265.316 366.702 264.696 366.702 264.024C366.702 263.352 366.818 262.736 367.05 262.176C367.282 261.608 367.602 261.12 368.01 260.712C368.418 260.296 368.89 259.976 369.426 259.752C369.97 259.528 370.554 259.416 371.178 259.416C371.802 259.416 372.382 259.532 372.918 259.764C373.462 259.988 373.938 260.308 374.346 260.724C374.754 261.132 375.074 261.616 375.306 262.176C375.538 262.736 375.654 263.352 375.654 264.024C375.654 264.696 375.538 265.316 375.306 265.884C375.074 266.444 374.754 266.932 374.346 267.348C373.938 267.756 373.462 268.076 372.918 268.308C372.382 268.532 371.802 268.644 371.178 268.644ZM371.178 267.744C371.698 267.744 372.17 267.648 372.594 267.456C373.026 267.264 373.398 266.996 373.71 266.652C374.022 266.308 374.262 265.912 374.43 265.464C374.606 265.016 374.694 264.536 374.694 264.024C374.694 263.52 374.606 263.044 374.43 262.596C374.262 262.148 374.022 261.752 373.71 261.408C373.398 261.064 373.026 260.796 372.594 260.604C372.17 260.412 371.698 260.316 371.178 260.316C370.658 260.316 370.182 260.412 369.75 260.604C369.326 260.796 368.958 261.064 368.646 261.408C368.334 261.752 368.09 262.148 367.914 262.596C367.746 263.044 367.662 263.52 367.662 264.024C367.662 264.536 367.746 265.016 367.914 265.464C368.09 265.912 368.334 266.308 368.646 266.652C368.958 266.996 369.33 267.264 369.762 267.456C370.194 267.648 370.666 267.744 371.178 267.744ZM378.911 268.5L376.343 259.56H377.315L379.535 267.564H379.331L381.611 259.56H382.631L384.899 267.564H384.683L386.915 259.56H387.887L385.319 268.5H384.299L382.007 260.46H382.223L379.931 268.5H378.911ZM389.079 268.5V259.56H389.919L395.163 267.084H394.839V259.56H395.799V268.5H394.959L389.715 260.928H390.039V268.5H389.079Z" fill="#7C8FAC"/>
</g>
<defs>
<filter id="filter0_dd_2216_57447" x="12" y="0" width="486" height="382" filterUnits="userSpaceOnUse" color-interpolation-filters="sRGB">
<feFlood flood-opacity="0" result="BackgroundImageFix"/>
<feColorMatrix in="SourceAlpha" type="matrix" values="0 0 0 0 0 0 0 0 0 0 0 0 0 0 0 0 0 0 127 0" result="hardAlpha"/>
<feMorphology radius="4" operator="erode" in="SourceAlpha" result="effect1_dropShadow_2216_57447"/>
<feOffset dy="12"/>
<feGaussianBlur stdDeviation="12"/>
<feComposite in2="hardAlpha" operator="out"/>
<feColorMatrix type="matrix" values="0 0 0 0 0.568627 0 0 0 0 0.619608 0 0 0 0 0.670588 0 0 0 0.12 0"/>
<feBlend mode="normal" in2="BackgroundImageFix" result="effect1_dropShadow_2216_57447"/>
<feColorMatrix in="SourceAlpha" type="matrix" values="0 0 0 0 0 0 0 0 0 0 0 0 0 0 0 0 0 0 127 0" result="hardAlpha"/>
<feOffset/>
<feGaussianBlur stdDeviation="1"/>
<feComposite in2="hardAlpha" operator="out"/>
<feColorMatrix type="matrix" values="0 0 0 0 0.568627 0 0 0 0 0.619608 0 0 0 0 0.670588 0 0 0 0.2 0"/>
<feBlend mode="normal" in2="effect1_dropShadow_2216_57447" result="effect2_dropShadow_2216_57447"/>
<feBlend mode="normal" in="SourceGraphic" in2="effect2_dropShadow_2216_57447" result="shape"/>
</filter>
</defs>
</svg>
