<svg width="19" height="18" viewBox="0 0 19 18" fill="none" xmlns="http://www.w3.org/2000/svg">
<path d="M14 7.5V2.7C14 2.27996 14 2.06994 13.9183 1.90951C13.8464 1.76839 13.7316 1.65365 13.5905 1.58175C13.4301 1.5 13.22 1.5 12.8 1.5H6.2C5.77996 1.5 5.56994 1.5 5.40951 1.58175C5.26839 1.65365 5.15365 1.76839 5.08175 1.90951C5 2.06994 5 2.27996 5 2.7V7.5M14 7.5H5M14 7.5V7.65C14 8.91012 14 9.54018 13.7548 10.0215C13.539 10.4448 13.1948 10.789 12.7715 11.0048C12.2902 11.25 11.6601 11.25 10.4 11.25H8.6C7.33988 11.25 6.70982 11.25 6.22852 11.0048C5.80516 10.789 5.46095 10.4448 5.24524 10.0215C5 9.54018 5 8.91012 5 7.65V7.5M11.375 11.25V14.625C11.375 15.6605 10.5355 16.5 9.5 16.5C8.46447 16.5 7.625 15.6605 7.625 14.625V11.25" stroke="#7C8FAC" stroke-width="1.5" stroke-linecap="round" stroke-linejoin="round"/>
</svg>
