<svg width="56" height="56" viewBox="0 0 56 56" fill="none" xmlns="http://www.w3.org/2000/svg">
<rect width="56" height="56" rx="12" fill="#F4EFFF"/>
<path d="M33.4127 27.136C34.6698 26.5038 35.4564 25.3904 35.2727 23.5356C35.0252 21.0007 32.808 20.1507 30.0091 19.9086L30.0086 16.3926H27.84L27.8393 19.8162C27.2688 19.8162 26.6871 19.8272 26.1081 19.8387L26.1076 16.393L23.941 16.3928L23.9406 19.908C23.471 19.9175 23.0099 19.9265 22.5596 19.9265V19.9161L19.5684 19.9149L19.5688 22.2004C19.5688 22.2004 21.1702 22.1706 21.1439 22.1995C22.0219 22.2001 22.3086 22.7034 22.3911 23.1379L22.3918 27.1434V32.7699C22.3531 33.0426 22.1904 33.4782 21.5765 33.479C21.6044 33.5033 19.9989 33.4788 19.9989 33.4788L19.5688 36.0344H22.3904C22.9162 36.035 23.4328 36.0431 23.9396 36.0471L23.9415 39.603L26.1076 39.6036L26.107 36.085C26.703 36.097 27.2782 36.1022 27.8401 36.1014L27.8395 39.6036H30.008L30.0093 36.0536C33.6545 35.847 36.2064 34.9405 36.5237 31.5613C36.7794 28.8407 35.4823 27.6263 33.4127 27.136ZM26.1599 22.3546C27.383 22.3546 31.2296 21.9702 31.2301 24.4922C31.2296 26.9102 27.3842 26.6277 26.1599 26.6277V22.3546ZM26.159 33.4964L26.1599 28.7849C27.6294 28.7845 32.2385 28.3675 32.2391 31.1396C32.2397 33.798 27.6294 33.4953 26.159 33.4964Z" fill="#9C80FF"/>
</svg>
