<svg width="20" height="20" viewBox="0 0 20 20" fill="none" xmlns="http://www.w3.org/2000/svg">
<path d="M14.8143 18.3332C14.7453 18.3332 14.6752 18.3301 14.6052 18.3249C13.5727 18.245 12.664 17.5251 12.2894 16.4909C12.2407 16.3571 12.2031 16.2201 12.1767 16.0853C11.9919 15.1382 11.4528 14.3343 10.6975 13.881L10.4173 13.7129C9.95026 13.4318 9.41319 13.2835 8.86496 13.2835C8.31673 13.2835 7.73194 13.4401 7.22838 13.7378C6.58471 14.1175 5.84967 14.3177 5.10346 14.3177C3.89125 14.3177 2.73082 13.7876 1.92167 12.8644C1.10135 11.9277 0.72469 10.7182 0.860734 9.4568C1.078 7.44232 2.66889 5.82721 4.64254 5.61559C4.79584 5.599 4.95117 5.5907 5.10346 5.5907C5.85678 5.5907 6.59791 5.79505 7.24564 6.18093C7.75834 6.48694 8.33398 6.64877 8.90963 6.64877C9.44974 6.64877 9.97869 6.50458 10.4406 6.23176L10.6863 6.08654C11.4528 5.63323 11.9838 4.85523 12.1798 3.89779C12.2082 3.75775 12.2498 3.61771 12.3016 3.47974C12.6935 2.45072 13.6082 1.74223 14.6316 1.67273C14.6925 1.66858 14.7534 1.6665 14.8143 1.6665C15.5778 1.6665 16.3078 2.00052 16.8174 2.58246C17.3332 3.1727 17.5697 3.93409 17.4824 4.72868C17.3423 6.00355 16.2915 7.04295 15.0367 7.14564C14.9625 7.15187 14.8874 7.15498 14.8143 7.15498C14.4417 7.15498 14.0823 7.07822 13.7442 6.92781C13.3382 6.74731 12.9107 6.65499 12.4721 6.65499C11.927 6.65499 11.3919 6.80125 10.9229 7.07822C9.95737 7.64875 9.36446 8.73586 9.37461 9.91426V9.95368C9.37461 9.98272 9.37461 10.0118 9.37461 10.0408C9.35228 11.2047 9.93909 12.2887 10.9046 12.8686L10.9452 12.8924C11.4163 13.1756 11.9584 13.325 12.5097 13.325C12.9412 13.325 13.3635 13.2368 13.7656 13.0615C14.0976 12.9173 14.4509 12.8437 14.8143 12.8437C14.9544 12.8437 15.0966 12.8551 15.2367 12.8769C16.3413 13.049 17.253 13.9505 17.453 15.0687C17.5991 15.8872 17.39 16.716 16.8773 17.3436C16.3646 17.9711 15.6123 18.3321 14.8133 18.3321L14.8143 18.3332ZM5.0131 7.63215C3.73592 7.63215 2.6963 8.69437 2.6963 9.99932C2.6963 11.3043 3.73592 12.3665 5.0131 12.3665C6.29029 12.3665 7.3299 11.3043 7.3299 9.99932C7.3299 8.69437 6.29029 7.63215 5.0131 7.63215Z" fill="#5D87FF"/>
</svg>
