<svg width="48" height="49" viewBox="0 0 48 49" fill="none" xmlns="http://www.w3.org/2000/svg">
<rect y="0.5" width="48" height="48" rx="8" fill="#FFEAED"/>
<path d="M34.0722 26.6321C33.1229 25.6038 31.9361 24.6792 30.3222 23.7453C29.4678 23.2453 28.5848 22.7641 27.7304 22.2925C27.3222 22.066 26.9044 21.8396 26.4962 21.6132C26.4297 21.5755 26.3633 21.5283 26.3158 21.4811L26.0785 21.3113L26.2873 21.1038C26.4677 20.9245 26.6481 20.7547 26.8285 20.5943C27.2177 20.2358 27.588 19.8962 27.9013 19.5094C28.7747 18.4528 29.107 17.1415 28.8222 15.8962C28.5374 14.6509 27.6544 13.6132 26.4108 13.0472C25.6133 12.6887 24.8063 12.5 24.0088 12.5C23.0879 12.5 22.167 12.7453 21.2556 13.217C20.2208 13.7641 19.5563 14.5849 19.2714 15.6698C18.8442 17.2925 19.2904 18.7547 20.5816 20.0189C20.8379 20.2642 21.1037 20.5 21.3886 20.7453C21.5215 20.8585 21.6639 20.9811 21.8063 21.1038L22.0721 21.3396L21.0942 21.8585C20.6101 22.1132 20.1259 22.3679 19.6512 22.6226C17.8284 23.6038 16.0625 24.5849 14.5625 25.9528C12.7397 27.6038 11.9043 29.3868 12.0087 31.4245C12.1891 34.9057 14.7999 36.5 17.1543 36.5C17.5056 36.5 17.8569 36.4623 18.1986 36.3962C20.4202 35.9623 22.0151 34.3962 22.3474 32.2924C22.7746 29.5755 21.8537 27.2925 19.6037 25.5L19.0341 25.0472L19.2999 24.8585C19.2999 24.8585 19.3569 24.8113 19.3854 24.7925C19.4423 24.7547 19.4898 24.7075 19.5563 24.6792L20.1164 24.3868C21.2936 23.783 22.4993 23.1604 23.705 22.566C23.7905 22.5283 23.8854 22.5 23.9993 22.5C24.1323 22.5 24.2747 22.5283 24.3886 22.5849C25.262 23.0094 26.1829 23.4811 27.3886 24.0943C27.6924 24.2453 27.9867 24.4151 28.2715 24.5755C28.4045 24.6509 28.8412 24.8868 28.8412 24.8868L28.7747 25.0849V25.1226C28.7747 25.1226 28.7367 25.217 28.6608 25.2736L28.4709 25.4151C26.1449 27.1792 25.2145 29.5 25.6987 32.3019C26.1259 34.7264 28.2715 36.4906 30.8064 36.4906C31.7842 36.4906 32.7621 36.217 33.607 35.7075C35.4393 34.6038 36.2083 32.8113 35.952 30.2453C35.8286 29.0189 35.2495 27.8962 34.0627 26.6038L34.0722 26.6321ZM19.917 33.0566C19.4328 34.0472 18.7683 34.6226 17.8853 34.8113C17.705 34.8491 17.5151 34.8679 17.3347 34.8679C16.3284 34.8679 15.3315 34.3113 14.8568 33.4811C14.4391 32.7453 14.2302 31.934 14.2492 31.0755C14.2113 29.8302 14.61 28.7264 15.4265 27.8113C15.7587 27.434 16.1385 27.0943 16.4993 26.7736C16.6512 26.6415 16.8031 26.5 16.9455 26.3585C17.0784 26.2358 17.2303 26.1698 17.3917 26.1698C17.5246 26.1698 17.6575 26.2075 17.7999 26.2925C20.0499 27.5849 21.0373 30.7453 19.917 33.0566ZM24.3506 20.0189C24.2557 20.0849 24.1417 20.0943 24.0563 20.0943C23.9234 20.0943 23.8 20.0566 23.705 20C23.031 19.5849 22.186 19 21.6544 18.1038C21.2651 17.4623 21.3221 16.6321 21.3221 16.6321C21.3886 15.3962 22.243 14.6038 23.705 14.434C23.8285 14.4245 23.9424 14.4151 24.0658 14.4151C24.531 14.4151 24.9867 14.5189 25.4139 14.7264C26.0215 15.0189 26.4677 15.5283 26.6671 16.1509C26.8665 16.7736 26.7905 17.434 26.4582 18.0094C25.9551 18.8868 25.1766 19.4528 24.3696 20L24.3506 20.0189ZM33.8254 30.934C33.7969 31.8774 33.626 32.6226 33.2843 33.2736C32.7716 34.2547 31.8412 34.8396 30.8064 34.8396C29.857 34.8396 28.9836 34.3491 28.414 33.5094C27.1893 31.6981 27.5405 28.8019 29.1924 27.1698C29.4867 26.8774 29.838 26.5943 30.2273 26.3208C30.3792 26.217 30.569 26.2075 30.645 26.2075C30.7494 26.2075 30.8918 26.2264 31.0058 26.3113C32.183 27.1887 33.5596 28.4434 33.7874 30.4528C33.7969 30.5566 33.8064 30.6604 33.8159 30.7641V30.9151L33.8254 30.934Z" fill="#F9A6A7"/>
</svg>
