<svg width="48" height="48" viewBox="0 0 48 48" fill="none" xmlns="http://www.w3.org/2000/svg">
<g clip-path="url(#clip0_3782_81453)">
<path d="M24.025 48C10.7286 48.0105 0.00789695 37.3132 4.3776e-06 24.0276C-0.0078882 10.7026 10.6576 0.0052625 23.9566 1.94033e-06C37.2661 -0.00525862 47.9947 10.6868 48 23.9592C48.0026 37.2474 37.2898 47.9921 24.0276 48H24.025ZM14.275 12.8831C14.354 12.8042 14.4329 12.7279 14.5118 12.649C13.3516 11.9283 11.9862 12.0335 10.6339 11.9178C10.6339 13.1383 10.0893 20.2874 11.4206 20.0138C11.4206 18.5251 11.5258 17.16 11.7652 15.6817C12.3203 15.011 12.8649 14.3271 13.4358 13.6696C13.6857 13.3829 13.9935 13.1435 14.275 12.8857V12.8831ZM16.0246 11.568C18.3502 13.5696 22.8306 14.3929 25.7877 13.7011C28.8237 12.991 32.8042 12.3939 34.6484 9.7373C31.6571 10.1844 29.0631 10.166 26.0455 9.92668C25.3878 9.73993 24.7301 9.55055 24.1697 9.3901C20.7101 10.9446 17.2821 10.3291 13.6568 9.80832C14.4013 10.6526 15.0722 11.2918 16.0246 11.5653V11.568ZM16.6323 43.6364V45.3066C17.5952 45.5591 19.4631 46.4034 20.3734 46.0062C22.8464 46.7769 25.7219 46.4113 28.2396 45.9905C29.2762 45.78 30.3154 45.5696 31.3572 45.3592V44.2282C31.273 43.2339 31.6519 42.1792 31.0415 41.2033C28.7158 42.4317 26.4033 44.0861 23.654 43.8915C21.1442 43.7126 18.7975 42.1476 16.6297 40.985V43.6337L16.6323 43.6364ZM32.4411 14.1193C29.6971 12.7306 25.7272 15.8606 22.6806 15.5187C21.0679 15.3372 19.8867 14.7296 18.4423 14.1667C17.39 13.7564 16.0377 13.446 15.0143 14.2929C13.4095 15.1767 12.5334 17.2336 13.0464 18.9301C17.1085 16.4577 19.713 17.6702 22.5228 21.2185C23.5541 20.7056 24.5801 20.8187 25.5983 21.1606C27.3767 17.6018 32.0123 16 35.1009 19.0669C35.5429 16.9101 34.3748 14.7901 32.4411 14.1246V14.1193ZM35.3614 35.1353C35.9901 33.081 36.9267 28.6096 35.8875 26.65C35.6034 26.9919 35.3561 27.2892 35.1088 27.5864C32.9831 29.6538 29.1604 29.5512 27.0584 27.518C25.7272 26.2318 26.0218 24.7746 25.2589 23.3858C24.5854 22.1627 23.5778 22.1601 22.8174 23.3858C22.1597 24.4458 22.3518 25.8057 21.5125 26.8999C20.7969 27.8336 19.7656 28.5201 18.6423 28.8621C16.2298 29.6012 13.7725 28.6069 12.1888 26.7131C12.0335 29.3934 11.631 32.9206 12.7965 35.4115C13.9278 37.8261 16.5297 39.157 18.7528 40.4037C21.794 42.1108 24.5617 42.9499 27.8108 41.2533C30.1838 40.0145 33.4172 38.5783 34.822 36.1769C34.8694 36.098 34.9141 36.0164 34.9615 35.9375C35.093 35.6692 35.2246 35.4036 35.3561 35.1353H35.3614ZM37.5502 28.6017C37.5502 33.5256 37.5687 37.1974 32.9568 40.0066C32.9568 41.4637 32.8673 42.9604 33.0173 44.4097C40.9493 41.7557 46.14 32.9522 46.4425 24.9167C47.1239 6.86767 26.2428 -4.92914 11.2785 5.49729C4.20411 10.4238 0.315707 19.2195 1.81793 27.76C2.99129 34.4277 8.05043 42.529 15.0301 44.3728C15.0301 42.963 15.4089 41.0061 14.5881 39.8014C13.962 38.8808 12.7149 38.3942 11.9967 37.4868C10.0315 35.0064 10.6181 31.5502 10.6181 28.5859C5.69844 28.2019 4.41458 22.097 9.04489 20.0743C9.04489 17.4572 8.91335 14.8374 8.93177 12.2177C8.95281 9.41641 9.73418 9.89775 12.1256 10.5658C11.1522 8.08285 11.3811 7.48578 14.033 8.25645C16.6454 9.0166 19.692 9.12182 22.3491 8.53789C22.6412 7.0097 23.2252 7.39898 24.4617 7.76459C26.2823 8.3038 27.9581 8.79566 29.8813 8.78777C30.881 8.78514 31.8571 8.67467 32.8357 8.46688C33.5408 8.31695 34.5879 7.70409 35.2956 7.74355C37.1924 7.84613 36.6584 9.03502 36.048 10.6053C38.1027 9.99244 39.0367 9.27963 39.0893 11.7758C39.1472 14.5244 39.0709 17.2836 39.0709 20.0322C44.1011 21.7919 41.9148 27.8862 37.5502 28.599V28.6017ZM26.7848 23.1886C26.7927 28.6595 35.2035 28.9594 35.5034 23.47C35.8086 17.8833 26.7769 17.4493 26.7848 23.1886ZM21.2179 23.3227C21.6941 17.8202 12.4387 17.6229 12.4361 23.1649C12.4334 28.6911 21.5441 28.9252 21.2179 23.3227ZM36.5716 19.8271C37.816 20.1664 37.3398 13.0593 37.2924 11.952C35.906 12.315 34.5248 11.9283 33.2146 12.4965C33.8539 13.5907 35.4219 13.8326 36.0585 15.2057C36.7294 16.6497 36.5716 18.2831 36.5716 19.8271ZM10.6234 21.5867C6.75868 21.521 7.00072 26.7 10.5103 26.963C10.6103 26.629 10.6208 26.287 10.5471 25.9398C8.8239 25.1849 8.24248 23.278 10.6234 23.2727V21.5867ZM37.5739 25.7662V26.9841C41.0703 26.508 41.2966 21.0422 37.5292 21.6735V23.3937C39.7812 23.1465 39.4129 25.4059 37.5739 25.7662Z" fill="#2A3547"/>
<path d="M37.5525 28.6016C41.9171 27.8888 44.1033 21.7945 39.0731 20.0348C39.0731 17.2861 39.1494 14.527 39.0916 11.7783C39.0389 9.28221 38.105 9.99238 36.0503 10.6079C36.658 9.03759 37.1947 7.8487 35.2979 7.74612C34.5902 7.7093 33.5431 8.32215 32.838 8.46945C31.8593 8.67461 30.8833 8.78508 29.8836 8.79034C27.9604 8.79823 26.2846 8.30637 24.464 7.76716C23.2275 7.40155 22.6434 7.01227 22.3514 8.54047C19.6943 9.12702 16.6477 9.02181 14.0353 8.25903C11.386 7.48835 11.1545 8.08543 12.1279 10.5684C9.73646 9.90032 8.95509 9.41898 8.93404 12.2202C8.91563 14.8374 9.04717 17.4571 9.04717 20.0769C4.41686 22.0996 5.69809 28.2018 10.6204 28.5885C10.6204 31.5528 10.0337 35.009 11.999 37.4893C12.7172 38.3968 13.9642 38.8834 14.5904 39.804C15.4112 41.0087 15.0324 42.9682 15.0324 44.3754C8.05534 42.5316 2.9962 34.4303 1.8202 27.7626C0.317985 19.2194 4.20639 10.4237 11.2808 5.49723C26.2477 -4.92657 47.1262 6.86761 46.4474 24.9166C46.1449 32.9547 40.9542 41.7556 33.0222 44.4096C32.8748 42.9603 32.9617 41.4637 32.9617 40.0065C37.5736 37.1974 37.5551 33.5255 37.5551 28.6016H37.5525Z" fill="#FFD838"/>
<path d="M34.8278 36.1771C33.4229 38.5786 30.1896 40.0147 27.8165 41.2536C24.5701 42.9475 21.8024 42.111 18.7585 40.404C16.5354 39.1572 13.9309 37.8263 12.8022 35.4117C11.6368 32.9208 12.0393 29.3936 12.1945 26.7134C13.7783 28.6072 16.2329 29.6014 18.648 28.8623C19.7687 28.5177 20.8 27.8312 21.5183 26.9001C22.3575 25.8086 22.1655 24.4461 22.8232 23.3861C23.5835 22.1604 24.5911 22.163 25.2646 23.3861C26.0275 24.7749 25.7329 26.2294 27.0641 27.5182C29.1662 29.5514 32.9888 29.654 35.1145 27.5866C36.1011 29.3358 35.3618 33.1181 35.3671 35.1355C35.2355 35.4038 35.104 35.6695 34.9725 35.9378C34.9251 36.0167 34.8804 36.0982 34.833 36.1771H34.8278ZM23.6887 33.3706C24.7832 33.4259 29.4529 33.105 29.5555 31.5505C29.6739 29.775 25.4987 31.774 24.5122 31.8372C23.4782 31.9029 22.2944 31.9055 21.2999 31.5794C20.6606 31.369 19.2926 30.0354 18.7085 30.9613C17.4457 32.9656 22.6916 33.3917 23.6861 33.3706H23.6887ZM24.036 28.2574C24.036 28.2574 24.036 28.2442 24.036 28.2389C22.1497 28.2389 22.0523 29.7198 24.0413 29.7224C26.0249 29.7224 25.9065 28.2574 24.036 28.2574ZM23.9413 37.9184C25.3961 37.9447 25.4435 36.2481 24.036 36.2061C22.6364 36.164 22.4838 37.8921 23.9413 37.9184ZM33.2571 32.3527C33.6439 31.8451 34.3674 30.4405 33.0414 30.451C31.7286 30.4615 32.0917 32.3132 33.2571 32.3527ZM14.9806 30.3353C14.5649 30.8298 13.5967 32.2527 15.0148 32.3159C16.2934 32.3711 15.9198 30.5825 14.9806 30.3353Z" fill="#FDFDFD"/>
<path d="M32.4397 14.1198C34.3734 14.7879 35.5415 16.9053 35.0995 19.0621C32.0108 15.9952 27.3753 17.5971 25.5968 21.1558C24.5787 20.8139 23.5526 20.7008 22.5213 21.2137C19.7116 17.6681 17.1097 16.4555 13.045 18.9253C12.532 17.2288 13.4081 15.1719 15.0129 14.2882C17.6253 15.5244 21.3164 16.6738 24.234 16.5949C25.9388 16.5502 27.2911 15.8505 28.8749 15.3508C30.0351 14.9852 31.4873 14.9457 32.437 14.1172L32.4397 14.1198Z" fill="#FDFDFD"/>
<path d="M26.7891 23.1908C26.7812 17.4542 35.8129 17.8855 35.5077 23.4722C35.2078 28.959 26.797 28.6618 26.7891 23.1908ZM31.2352 25.0188C33.0689 25.032 33.0584 22.065 31.272 22.0624C29.4936 22.0624 29.4331 25.0057 31.2352 25.0188ZM27.331 22.7778C28.3386 23.7826 28.3702 23.0619 29.0753 22.2755C29.412 21.8993 29.5594 21.5811 29.9645 21.2391C30.3039 20.9524 30.7511 21.2049 31.0037 20.7604C31.8245 19.3269 30.0145 19.7478 29.3884 20.1449C28.4334 20.7499 27.7151 21.7599 27.331 22.7752V22.7778Z" fill="#FFD838"/>
<path d="M21.2193 23.3252C21.5455 28.925 12.4322 28.6936 12.4375 23.1674C12.4401 17.628 21.6981 17.8226 21.2193 23.3252ZM15.8497 21.2025C16.9573 21.2499 17.4072 20.0163 16.2917 19.6323C15.5682 19.3824 14.1975 20.8159 13.7635 21.3893C13.3583 21.9232 12.4901 24.2116 14.1449 23.5277C15.0236 23.1647 14.4054 21.1736 15.8497 21.2052V21.2025ZM16.9915 22.1047C14.9658 22.1047 15.3025 25.3689 17.2467 24.9796C18.8357 24.6614 18.6805 22.1047 16.9915 22.1047Z" fill="#FFD838"/>
<path d="M28.2402 45.9927C25.7198 46.4136 22.8469 46.7765 20.3739 46.0085C19.1584 45.2168 17.9456 44.4251 16.7302 43.636C16.7065 43.6202 16.667 43.636 16.6328 43.636V40.9873C18.8006 42.1499 21.1474 43.7149 23.6572 43.8938C26.4064 44.0884 28.719 42.434 31.0447 41.2056C31.655 42.1788 31.2762 43.2362 31.3604 44.2304C30.3212 44.817 29.282 45.4062 28.2428 45.9927H28.2402Z" fill="#CAD1DD"/>
<path d="M26.0444 9.92669C29.062 10.166 31.656 10.1818 34.6473 9.7373C32.803 12.3939 28.8226 12.991 25.7866 13.7011C22.8295 14.3929 18.3491 13.5696 16.0234 11.568C17.381 11.1866 19.4251 11.9441 20.9405 11.7468C22.8084 11.5022 24.4317 10.8657 26.0417 9.92669H26.0444Z" fill="#CAD1DD"/>
<path d="M32.4398 14.119C31.4901 14.9502 30.0378 14.987 28.8776 15.3526C27.2912 15.8524 25.9416 16.5521 24.2368 16.5968C21.3192 16.673 17.6281 15.5236 15.0156 14.29C16.039 13.4431 17.3887 13.7534 18.4436 14.1638C19.8906 14.7266 21.0692 15.3342 22.6819 15.5157C25.7285 15.8577 29.6984 12.7276 32.4424 14.1164L32.4398 14.119Z" fill="#CAD1DD"/>
<path d="M26.0423 9.92653C24.4296 10.8655 22.809 11.4994 20.9411 11.7467C19.4257 11.9466 17.3789 11.1864 16.024 11.5678C15.069 11.2943 14.4008 10.6551 13.6562 9.81079C17.2816 10.329 20.7096 10.9471 24.1692 9.39258C24.7295 9.55303 25.3872 9.73978 26.045 9.92916L26.0423 9.92653Z" fill="#FDFDFD"/>
<path d="M36.5679 19.8301C36.5679 18.2862 36.7231 16.6554 36.0549 15.2087C35.4182 13.8357 33.8502 13.5937 33.2109 12.4995C34.5237 11.9314 35.9023 12.3181 37.2888 11.9551C37.3388 13.0624 37.8123 20.1721 36.5679 19.8301Z" fill="#CAD1DD"/>
<path d="M11.7641 15.679C11.5247 17.1572 11.4195 18.5223 11.4195 20.011C10.0909 20.2846 10.6328 13.1355 10.6328 11.915C11.9851 12.0334 13.3479 11.9256 14.5107 12.6463C14.4318 12.7252 14.3529 12.8014 14.2739 12.8804C11.6247 13.0671 11.651 13.1092 11.7641 15.6763V15.679Z" fill="#FDFDFD"/>
<path d="M10.6268 21.5895V23.2755C8.2459 23.2808 8.82732 25.1877 10.5505 25.9426C10.6242 26.2898 10.611 26.6317 10.5137 26.9658C7.00413 26.7028 6.76209 21.5237 10.6268 21.5895Z" fill="#FDFDFD"/>
<path d="M37.5682 25.7664C39.4045 25.4061 39.7755 23.1467 37.5234 23.3939V21.6737C41.2935 21.0425 41.0646 26.5082 37.5682 26.9843V25.7664Z" fill="#FDFDFD"/>
<path d="M35.3619 35.1357C35.354 33.1183 36.0959 29.3359 35.1094 27.5868C35.3567 27.2895 35.604 26.9923 35.8881 26.6504C36.9299 28.6099 35.9933 33.0814 35.3619 35.1357Z" fill="#CAD1DD"/>
<path d="M16.6328 43.6359C16.6644 43.6359 16.7065 43.6201 16.7302 43.6359C17.9456 44.425 19.1611 45.2167 20.3739 46.0084C19.4636 46.4056 17.5957 45.5613 16.6328 45.3088V43.6386V43.6359Z" fill="#FDFDFD"/>
<path d="M11.7632 15.6788C11.6527 13.1116 11.6237 13.0696 14.273 12.8828C13.9915 13.1432 13.6837 13.3799 13.4338 13.6666C12.8629 14.3242 12.3183 15.0054 11.7632 15.6788Z" fill="#CAD1DD"/>
<path d="M28.2422 45.9928C29.2814 45.4062 30.3206 44.817 31.3598 44.2305V45.3615C30.3153 45.5719 29.2787 45.7823 28.2422 45.9928Z" fill="#FDFDFD"/>
<path d="M23.6883 33.3677C22.6912 33.3888 17.4479 32.96 18.7107 30.9584C19.2948 30.0325 20.6628 31.3661 21.3021 31.5765C22.2966 31.9027 23.4804 31.9 24.5144 31.8343C25.5009 31.7712 29.6735 29.7721 29.5577 31.5476C29.4551 33.1047 24.7854 33.423 23.6909 33.3677H23.6883Z" fill="#2A3547"/>
<path d="M24.0367 28.2567C25.9099 28.2567 26.0283 29.7218 24.042 29.7218C22.0531 29.7218 22.1504 28.2383 24.0367 28.2383C24.0367 28.2435 24.0367 28.2514 24.0367 28.2567Z" fill="#2A3547"/>
<path d="M23.9392 37.9182C22.4817 37.8918 22.6369 36.1637 24.0339 36.2058C25.4414 36.2479 25.394 37.9445 23.9392 37.9182Z" fill="#2A3547"/>
<path d="M33.2598 32.3529C32.097 32.3135 31.7313 30.4618 33.0441 30.4512C34.37 30.4407 33.6465 31.8453 33.2598 32.3529Z" fill="#2A3547"/>
<path d="M14.9838 30.335C15.9231 30.5796 16.2966 32.3708 15.018 32.3156C13.6 32.2551 14.5682 30.8295 14.9838 30.335Z" fill="#2A3547"/>
<path d="M31.2308 25.0189C29.4287 25.0058 29.4892 22.0625 31.2676 22.0625C33.054 22.0625 33.0645 25.0321 31.2308 25.0189Z" fill="#2A3547"/>
<path d="M27.3281 22.7786C27.7149 21.7607 28.4331 20.7506 29.3855 20.1483C30.0116 19.7511 31.8216 19.3303 31.0008 20.7638C30.7482 21.2057 30.301 20.9558 29.9616 21.2425C29.5565 21.5844 29.4091 21.9027 29.0724 22.2788C28.3673 23.0653 28.3357 23.786 27.3281 22.7812V22.7786Z" fill="#FDFDFD"/>
<path d="M15.8512 21.2025C14.4069 21.1709 15.0251 23.1646 14.1464 23.525C12.489 24.2089 13.3598 21.9205 13.7649 21.3866C14.199 20.8132 15.5671 19.3797 16.2932 19.6295C17.4087 20.0162 16.9588 21.2472 15.8512 21.1998V21.2025Z" fill="#FDFDFD"/>
<path d="M16.9866 22.1025C18.6729 22.1025 18.8308 24.6592 17.2418 24.9774C15.2976 25.3667 14.9608 22.0999 16.9866 22.1025Z" fill="#2A3547"/>
</g>
<defs>
<clipPath id="clip0_3782_81453">
<rect width="48" height="48" fill="white"/>
</clipPath>
</defs>
</svg>
