<svg width="56" height="56" viewBox="0 0 56 56" fill="none" xmlns="http://www.w3.org/2000/svg">
<rect width="56" height="56" rx="12" fill="#FFEBE3"/>
<g clip-path="url(#clip0_2087_30447)">
<path d="M41.125 35.8751V20.1249L28 12.25L14.875 20.1249V35.8751L28 43.75L41.125 35.8751Z" fill="url(#paint0_linear_2087_30447)"/>
<path d="M27.0494 21.7258C27.3499 20.807 28.6498 20.807 28.9503 21.7259L30.1708 25.4578C30.3036 25.864 30.6799 26.1408 31.1072 26.1468L34.9765 26.2012C35.9218 26.2145 36.3225 27.4109 35.5758 27.9909L32.4125 30.4477C32.0867 30.7008 31.9497 31.128 32.0677 31.5234L33.2227 35.3945C33.4968 36.3133 32.4459 37.0539 31.6728 36.4866L28.5915 34.2255C28.2394 33.9671 27.7603 33.9671 27.4083 34.2255L24.3267 36.4867C23.5537 37.054 22.5028 36.3134 22.7769 35.3946L23.9318 31.5234C24.0497 31.128 23.9127 30.7008 23.5869 30.4477L20.4236 27.9909C19.6769 27.4109 20.0776 26.2145 21.0229 26.2012L24.8923 26.1468C25.3196 26.1408 25.6958 25.864 25.8287 25.4578L27.0494 21.7258Z" fill="#F34759"/>
<path d="M27.0494 20.4148C27.3499 19.4959 28.6498 19.496 28.9503 20.4148L30.1708 24.1467C30.3036 24.5529 30.6799 24.8298 31.1072 24.8358L34.9765 24.8902C35.9218 24.9034 36.3225 26.0999 35.5758 26.6798L32.4125 29.1367C32.0867 29.3898 31.9497 29.817 32.0677 30.2124L33.2227 34.0834C33.4968 35.0022 32.4459 35.7428 31.6728 35.1756L28.5915 32.9144C28.2394 32.6561 27.7603 32.6561 27.4083 32.9144L24.3267 35.1757C23.5537 35.7429 22.5028 35.0024 22.7769 34.0836L23.9318 30.2124C24.0497 29.817 23.9127 29.3898 23.5869 29.1367L20.4236 26.6798C19.6769 26.0999 20.0776 24.9034 21.0229 24.8902L24.8923 24.8358C25.3196 24.8298 25.6958 24.5529 25.8287 24.1468L27.0494 20.4148Z" fill="#FFEBE2"/>
<mask id="mask0_2087_30447" style="mask-type:alpha" maskUnits="userSpaceOnUse" x="20" y="19" width="16" height="17">
<path d="M27.0494 20.4148C27.3499 19.4959 28.6498 19.496 28.9503 20.4148L30.1708 24.1467C30.3036 24.5529 30.6799 24.8298 31.1072 24.8358L34.9765 24.8902C35.9218 24.9034 36.3225 26.0999 35.5758 26.6798L32.4125 29.1367C32.0867 29.3898 31.9497 29.817 32.0677 30.2124L33.2227 34.0834C33.4968 35.0022 32.4459 35.7428 31.6728 35.1756L28.5915 32.9144C28.2394 32.6561 27.7603 32.6561 27.4083 32.9144L24.3267 35.1757C23.5537 35.7429 22.5028 35.0024 22.7769 34.0836L23.9318 30.2124C24.0497 29.817 23.9127 29.3898 23.5869 29.1367L20.4236 26.6798C19.6769 26.0999 20.0776 24.9034 21.0229 24.8902L24.8923 24.8358C25.3196 24.8298 25.6958 24.5529 25.8287 24.1468L27.0494 20.4148Z" fill="#FFEBE2"/>
</mask>
<g mask="url(#mask0_2087_30447)">
<path d="M27.9997 17.5088V27.2505L25.6064 24.8258L27.9997 17.5088Z" fill="white"/>
<path d="M21.9253 36.9365L28.0451 27.2222L24.1273 29.5552" fill="white"/>
<path d="M18.1709 24.9301L28 27.2506L25.6066 24.8257L18.1709 24.9301Z" fill="white"/>
<path d="M37.8287 24.9297L28 27.2496L31.8722 29.556L37.8287 24.9297Z" fill="#FFC4C2"/>
<path d="M34.0747 36.9373L28.0002 32.4798L21.9453 36.923L28.0002 27.25L34.0747 36.9373Z" fill="#FFC4C2"/>
</g>
</g>
<defs>
<linearGradient id="paint0_linear_2087_30447" x1="14.875" y1="12.25" x2="41.125" y2="43.75" gradientUnits="userSpaceOnUse">
<stop stop-color="#FFC992"/>
<stop offset="1" stop-color="#F02D4E"/>
</linearGradient>
<clipPath id="clip0_2087_30447">
<rect width="26.25" height="31.5" fill="white" transform="translate(14.875 12.25)"/>
</clipPath>
</defs>
</svg>
