<svg width="19" height="18" viewBox="0 0 19 18" fill="none" xmlns="http://www.w3.org/2000/svg">
<path d="M11.75 1.84335C11.0397 1.62027 10.2839 1.5 9.5 1.5C5.35786 1.5 2 4.85786 2 9C2 13.1421 5.35786 16.5 9.5 16.5C13.6421 16.5 17 13.1421 17 9C17 7.71351 16.6761 6.50266 16.1054 5.44458M13.25 4.3125H13.2538M8.37504 16.4162L8.37512 14.7637C8.37513 14.6742 8.40715 14.5876 8.4654 14.5197L10.3297 12.3446C10.4829 12.1658 10.4355 11.8917 10.2311 11.7749L8.0889 10.5508C8.0307 10.5175 7.98248 10.4693 7.94925 10.4111L6.55284 7.96397C6.48017 7.83661 6.33993 7.7633 6.19387 7.77631L2.04814 8.14556M16.25 4.5C16.25 6.15685 14.75 7.5 13.25 9C11.75 7.5 10.25 6.15685 10.25 4.5C10.25 2.84315 11.5931 1.5 13.25 1.5C14.9069 1.5 16.25 2.84315 16.25 4.5ZM13.4375 4.3125C13.4375 4.41605 13.3536 4.5 13.25 4.5C13.1464 4.5 13.0625 4.41605 13.0625 4.3125C13.0625 4.20895 13.1464 4.125 13.25 4.125C13.3536 4.125 13.4375 4.20895 13.4375 4.3125Z" stroke="#7C8FAC" stroke-width="1.5" stroke-linecap="round" stroke-linejoin="round"/>
</svg>
