<svg width="19" height="18" viewBox="0 0 19 18" fill="none" xmlns="http://www.w3.org/2000/svg">
<path d="M16.25 13.5V9C16.25 5.27208 13.2279 2.25 9.5 2.25C5.77208 2.25 2.75 5.27208 2.75 9V13.5M4.625 15.75C3.58947 15.75 2.75 14.9105 2.75 13.875V12.375C2.75 11.3395 3.58947 10.5 4.625 10.5C5.66053 10.5 6.5 11.3395 6.5 12.375V13.875C6.5 14.9105 5.66053 15.75 4.625 15.75ZM14.375 15.75C13.3395 15.75 12.5 14.9105 12.5 13.875V12.375C12.5 11.3395 13.3395 10.5 14.375 10.5C15.4105 10.5 16.25 11.3395 16.25 12.375V13.875C16.25 14.9105 15.4105 15.75 14.375 15.75Z" stroke="#7C8FAC" stroke-width="1.5" stroke-linecap="round" stroke-linejoin="round"/>
</svg>
