<svg width="147" height="28" viewBox="0 0 147 28" fill="none" xmlns="http://www.w3.org/2000/svg">
<g clip-path="url(#clip0_2046_31779)">
<path d="M65.5596 1.08008V12.7121H68.6936V1.08008H65.5596ZM74.3206 5.80508L78.3576 12.7121H81.5076V1.08008H78.4566V7.39608L74.8306 1.08008H71.2866V12.7121H74.3216L74.3206 5.80508ZM89.5786 3.98408V12.7121H86.4946V3.98408H83.1486V1.08008H92.9436V3.98408H89.5786ZM94.5826 1.08008V12.7121H102.065V10.0051H97.6346V8.13508H101.639V5.57508H97.6356V3.73808H102.032V1.08008H94.5826ZM104.247 12.7121V1.08008H109.152C111.514 1.08008 113.056 2.65508 113.056 4.82008C113.056 6.39608 112.186 7.56108 110.907 8.07008L113.106 12.7121H109.775L107.938 8.49608H107.298V12.7121H104.247ZM108.578 6.13308C109.498 6.13308 109.973 5.60808 109.973 4.87008C109.973 4.13208 109.498 3.62408 108.578 3.62408H107.299V6.13408L108.578 6.13308ZM118.094 5.80508L122.13 12.7121H125.279V1.08008H122.228V7.39608L118.603 1.08008H115.058V12.7121H118.094V5.80508ZM127.873 12.7121V1.08008H135.321V3.73808H130.925V5.57508H134.928V8.13508H130.925V10.0051H135.354V12.7121H127.873ZM143.529 12.7121V3.98408H146.893V1.08008H137.098V3.98408H140.445V12.7121H143.529Z" fill="black"/>
<path d="M65.5234 27.49H68.6684V15.812H65.5234V27.49ZM74.3454 24.476H75.4654C76.9314 24.476 78.1994 23.619 78.1994 21.643C78.1994 19.666 76.9314 18.777 75.4654 18.777H74.3454V24.476ZM75.4814 27.49H71.2654V15.812H75.4984C78.8914 15.812 81.3614 18.036 81.3614 21.659C81.3614 25.283 78.8914 27.49 75.4814 27.49ZM83.3444 27.49H90.8544V24.772H86.4094V22.894H90.4284V20.325H86.4084V18.48H90.8234V15.812H83.3454L83.3444 27.49ZM103.304 27.49H100.142L96.0904 20.556V27.49H93.0434V15.812H96.6014L100.241 22.153V15.813H103.304V27.49ZM111.412 18.727H114.788V15.812H104.956V18.727H108.316V27.49H111.412V18.727ZM119.576 27.49H116.43V15.812H119.576V27.49ZM127.674 18.727H131.05V15.812H121.217V18.727H124.577V27.49H127.674V18.727ZM131.539 15.812L135.376 22.713V27.49H138.506V22.713L142.376 15.813H138.951L137.024 19.765L135.096 15.812H131.539Z" fill="black"/>
<path d="M48.6905 23.265C44.6435 23.265 40.3685 20.619 38.2705 18.698C35.9775 16.598 29.6745 9.762 29.6465 9.731C25.5135 5.118 19.9565 0 14.4115 0C7.73353 0 1.90953 4.624 0.394531 10.751C0.511531 10.348 2.63253 4.735 10.6025 4.735C14.6505 4.735 18.9245 7.381 21.0225 9.302C23.3155 11.402 29.6185 18.238 29.6465 18.269C33.7795 22.881 39.3365 27.999 44.8815 27.999C51.5595 27.999 57.3835 23.375 58.8985 17.248C58.7815 17.651 56.6605 23.265 48.6905 23.265Z" fill="#00ACE5"/>
<path d="M29.646 18.2699C29.632 18.2529 27.816 16.2849 25.782 14.1379C24.682 15.4429 23.097 17.2219 21.275 18.8179C17.88 21.7949 15.673 22.4179 14.411 22.4179C9.649 22.4179 5.765 18.6419 5.765 13.9999C5.765 9.35786 9.645 5.60986 14.411 5.58086C14.584 5.58086 14.793 5.59886 15.047 5.64386C13.615 5.09386 12.094 4.73486 10.602 4.73486C2.635 4.73486 0.512002 10.3449 0.395002 10.7499C0.132044 11.8132 -0.00059679 12.9045 2.01842e-06 13.9999C2.01842e-06 21.7199 6.368 27.9999 14.309 27.9999C17.619 27.9999 21.327 26.3029 25.147 22.9559C26.952 21.3739 28.517 19.6809 29.693 18.3199C29.6778 18.3034 29.6628 18.2868 29.648 18.2699H29.646Z" fill="url(#paint0_linear_2046_31779)"/>
<path d="M29.6447 9.73C29.6597 9.746 31.4747 11.715 33.5087 13.862C34.6087 12.557 36.1937 10.778 38.0157 9.182C41.4107 6.205 43.6177 5.582 44.8797 5.582C49.6417 5.582 53.5257 9.358 53.5257 14C53.5257 18.616 49.6457 22.39 44.8797 22.419C44.6662 22.4165 44.4534 22.3955 44.2437 22.356C45.6757 22.906 47.1977 23.265 48.6887 23.265C56.6557 23.265 58.7787 17.655 58.8957 17.25C59.1537 16.206 59.2907 15.118 59.2907 14.001C59.2917 6.281 52.8207 0 44.8807 0C41.5697 0 37.9647 1.698 34.1457 5.044C32.3397 6.626 30.7737 8.32 29.5977 9.68L29.6427 9.73H29.6447Z" fill="url(#paint1_linear_2046_31779)"/>
</g>
<defs>
<linearGradient id="paint0_linear_2046_31779" x1="21.882" y1="26.1689" x2="2.38" y2="5.97386" gradientUnits="userSpaceOnUse">
<stop offset="0.22" stop-color="#FF0079"/>
<stop offset="0.89" stop-color="#592489"/>
</linearGradient>
<linearGradient id="paint1_linear_2046_31779" x1="37.3957" y1="1.844" x2="56.8977" y2="22.039" gradientUnits="userSpaceOnUse">
<stop offset="0.21" stop-color="#FF4B00"/>
<stop offset="0.68" stop-color="#FFAB00"/>
</linearGradient>
<clipPath id="clip0_2046_31779">
<rect width="147" height="28" fill="white"/>
</clipPath>
</defs>
</svg>
