<svg width="48" height="49" viewBox="0 0 48 49" fill="none" xmlns="http://www.w3.org/2000/svg">
<rect y="0.5" width="48" height="48" rx="8" fill="#F2EDFE"/>
<g clip-path="url(#clip0_2126_31825)">
<path d="M30.1678 18.3984C28.83 18.3984 27.3651 19.1382 25.8199 20.5975C25.0908 21.283 24.4487 22.0296 23.9805 22.6201C23.9805 22.6201 24.7296 23.4956 25.5524 24.439C26.0005 23.8689 26.636 23.0952 27.3785 22.3961C28.7497 21.093 29.646 20.8283 30.1611 20.8283C32.0875 20.8283 33.6527 22.4708 33.6527 24.5001C33.6527 26.5091 32.0875 28.1516 30.1611 28.172C30.0674 28.172 29.9604 28.1584 29.8266 28.1313C30.3885 28.396 30.9972 28.586 31.5658 28.586C35.0975 28.586 35.7932 26.1087 35.8333 25.9322C35.9336 25.4775 35.9938 25.0024 35.9938 24.5137C35.9872 21.1405 33.3785 18.3984 30.1678 18.3984Z" fill="url(#paint0_linear_2126_31825)"/>
<path d="M17.8261 30.6017C19.1639 30.6017 20.6288 29.8619 22.1739 28.4026C22.903 27.7171 23.5452 26.9705 24.0134 26.38C24.0134 26.38 23.2642 25.5045 22.4415 24.5611C21.9933 25.1312 21.3579 25.9049 20.6154 26.604C19.2441 27.8936 18.3411 28.1718 17.8328 28.1718C15.9064 28.1718 14.3411 26.5293 14.3411 24.5C14.3411 22.491 15.9064 20.8485 17.8328 20.8281C17.9264 20.8281 18.0334 20.8417 18.1672 20.8688C17.6054 20.6041 16.9967 20.4141 16.4281 20.4141C12.8963 20.4073 12.2007 22.8846 12.1605 23.0679C12.0602 23.5226 12 23.9977 12 24.4864C12 27.8596 14.6087 30.6017 17.8261 30.6017Z" fill="url(#paint1_linear_2126_31825)"/>
<path fill-rule="evenodd" clip-rule="evenodd" d="M20.5141 22.4504C20.1262 22.0703 18.2399 20.516 16.4339 20.4617C13.2098 20.3803 12.2666 22.7558 12.1797 23.0612C12.8018 20.4007 15.1028 18.412 17.8319 18.3984C20.0593 18.3984 22.3135 20.6179 23.979 22.6201L23.9857 22.6133C23.9857 22.6133 24.7349 23.4888 25.5576 24.4323C25.5576 24.4323 26.4941 25.5521 27.484 26.5363C27.872 26.9164 29.7516 28.4503 31.5576 28.5046C34.8686 28.5996 35.785 26.0883 35.8319 25.8983C35.2232 28.5792 32.9155 30.5747 30.173 30.5883C27.9456 30.5883 25.6914 28.3688 24.0192 26.3666C24.0192 26.3734 24.0125 26.3734 24.0125 26.3802C24.0125 26.3802 23.2633 25.5046 22.4406 24.5612C22.4472 24.5612 21.5108 23.4345 20.5141 22.4504Z" fill="#29ABE2"/>
</g>
<defs>
<linearGradient id="paint0_linear_2126_31825" x1="27.0363" y1="19.3654" x2="35.4038" y2="27.6796" gradientUnits="userSpaceOnUse">
<stop offset="0.21" stop-color="#F15A24"/>
<stop offset="0.6841" stop-color="#FBB03B"/>
</linearGradient>
<linearGradient id="paint1_linear_2126_31825" x1="20.9596" y1="29.6361" x2="12.5922" y2="21.3219" gradientUnits="userSpaceOnUse">
<stop offset="0.21" stop-color="#ED1E79"/>
<stop offset="0.8929" stop-color="#522785"/>
</linearGradient>
<clipPath id="clip0_2126_31825">
<rect width="24" height="12.2034" fill="white" transform="translate(12 18.3984)"/>
</clipPath>
</defs>
</svg>
