<svg width="72" height="73" viewBox="0 0 72 73" fill="none" xmlns="http://www.w3.org/2000/svg">
<rect y="0.5" width="72" height="72" rx="12" fill="url(#paint0_linear_2087_42476)"/>
<path d="M49.554 55.5C49.3883 55.5 49.2202 55.4929 49.052 55.4811C46.574 55.299 44.3933 53.6576 43.4942 51.2996C43.3772 50.9945 43.2871 50.6823 43.2237 50.3748C42.7802 48.2155 41.4864 46.3826 39.6736 45.349L39.0011 44.9659C37.8802 44.3249 36.5913 43.9867 35.2755 43.9867C33.9598 43.9867 32.5563 44.3438 31.3477 45.0226C29.8029 45.8883 28.0388 46.3447 26.2479 46.3447C23.3386 46.3447 20.5536 45.1361 18.6116 43.0312C16.6428 40.8955 15.7389 38.1378 16.0654 35.2619C16.5868 30.6689 20.405 26.9864 25.1417 26.5039C25.5096 26.4661 25.8824 26.4472 26.2479 26.4472C28.0559 26.4472 29.8346 26.9131 31.3891 27.7929C32.6196 28.4906 34.0012 28.8596 35.3827 28.8596C36.679 28.8596 37.9485 28.5308 39.0571 27.9088L39.6468 27.5777C41.4864 26.5441 42.7607 24.7703 43.231 22.5873C43.2992 22.268 43.3991 21.9487 43.5234 21.6342C44.4639 19.288 46.6593 17.6727 49.1154 17.5142C49.2616 17.5047 49.4078 17.5 49.554 17.5C51.3863 17.5 53.1382 18.2616 54.3614 19.5884C55.5992 20.9341 56.1669 22.6701 55.9574 24.4818C55.6211 27.3885 53.0992 29.7583 50.0876 29.9924C49.9097 30.0066 49.7294 30.0137 49.554 30.0137C48.6598 30.0137 47.7972 29.8387 46.9858 29.4958C46.0112 29.0842 44.9854 28.8737 43.9328 28.8737C42.6243 28.8737 41.3402 29.2072 40.2145 29.8387C37.8973 31.1395 36.4743 33.6181 36.4987 36.3049V36.3948C36.4987 36.461 36.4987 36.5272 36.4987 36.5934C36.4451 39.2471 37.8534 41.7186 40.1706 43.0407L40.2681 43.0951C41.3987 43.7407 42.6998 44.0813 44.0229 44.0813C45.0585 44.0813 46.0721 43.8803 47.037 43.4806C47.8337 43.1518 48.6817 42.9839 49.554 42.9839C49.8902 42.9839 50.2314 43.0099 50.5676 43.0596C53.2186 43.4522 55.4067 45.5075 55.8867 48.057C56.2376 49.9231 55.7356 51.8128 54.5051 53.2437C53.2747 54.6746 51.4691 55.4976 49.5515 55.4976L49.554 55.5ZM26.0311 31.1017C22.9658 31.1017 20.4707 33.5235 20.4707 36.4988C20.4707 39.4741 22.9658 41.896 26.0311 41.896C29.0963 41.896 31.5914 39.4741 31.5914 36.4988C31.5914 33.5235 29.0963 31.1017 26.0311 31.1017Z" fill="url(#paint1_linear_2087_42476)"/>
<defs>
<linearGradient id="paint0_linear_2087_42476" x1="72" y1="73" x2="0" y2="0.999998" gradientUnits="userSpaceOnUse">
<stop stop-color="#FFF3F5"/>
<stop offset="1" stop-color="#E4F2FF"/>
</linearGradient>
<linearGradient id="paint1_linear_2087_42476" x1="56" y1="36.5" x2="16" y2="36.5" gradientUnits="userSpaceOnUse">
<stop stop-color="#F9A6A7"/>
<stop offset="0.248" stop-color="#E382AF"/>
<stop offset="0.5" stop-color="#5D87FF"/>
<stop offset="1" stop-color="#62B6FF"/>
</linearGradient>
</defs>
</svg>
