<svg width="28" height="16" viewBox="0 0 28 16" fill="none" xmlns="http://www.w3.org/2000/svg">
<g clip-path="url(#clip0_2374_20144)">
<path d="M21.1951 0.880859C19.6343 0.880859 17.9253 1.74397 16.1226 3.44642C15.272 4.24618 14.5228 5.11721 13.9766 5.80611C13.9766 5.80611 14.8506 6.82758 15.8105 7.92824C16.3333 7.26309 17.0747 6.36039 17.9409 5.5448C19.5407 4.02447 20.5864 3.71565 21.1873 3.71565C23.4348 3.71565 25.2608 5.6319 25.2608 7.9995C25.2608 10.3434 23.4348 12.2596 21.1873 12.2834C21.078 12.2834 20.9532 12.2675 20.7971 12.2359C21.4526 12.5447 22.1627 12.7664 22.8261 12.7664C26.9465 12.7664 27.7581 9.87617 27.8049 9.67029C27.9219 9.13976 27.9922 8.58547 27.9922 8.01534C27.9844 4.07989 24.9409 0.880859 21.1951 0.880859Z" fill="url(#paint0_linear_2374_20144)"/>
<path d="M6.7971 15.118C8.35786 15.118 10.0669 14.2549 11.8696 12.5524C12.7202 11.7526 13.4693 10.8816 14.0156 10.1927C14.0156 10.1927 13.1416 9.17124 12.1817 8.07058C11.6589 8.73573 10.9175 9.63843 10.0513 10.454C8.45151 11.9585 7.39799 12.2832 6.80491 12.2832C4.55741 12.2832 2.73133 10.3669 2.73133 7.99932C2.73133 5.65547 4.55741 3.73922 6.80491 3.71546C6.91416 3.71546 7.03902 3.7313 7.1951 3.76297C6.53958 3.45415 5.82943 3.23244 5.16611 3.23244C1.04571 3.22452 0.234114 6.11474 0.187291 6.32853C0.0702341 6.85907 0 7.41335 0 7.98348C0 11.9189 3.04348 15.118 6.7971 15.118Z" fill="url(#paint1_linear_2374_20144)"/>
<path fill-rule="evenodd" clip-rule="evenodd" d="M9.93446 5.60815C9.48184 5.16472 7.28117 3.3514 5.17415 3.28805C1.41272 3.19303 0.312387 5.96447 0.210938 6.3208C0.93669 3.21679 3.62119 0.896696 6.80514 0.880859C9.4038 0.880859 12.0337 3.47018 13.9768 5.80611L13.9846 5.79819C13.9846 5.79819 14.8587 6.81966 15.8185 7.92032C15.8185 7.92032 16.911 9.22686 18.066 10.375C18.5186 10.8185 20.7115 12.608 22.8185 12.6714C26.6814 12.7822 27.7505 9.85241 27.8051 9.6307C27.095 12.7585 24.4027 15.0865 21.2031 15.1023C18.6045 15.1023 15.9746 12.513 14.0236 10.1771C14.0236 10.185 14.0158 10.185 14.0158 10.1929C14.0158 10.1929 13.1418 9.17143 12.182 8.07077C12.1898 8.07077 11.0972 6.75632 9.93446 5.60815Z" fill="#29ABE2"/>
</g>
<defs>
<linearGradient id="paint0_linear_2374_20144" x1="17.5417" y1="2.00895" x2="27.3038" y2="11.7088" gradientUnits="userSpaceOnUse">
<stop offset="0.21" stop-color="#F15A24"/>
<stop offset="0.6841" stop-color="#FBB03B"/>
</linearGradient>
<linearGradient id="paint1_linear_2374_20144" x1="10.4529" y1="13.9915" x2="0.690874" y2="4.2916" gradientUnits="userSpaceOnUse">
<stop offset="0.21" stop-color="#ED1E79"/>
<stop offset="0.8929" stop-color="#522785"/>
</linearGradient>
<clipPath id="clip0_2374_20144">
<rect width="28" height="14.2373" fill="white" transform="translate(0 0.880859)"/>
</clipPath>
</defs>
</svg>
