<svg width="36" height="36" viewBox="0 0 36 36" fill="none" xmlns="http://www.w3.org/2000/svg">
<rect x="0.5" y="0.5" width="35" height="35" rx="3.5" stroke="#DFE5EF"/>
<g clip-path="url(#clip0_2139_53628)">
<path d="M23.0013 14.8327V13.3327C23.0013 12.3993 23.0013 11.9326 22.8196 11.576C22.6599 11.2624 22.4049 11.0075 22.0913 10.8477C21.7348 10.666 21.2681 10.666 20.3346 10.666H15.668C14.7345 10.666 14.2678 10.666 13.9113 10.8477C13.5977 11.0075 13.3427 11.2624 13.183 11.576C13.0013 11.9326 13.0013 12.3993 13.0013 13.3327V14.8327M13.0013 23.9993C12.2263 23.9993 11.8388 23.9993 11.5209 23.9142C10.6582 23.683 9.98432 23.0091 9.75315 22.1464C9.66797 21.8285 9.66797 21.441 9.66797 20.666V18.8327C9.66797 17.4326 9.66797 16.7325 9.94045 16.1977C10.1801 15.7273 10.5626 15.3448 11.033 15.1052C11.5678 14.8327 12.2678 14.8327 13.668 14.8327H22.3346C23.7348 14.8327 24.4348 14.8327 24.9696 15.1052C25.44 15.3448 25.8225 15.7273 26.0622 16.1977C26.3346 16.7325 26.3346 17.4326 26.3346 18.8327V20.666C26.3346 21.441 26.3346 21.8285 26.2495 22.1464C26.0183 23.0091 25.3444 23.683 24.4817 23.9142C24.1638 23.9993 23.7763 23.9993 23.0013 23.9993M20.5013 17.7493H23.0013M15.668 27.3327H20.3346C21.2681 27.3327 21.7348 27.3327 22.0913 27.151C22.4049 26.9912 22.6599 26.7363 22.8196 26.4227C23.0013 26.0661 23.0013 25.5994 23.0013 24.666V23.3327C23.0013 22.3993 23.0013 21.9326 22.8196 21.576C22.6599 21.2624 22.4049 21.0075 22.0913 20.8477C21.7348 20.666 21.2681 20.666 20.3346 20.666H15.668C14.7345 20.666 14.2678 20.666 13.9113 20.8477C13.5977 21.0075 13.3427 21.2624 13.183 21.576C13.0013 21.9326 13.0013 22.3993 13.0013 23.3327V24.666C13.0013 25.5994 13.0013 26.0661 13.183 26.4227C13.3427 26.7363 13.5977 26.9912 13.9113 27.151C14.2678 27.3327 14.7345 27.3327 15.668 27.3327Z" stroke="#5A6A85" stroke-width="1.5" stroke-linecap="round" stroke-linejoin="round"/>
</g>
<defs>
<clipPath id="clip0_2139_53628">
<rect width="20" height="20" fill="white" transform="translate(8 9)"/>
</clipPath>
</defs>
</svg>
