<svg width="42" height="42" viewBox="0 0 42 42" fill="none" xmlns="http://www.w3.org/2000/svg">
<g clip-path="url(#clip0_1867_29518)">
<path d="M34.4448 33.4688C34.9898 33.4688 35.4374 33.0168 35.4374 32.4567C35.4374 30.4326 35.379 29.3027 34.9995 28.3889C34.4156 26.974 33.3061 25.8539 31.9144 25.2742C30.8634 24.832 29.5398 24.832 26.883 24.832H22.6009C19.944 24.832 18.6107 24.832 17.5694 25.2742C16.168 25.8539 15.0585 26.9838 14.4843 28.3889C14.1048 29.3027 14.0561 30.4326 14.0464 32.4567C14.0464 33.0069 14.4941 33.4688 15.0391 33.4688H34.4448ZM30.4449 14.2891C30.4449 17.4726 27.8951 20.0469 24.7419 20.0469C21.5887 20.0469 19.0389 17.4726 19.0389 14.2891C19.0389 11.1056 21.5887 8.53125 24.7419 8.53125C27.8951 8.53125 30.4449 11.1056 30.4449 14.2891Z" fill="url(#paint0_linear_1867_29518)"/>
<mask id="mask0_1867_29518" style="mask-type:alpha" maskUnits="userSpaceOnUse" x="8" y="8" width="22" height="26">
<path d="M28.9296 33.4688C29.4746 33.4688 29.9223 33.0168 29.9223 32.4567C29.9223 30.4326 29.8639 29.3027 29.4844 28.3889C28.9004 26.974 27.791 25.8539 26.3993 25.2742C25.3482 24.832 24.0247 24.832 21.3678 24.832H17.0857C14.4289 24.832 13.0956 24.832 12.0543 25.2742C10.6528 25.8539 9.54338 26.9838 8.96919 28.3889C8.58964 29.3027 8.53125 30.4228 8.53125 32.4567C8.53125 33.0069 8.97892 33.4688 9.52392 33.4688H28.9296ZM24.9298 14.2891C24.9298 17.4726 22.38 20.0469 19.2268 20.0469C16.0736 20.0469 13.5238 17.4726 13.5238 14.2891C13.5238 11.1056 16.0736 8.53125 19.2268 8.53125C22.38 8.53125 24.9298 11.1056 24.9298 14.2891Z" fill="url(#paint1_linear_1867_29518)"/>
</mask>
<g mask="url(#mask0_1867_29518)">
<path d="M34.4448 33.4688C34.9898 33.4688 35.4374 33.0168 35.4374 32.4567C35.4374 30.4326 35.379 29.3027 34.9995 28.3889C34.4156 26.974 33.3061 25.8539 31.9144 25.2742C30.8634 24.832 29.5398 24.832 26.883 24.832H22.6009C19.944 24.832 18.6107 24.832 17.5694 25.2742C16.168 25.8539 15.0585 26.9838 14.4843 28.3889C14.1048 29.3027 14.0561 30.4326 14.0464 32.4567C14.0464 33.0069 14.4941 33.4688 15.0391 33.4688H34.4448ZM30.4449 14.2891C30.4449 17.4726 27.8951 20.0469 24.7419 20.0469C21.5887 20.0469 19.0389 17.4726 19.0389 14.2891C19.0389 11.1056 21.5887 8.53125 24.7419 8.53125C27.8951 8.53125 30.4449 11.1056 30.4449 14.2891Z" fill="#EA7782"/>
</g>
<path d="M26.9609 33.4688C27.5059 33.4688 27.9536 33.0168 27.9536 32.4567C27.9536 30.4326 27.8952 29.3027 27.5156 28.3889C26.9317 26.974 25.8222 25.8539 24.4305 25.2742C23.3795 24.832 22.0559 24.832 19.3991 24.832H15.117C12.4601 24.832 11.1268 24.832 10.0855 25.2742C8.68409 25.8539 7.57463 26.9838 7.00044 28.3889C6.62089 29.3027 6.5625 30.4228 6.5625 32.4567C6.5625 33.0069 7.01017 33.4688 7.55517 33.4688H26.9609ZM22.961 14.2891C22.961 17.4726 20.4112 20.0469 17.258 20.0469C14.1048 20.0469 11.555 17.4726 11.555 14.2891C11.555 11.1056 14.1048 8.53125 17.258 8.53125C20.4112 8.53125 22.961 11.1056 22.961 14.2891Z" fill="url(#paint2_linear_1867_29518)"/>
</g>
<defs>
<linearGradient id="paint0_linear_1867_29518" x1="24.7419" y1="8.53125" x2="24.7419" y2="33.4688" gradientUnits="userSpaceOnUse">
<stop stop-color="#FF9E95"/>
<stop offset="1" stop-color="#FE8185"/>
</linearGradient>
<linearGradient id="paint1_linear_1867_29518" x1="8.52305" y1="8.53125" x2="30.4576" y2="33.159" gradientUnits="userSpaceOnUse">
<stop stop-color="#3DABFF"/>
<stop offset="1" stop-color="#5D87FF"/>
</linearGradient>
<linearGradient id="paint2_linear_1867_29518" x1="6.5543" y1="8.53125" x2="28.4888" y2="33.159" gradientUnits="userSpaceOnUse">
<stop stop-color="#6DD6FF"/>
<stop offset="1" stop-color="#5D87FF"/>
</linearGradient>
<clipPath id="clip0_1867_29518">
<rect width="28.875" height="24.9375" fill="white" transform="translate(6.5625 8.53125)"/>
</clipPath>
</defs>
</svg>
