<svg width="36" height="36" viewBox="0 0 36 36" fill="none" xmlns="http://www.w3.org/2000/svg">
<rect x="0.5" y="0.5" width="35" height="35" rx="3.5" stroke="#DFE5EF"/>
<path d="M15.1583 20.2577L20.85 23.5743M20.8417 14.4243L15.1583 17.741M25.5 13.166C25.5 14.5467 24.3807 15.666 23 15.666C21.6193 15.666 20.5 14.5467 20.5 13.166C20.5 11.7853 21.6193 10.666 23 10.666C24.3807 10.666 25.5 11.7853 25.5 13.166ZM15.5 18.9993C15.5 20.3801 14.3807 21.4993 13 21.4993C11.6193 21.4993 10.5 20.3801 10.5 18.9993C10.5 17.6186 11.6193 16.4993 13 16.4993C14.3807 16.4993 15.5 17.6186 15.5 18.9993ZM25.5 24.8327C25.5 26.2134 24.3807 27.3327 23 27.3327C21.6193 27.3327 20.5 26.2134 20.5 24.8327C20.5 23.452 21.6193 22.3327 23 22.3327C24.3807 22.3327 25.5 23.452 25.5 24.8327Z" stroke="#5A6A85" stroke-width="1.5" stroke-linecap="round" stroke-linejoin="round"/>
</svg>
