<svg width="20" height="20" viewBox="0 0 20 20" fill="none" xmlns="http://www.w3.org/2000/svg">
<path d="M7.5 11.6703C7.5 12.5928 8.24851 13.3346 9.16668 13.3346H11.0429C11.8413 13.3346 12.49 12.6879 12.49 11.8796C12.49 11.0141 12.0908 10.7003 11.502 10.5006L8.498 9.50201C7.90918 9.3023 7.50999 8.99797 7.50999 8.12303C7.50999 7.32417 8.15867 6.66797 8.95707 6.66797H10.8333C11.7515 6.66797 12.5 7.40977 12.5 8.33226" stroke="#5A6A85" stroke-width="1.5" stroke-linecap="round" stroke-linejoin="round"/>
<path d="M10 5.83398V14.1673" stroke="#5A6A85" stroke-width="1.5" stroke-linecap="round" stroke-linejoin="round"/>
<path d="M1.66536 9.99935C1.66536 14.5993 5.3987 18.3327 9.9987 18.3327C14.5987 18.3327 18.332 14.5993 18.332 9.99935C18.332 5.39935 14.5987 1.66602 9.9987 1.66602" stroke="#5A6A85" stroke-width="1.5" stroke-linecap="round" stroke-linejoin="round"/>
<path d="M5.83333 2.50065V5.83398H2.5" stroke="#5A6A85" stroke-width="1.5" stroke-linecap="round" stroke-linejoin="round"/>
<path d="M1.66797 1.66732L5.83464 5.83398" stroke="#5A6A85" stroke-width="1.5" stroke-linecap="round" stroke-linejoin="round"/>
</svg>
