<svg width="21" height="20" viewBox="0 0 21 20" fill="none" xmlns="http://www.w3.org/2000/svg">
<path d="M9.25036 9.99983H4.66702M4.59648 10.2427L2.65071 16.055C2.49785 16.5116 2.42142 16.7399 2.47627 16.8805C2.5239 17.0026 2.6262 17.0952 2.75244 17.1304C2.8978 17.171 3.11736 17.0722 3.55647 16.8746L17.4827 10.6078C17.9113 10.4149 18.1256 10.3185 18.1918 10.1845C18.2494 10.0681 18.2494 9.93155 18.1918 9.81516C18.1256 9.68119 17.9113 9.58475 17.4827 9.39188L3.55161 3.12293C3.11383 2.92593 2.89493 2.82742 2.74971 2.86783C2.6236 2.90292 2.5213 2.99524 2.47351 3.11711C2.41847 3.25744 2.49408 3.48526 2.64531 3.94088L4.59702 9.8211C4.62299 9.89936 4.63598 9.93848 4.64111 9.9785C4.64565 10.014 4.64561 10.05 4.64097 10.0855C4.63574 10.1255 4.62265 10.1646 4.59648 10.2427Z" stroke="#5D87FF" stroke-width="1.5" stroke-linecap="round" stroke-linejoin="round"/>
</svg>
