<svg width="19" height="18" viewBox="0 0 19 18" fill="none" xmlns="http://www.w3.org/2000/svg">
<path d="M5.375 9.75L5.96334 10.9267C6.16246 11.3249 6.26202 11.524 6.39502 11.6966C6.51304 11.8497 6.65031 11.987 6.80341 12.105C6.97596 12.238 7.17508 12.3375 7.57331 12.5367L8.75 13.125L7.57331 13.7133C7.17508 13.9125 6.97596 14.012 6.80342 14.145C6.65031 14.263 6.51304 14.4003 6.39502 14.5534C6.26202 14.726 6.16246 14.9251 5.96334 15.3233L5.375 16.5L4.78666 15.3233C4.58754 14.9251 4.48798 14.726 4.35498 14.5534C4.23696 14.4003 4.09969 14.263 3.94659 14.145C3.77404 14.012 3.57492 13.9125 3.17669 13.7133L2 13.125L3.17669 12.5367C3.57492 12.3375 3.77404 12.238 3.94658 12.105C4.09969 11.987 4.23696 11.8497 4.35498 11.6966C4.48798 11.524 4.58754 11.3249 4.78666 10.9267L5.375 9.75Z" stroke="#7C8FAC" stroke-width="1.5" stroke-linecap="round" stroke-linejoin="round"/>
<path d="M11.75 1.5L12.634 3.79831C12.8455 4.34824 12.9512 4.6232 13.1157 4.85448C13.2614 5.05947 13.4405 5.23856 13.6455 5.38431C13.8768 5.54877 14.1518 5.65452 14.7017 5.86603L17 6.75L14.7017 7.63397C14.1518 7.84548 13.8768 7.95123 13.6455 8.11569C13.4405 8.26144 13.2614 8.44054 13.1157 8.64552C12.9512 8.8768 12.8455 9.15176 12.634 9.70169L11.75 12L10.866 9.70169C10.6545 9.15176 10.5488 8.8768 10.3843 8.64552C10.2386 8.44054 10.0595 8.26144 9.85448 8.11569C9.6232 7.95123 9.34824 7.84548 8.79831 7.63397L6.5 6.75L8.79831 5.86603C9.34824 5.65452 9.6232 5.54877 9.85448 5.38431C10.0595 5.23856 10.2386 5.05947 10.3843 4.85448C10.5488 4.6232 10.6545 4.34824 10.866 3.79831L11.75 1.5Z" stroke="#7C8FAC" stroke-width="1.5" stroke-linecap="round" stroke-linejoin="round"/>
</svg>
