<svg width="48" height="49" viewBox="0 0 48 49" fill="none" xmlns="http://www.w3.org/2000/svg">
<rect y="0.5" width="48" height="48" rx="8" fill="#E3FAED"/>
<path d="M28.3896 26.8289C28.3896 24.5019 26.9934 23.7041 24.2009 23.3717C22.2064 23.1057 21.8074 22.5739 21.8074 21.643C21.8074 20.7121 22.4724 20.1138 23.802 20.1138C24.9988 20.1138 25.6637 20.5128 25.9961 21.51C26.0626 21.7095 26.2621 21.8424 26.4615 21.8424H27.5252C27.7912 21.8424 27.9907 21.643 27.9907 21.3771V21.3106C27.7247 19.8478 26.5279 18.7176 24.9988 18.5847V16.989C24.9988 16.723 24.7993 16.5236 24.4669 16.457H23.4696C23.2036 16.457 23.0042 16.6565 22.9377 16.989V18.5182C20.9431 18.7842 19.6799 20.1138 19.6799 21.776C19.6799 23.9701 21.0096 24.8343 23.802 25.1668C25.6637 25.4992 26.2621 25.8981 26.2621 26.962C26.2621 28.0258 25.3312 28.7571 24.068 28.7571C22.3393 28.7571 21.7409 28.0257 21.5414 27.0284C21.4751 26.7625 21.2756 26.6294 21.0761 26.6294H19.9458C19.6799 26.6294 19.4805 26.8289 19.4805 27.0949V27.1614C19.7463 28.8235 20.8101 30.0202 23.0042 30.3528V31.9485C23.0042 32.2143 23.2037 32.4138 23.536 32.4803H24.5333C24.7993 32.4803 24.9988 32.2808 25.0653 31.9485V30.3528C27.0599 30.0202 28.3896 28.624 28.3896 26.8289Z" fill="#1DCD9B"/>
<path d="M20.6092 33.8082C15.4233 31.9466 12.7638 26.1623 14.692 21.0428C15.6893 18.2504 17.8833 16.1229 20.6092 15.1256C20.8752 14.9926 21.0081 14.7932 21.0081 14.4606V13.5299C21.0081 13.2639 20.8752 13.0644 20.6092 12.998C20.5427 12.998 20.4097 12.998 20.3432 13.0644C14.0271 15.059 10.5697 21.7742 12.5643 28.0904C13.7611 31.8136 16.62 34.6725 20.3432 35.8693C20.6092 36.0022 20.8752 35.8693 20.9416 35.6033C21.0081 35.5369 21.0081 35.4704 21.0081 35.3375V34.4065C21.0081 34.2071 20.8087 33.9412 20.6092 33.8082ZM27.6568 13.0644C27.3908 12.9315 27.1248 13.0644 27.0584 13.3304C26.9919 13.397 26.9919 13.4633 26.9919 13.5964V14.5272C26.9919 14.7932 27.1913 15.059 27.3908 15.1921C32.5767 17.0536 35.2362 22.8379 33.308 27.9575C32.3107 30.7499 30.1167 32.8774 27.3908 33.8747C27.1248 34.0076 26.9919 34.2071 26.9919 34.5396V35.4704C26.9919 35.7364 27.1248 35.9358 27.3908 36.0022C27.4573 36.0022 27.5903 36.0022 27.6568 35.9358C33.9729 33.9412 37.4303 27.226 35.4357 20.9099C34.239 17.1201 31.3134 14.2612 27.6568 13.0644Z" fill="#1DCD9B"/>
</svg>
