<svg width="48" height="49" viewBox="0 0 48 49" fill="none" xmlns="http://www.w3.org/2000/svg">
<rect y="0.5" width="48" height="48" rx="8" fill="#FFF3DC"/>
<g clip-path="url(#clip0_2126_31801)">
<path fill-rule="evenodd" clip-rule="evenodd" d="M12.0196 23.2979L16.3976 13.6121H16.396C16.4093 13.5796 16.4312 13.5518 16.459 13.5319C16.4868 13.5121 16.5194 13.501 16.5529 13.5001H31.4463C31.4803 13.499 31.5138 13.5092 31.542 13.5293C31.5702 13.5494 31.5916 13.5784 31.6032 13.6121L35.9812 23.2979C35.9984 23.3331 36.0042 23.3732 35.9979 23.4121C35.9915 23.4511 35.9732 23.4869 35.9459 23.514L24.1208 35.4501C24.0868 35.4824 24.0427 35.5002 23.9969 35.5002C23.9511 35.5002 23.9069 35.4824 23.8729 35.4501L12.0549 23.514C12.0273 23.4871 12.0089 23.4513 12.0025 23.4122C11.9961 23.3732 12.0021 23.333 12.0196 23.2979ZM24.0217 24.3257C24.9979 24.3257 25.4364 24.2959 25.5211 24.2885C28.5189 24.1472 30.7545 23.5877 30.7545 22.9324C30.7545 22.277 28.5126 21.7254 25.5141 21.5841V23.7373C25.5109 23.7375 25.5073 23.7379 25.5031 23.7382C25.3939 23.7479 24.9278 23.7893 24.0287 23.7893C23.251 23.7893 22.6901 23.7521 22.494 23.7373V21.5841C19.4884 21.7254 17.2465 22.284 17.2465 22.9398C17.2465 23.5955 19.4884 24.1472 22.494 24.2885C22.6921 24.3034 23.2439 24.3257 24.0217 24.3257ZM25.5211 19.4379V21.368V21.3684C28.9158 21.5316 31.4692 22.2547 31.4692 23.1038C31.4692 23.953 28.9158 24.6595 25.5211 24.8248V31.0017H22.494V24.8248C19.0923 24.6537 16.5322 23.9534 16.5322 23.0964C16.5322 22.2394 19.0923 21.5333 22.494 21.368V19.4379H18.3074V16.4951H29.7081V19.4379H25.5211Z" fill="#FFAA50"/>
</g>
<defs>
<clipPath id="clip0_2126_31801">
<rect width="24" height="22" fill="white" transform="translate(12 13.5)"/>
</clipPath>
</defs>
</svg>
