<svg width="64" height="64" viewBox="0 0 64 64" fill="none" xmlns="http://www.w3.org/2000/svg">
<rect width="64" height="64" rx="8" fill="#FFEAED"/>
<path d="M45.4297 34.8428C44.1638 33.4717 42.5815 32.239 40.4296 30.9937C39.2903 30.327 38.1131 29.6855 36.9739 29.0566C36.4296 28.7547 35.8726 28.4528 35.3283 28.1509C35.2397 28.1006 35.1511 28.0377 35.0878 27.9748L34.7713 27.7484L35.0498 27.4717C35.2903 27.2327 35.5308 27.0063 35.7713 26.7925C36.2903 26.3145 36.784 25.8616 37.2017 25.3459C38.3663 23.9371 38.8093 22.1887 38.4296 20.5283C38.0498 18.8679 36.8726 17.4843 35.2143 16.7296C34.151 16.2516 33.0751 16 32.0118 16C30.7839 16 29.5561 16.327 28.3409 16.956C26.9611 17.6855 26.075 18.7799 25.6953 20.2264C25.1256 22.3899 25.7206 24.3396 27.4421 26.0252C27.7839 26.3522 28.1383 26.6667 28.5181 26.9937C28.6953 27.1447 28.8852 27.3082 29.075 27.4717L29.4295 27.7862L28.1257 28.478C27.4801 28.8176 26.8345 29.1572 26.2016 29.4969C23.7712 30.805 21.4167 32.1132 19.4167 33.9371C16.9863 36.1384 15.8724 38.5157 16.0116 41.2327C16.2521 45.8742 19.7332 48 22.8724 48C23.3408 48 23.8092 47.9497 24.2649 47.8616C27.2269 47.283 29.3535 45.195 29.7966 42.3899C30.3662 38.7673 29.1383 35.7233 26.1383 33.3333L25.3788 32.7296L25.7332 32.478C25.7332 32.478 25.8092 32.4151 25.8471 32.3899C25.9231 32.3396 25.9864 32.2767 26.075 32.239L26.8218 31.8491C28.3915 31.044 29.9991 30.2138 31.6067 29.4214C31.7206 29.3711 31.8472 29.3333 31.9991 29.3333C32.1763 29.3333 32.3662 29.3711 32.5181 29.4465C33.6827 30.0126 34.9105 30.6415 36.5182 31.4591C36.9232 31.6604 37.3156 31.8868 37.6954 32.1006C37.8726 32.2013 38.4549 32.5157 38.4549 32.5157L38.3663 32.7799V32.8302C38.3663 32.8302 38.3157 32.956 38.2144 33.0314L37.9612 33.2201C34.8599 35.5723 33.6194 38.6667 34.265 42.4025C34.8346 45.6352 37.6954 47.9874 41.0752 47.9874C42.379 47.9874 43.6828 47.6226 44.8094 46.9434C47.2525 45.4717 48.2778 43.0818 47.936 39.6604C47.7715 38.0252 46.9993 36.5283 45.417 34.805L45.4297 34.8428ZM26.556 43.4088C25.9104 44.7296 25.0244 45.4969 23.8471 45.7484C23.6066 45.7987 23.3535 45.8239 23.1129 45.8239C21.7712 45.8239 20.442 45.0818 19.8091 43.9748C19.2521 42.9937 18.9737 41.9119 18.999 40.7673C18.9483 39.1069 19.48 37.6352 20.5686 36.4151C21.0117 35.9119 21.518 35.4591 21.999 35.0314C22.2015 34.8553 22.4041 34.6667 22.5939 34.478C22.7712 34.3145 22.9737 34.2264 23.1889 34.2264C23.3661 34.2264 23.5433 34.2767 23.7332 34.3899C26.7332 36.1132 28.0497 40.327 26.556 43.4088ZM32.4675 26.0252C32.3409 26.1132 32.189 26.1258 32.0751 26.1258C31.8979 26.1258 31.7333 26.0755 31.6067 26C30.708 25.4465 29.5814 24.6667 28.8725 23.4717C28.3535 22.6164 28.4295 21.5094 28.4295 21.5094C28.5181 19.8616 29.6573 18.805 31.6067 18.5786C31.7713 18.566 31.9232 18.5535 32.0877 18.5535C32.708 18.5535 33.3156 18.6918 33.8852 18.9686C34.6954 19.3585 35.2903 20.0377 35.5561 20.8679C35.8219 21.6981 35.7207 22.5786 35.2776 23.3459C34.6067 24.5157 33.5688 25.2704 32.4928 26L32.4675 26.0252ZM45.1005 40.5786C45.0626 41.8365 44.8347 42.8302 44.379 43.6981C43.6955 45.0063 42.4549 45.7862 41.0752 45.7862C39.8093 45.7862 38.6448 45.1321 37.8853 44.0126C36.2523 41.5975 36.7207 37.7358 38.9233 35.5597C39.3157 35.1698 39.784 34.7925 40.303 34.4277C40.5056 34.2893 40.7587 34.2767 40.86 34.2767C40.9992 34.2767 41.1891 34.3019 41.341 34.4151C42.9106 35.5849 44.7461 37.2579 45.0499 39.9371C45.0626 40.0755 45.0752 40.2138 45.0879 40.3522V40.5535L45.1005 40.5786Z" fill="#F9A6A7"/>
</svg>
