<svg width="64" height="64" viewBox="0 0 64 64" fill="none" xmlns="http://www.w3.org/2000/svg">
<rect width="64" height="64" rx="8" fill="#F2EDFE"/>
<g clip-path="url(#clip0_2437_16962)">
<path d="M40.2234 23.8643C38.4396 23.8643 36.4865 24.8507 34.4263 26.7963C33.4541 27.7103 32.5979 28.7058 31.9736 29.4931C31.9736 29.4931 32.9725 30.6605 34.0695 31.9184C34.6671 31.1582 35.5143 30.1266 36.5043 29.1945C38.3326 27.457 39.5277 27.104 40.2144 27.104C42.783 27.104 44.87 29.294 44.87 31.9999C44.87 34.6785 42.783 36.8685 40.2144 36.8957C40.0896 36.8957 39.9469 36.8776 39.7685 36.8414C40.5177 37.1943 41.3293 37.4477 42.0873 37.4477C46.7964 37.4477 47.7239 34.1446 47.7774 33.9093C47.9112 33.303 47.9915 32.6695 47.9915 32.018C47.9826 27.5203 44.5043 23.8643 40.2234 23.8643Z" fill="url(#paint0_linear_2437_16962)"/>
<path d="M23.7681 40.1352C25.5518 40.1352 27.505 39.1488 29.5652 37.2032C30.5373 36.2891 31.3935 35.2937 32.0178 34.5064C32.0178 34.5064 31.019 33.339 29.922 32.0811C29.3244 32.8413 28.4771 33.8729 27.4872 34.805C25.6589 36.5244 24.4549 36.8955 23.777 36.8955C21.2085 36.8955 19.1215 34.7055 19.1215 31.9996C19.1215 29.321 21.2085 27.131 23.777 27.1038C23.9019 27.1038 24.0446 27.1219 24.223 27.1581C23.4738 26.8052 22.6622 26.5518 21.9041 26.5518C17.1951 26.5427 16.2676 29.8458 16.214 30.0902C16.0803 30.6965 16 31.33 16 31.9815C16 36.4792 19.4783 40.1352 23.7681 40.1352Z" fill="url(#paint1_linear_2437_16962)"/>
<path fill-rule="evenodd" clip-rule="evenodd" d="M27.3538 29.2669C26.8365 28.7601 24.3215 26.6877 21.9135 26.6153C17.6147 26.5067 16.3572 29.6741 16.2412 30.0813C17.0706 26.5339 20.1386 23.8824 23.7774 23.8643C26.7473 23.8643 29.7529 26.8235 31.9737 29.4931L31.9826 29.4841C31.9826 29.4841 32.9815 30.6515 34.0784 31.9094C34.0784 31.9094 35.3271 33.4025 36.647 34.7147C37.1643 35.2215 39.6704 37.2667 42.0784 37.3391C46.4932 37.4658 47.715 34.1175 47.7774 33.8641C46.9658 37.4387 43.8889 40.0992 40.2323 40.1173C37.2624 40.1173 34.2568 37.1581 32.0272 34.4885C32.0272 34.4975 32.0182 34.4975 32.0182 34.5066C32.0182 34.5066 31.0194 33.3392 29.9224 32.0813C29.9313 32.0813 28.6827 30.5791 27.3538 29.2669Z" fill="#29ABE2"/>
</g>
<defs>
<linearGradient id="paint0_linear_2437_16962" x1="36.0481" y1="25.1535" x2="47.2047" y2="36.2391" gradientUnits="userSpaceOnUse">
<stop offset="0.21" stop-color="#F15A24"/>
<stop offset="0.6841" stop-color="#FBB03B"/>
</linearGradient>
<linearGradient id="paint1_linear_2437_16962" x1="27.9461" y1="38.8478" x2="16.7896" y2="27.7622" gradientUnits="userSpaceOnUse">
<stop offset="0.21" stop-color="#ED1E79"/>
<stop offset="0.8929" stop-color="#522785"/>
</linearGradient>
<clipPath id="clip0_2437_16962">
<rect width="32" height="16.2712" fill="white" transform="translate(16 23.8643)"/>
</clipPath>
</defs>
</svg>
