<svg width="148" height="34" viewBox="0 0 148 34" fill="none" xmlns="http://www.w3.org/2000/svg">
<path d="M30.1006 34C29.952 34 29.8011 33.9937 29.6503 33.9831C27.4273 33.8201 25.471 32.3515 24.6644 30.2417C24.5595 29.9688 24.4787 29.6894 24.4218 29.4143C24.024 27.4823 22.8633 25.8423 21.2371 24.9175L20.6338 24.5747C19.6283 24.0012 18.472 23.6986 17.2917 23.6986C16.1113 23.6986 14.8523 24.0182 13.7681 24.6255C12.3823 25.4 10.7998 25.8084 9.1932 25.8084C6.58332 25.8084 4.08493 24.7271 2.34283 22.8437C0.576682 20.9328 -0.234258 18.4654 0.0586419 15.8922C0.526408 11.7827 3.95159 8.48783 8.20083 8.05614C8.53089 8.02228 8.86532 8.00535 9.1932 8.00535C10.8151 8.00535 12.4107 8.42223 13.8053 9.20944C14.9091 9.8337 16.1485 10.1638 17.3878 10.1638C18.5507 10.1638 19.6895 9.86967 20.6841 9.31313L21.213 9.01687C22.8633 8.09211 24.0065 6.50501 24.4284 4.55181C24.4896 4.26614 24.5792 3.98046 24.6907 3.69901C25.5344 1.5998 27.5038 0.154478 29.7071 0.0126968C29.8383 0.00423228 29.9694 0 30.1006 0C31.7443 0 33.3159 0.681397 34.4132 1.86855C35.5236 3.07263 36.0329 4.62588 35.8449 6.24684C35.5433 8.84758 33.281 10.9679 30.5793 11.1774C30.4197 11.1901 30.258 11.1965 30.1006 11.1965C29.2984 11.1965 28.5246 11.0399 27.7967 10.7331C26.9224 10.3648 26.0022 10.1765 25.0579 10.1765C23.8841 10.1765 22.7322 10.4749 21.7223 11.0399C19.6436 12.2038 18.3671 14.4215 18.389 16.8254V16.9058C18.389 16.9651 18.389 17.0243 18.389 17.0836C18.3409 19.4579 19.6043 21.6693 21.683 22.8522L21.7704 22.9009C22.7846 23.4786 23.9519 23.7833 25.1388 23.7833C26.0677 23.7833 26.977 23.6034 27.8426 23.2458C28.5574 22.9516 29.3181 22.8014 30.1006 22.8014C30.4022 22.8014 30.7082 22.8247 31.0099 22.8691C33.3881 23.2204 35.3509 25.0593 35.7815 27.3405C36.0963 29.0101 35.646 30.7009 34.5422 31.9812C33.4383 33.2615 31.8186 33.9979 30.0984 33.9979L30.1006 34ZM8.99866 12.1699C6.24889 12.1699 4.01061 14.3368 4.01061 16.9989C4.01061 19.661 6.24889 21.828 8.99866 21.828C11.7484 21.828 13.9867 19.661 13.9867 16.9989C13.9867 14.3368 11.7484 12.1699 8.99866 12.1699Z" fill="url(#paint0_linear_3788_23902)"/>
<path d="M52.1351 26.2064C50.2798 26.2064 48.6246 25.801 47.1745 24.9901C45.7244 24.1792 44.577 23.0793 43.7275 21.6812C42.8779 20.2878 42.4531 18.7126 42.4531 16.965C42.4531 15.2174 42.873 13.6468 43.7079 12.2627C44.5428 10.8786 45.6951 9.7881 47.155 8.98652C48.6148 8.18495 50.2749 7.78882 52.1302 7.78882C53.4436 7.78882 54.6643 8.01251 55.797 8.45524C56.9297 8.89798 57.9062 9.50848 58.7363 10.2868C59.2733 10.7947 59.7128 11.354 60.0546 11.9691C60.3524 12.5097 60.1131 13.1808 59.5224 13.4278L57.5889 14.248C57.086 14.4624 56.4903 14.29 56.2071 13.8426C55.8751 13.3113 55.4357 12.8686 54.8937 12.5097C54.0881 11.9784 53.1653 11.7175 52.1254 11.7175C51.1489 11.7175 50.2847 11.9412 49.5279 12.3839C48.7711 12.8266 48.1754 13.4558 47.7458 14.2667C47.3161 15.0776 47.1013 15.991 47.1013 17.0069C47.1013 18.0229 47.3161 18.9643 47.7458 19.7612C48.1754 20.5628 48.7711 21.1872 49.5279 21.6393C50.2847 22.0914 51.1537 22.3197 52.1254 22.3197C53.1897 22.3197 54.1125 22.0494 54.8937 21.5088C55.4259 21.1406 55.8556 20.6933 56.1925 20.1573C56.4757 19.7053 57.0762 19.5375 57.5791 19.7565L59.5175 20.5907C60.1034 20.8424 60.3426 21.5181 60.035 22.0541C59.6981 22.6413 59.2685 23.1912 58.746 23.6945C57.9307 24.4821 56.959 25.1019 55.8263 25.5447C54.6936 25.9874 53.4583 26.2111 52.1254 26.2111L52.1351 26.2064Z" fill="#2A3547"/>
<path d="M71.1937 26.2064C69.4067 26.2064 67.7662 25.8056 66.2868 25.0087C64.8025 24.2071 63.621 23.1166 62.7372 21.7325C61.8535 20.3484 61.4141 18.7732 61.4141 16.9976C61.4141 15.222 61.8535 13.6468 62.7372 12.2627C63.621 10.8786 64.7976 9.7881 66.2673 8.98652C67.7369 8.18495 69.3823 7.78882 71.1937 7.78882C73.0051 7.78882 74.6798 8.18961 76.1543 8.98652C77.624 9.7881 78.7958 10.874 79.6697 12.2441C80.5388 13.6189 80.9783 15.1987 80.9783 16.993C80.9783 18.7872 80.5388 20.3437 79.6551 21.7278C78.7714 23.112 77.5947 24.2025 76.1202 25.0041C74.6457 25.8056 73.0051 26.2018 71.1937 26.2018V26.2064ZM71.1937 22.315C72.2142 22.315 73.1028 22.0867 73.8596 21.6346C74.6164 21.1826 75.2169 20.5488 75.6612 19.7379C76.1006 18.927 76.3252 18.0136 76.3252 16.9976C76.3252 15.9817 76.1055 15.0729 75.6612 14.276C75.2218 13.4744 74.6212 12.8499 73.8596 12.3932C73.1028 11.9412 72.2093 11.7128 71.1937 11.7128C70.1782 11.7128 69.314 11.9412 68.5425 12.3932C67.7711 12.8453 67.1657 13.4744 66.7262 14.276C66.2868 15.0776 66.0622 15.9817 66.0622 16.9976C66.0622 18.0136 66.2819 18.927 66.7262 19.7379C67.1657 20.5488 67.7711 21.1826 68.5425 21.6346C69.314 22.0867 70.1928 22.315 71.1937 22.315Z" fill="#2A3547"/>
<path d="M91.639 26.2064C89.852 26.2064 88.2115 25.8056 86.7321 25.0087C85.2478 24.2071 84.0663 23.1166 83.1825 21.7325C82.2988 20.3484 81.8594 18.7732 81.8594 16.9976C81.8594 15.222 82.2988 13.6468 83.1825 12.2627C84.0663 10.8786 85.2429 9.7881 86.7175 8.98652C88.1871 8.18495 89.8325 7.78882 91.6439 7.78882C93.4553 7.78882 95.13 8.18961 96.6045 8.98652C98.0742 9.7881 99.246 10.874 100.12 12.2441C100.994 13.6189 101.428 15.1987 101.428 16.993C101.428 18.7872 100.989 20.3437 100.105 21.7278C99.2215 23.112 98.0449 24.2025 96.5752 25.0041C95.1007 25.8056 93.4602 26.2018 91.6488 26.2018L91.639 26.2064ZM91.639 22.315C92.6595 22.315 93.5481 22.0867 94.3049 21.6346C95.0617 21.1826 95.6622 20.5488 96.1065 19.7379C96.5459 18.927 96.7705 18.0136 96.7705 16.9976C96.7705 15.9817 96.5508 15.0729 96.1065 14.276C95.6671 13.4744 95.0665 12.8499 94.3049 12.3932C93.5481 11.9412 92.6595 11.7128 91.639 11.7128C90.6186 11.7128 89.7593 11.9412 88.9878 12.3932C88.2164 12.8453 87.611 13.4744 87.1715 14.276C86.7321 15.0776 86.5075 15.9817 86.5075 16.9976C86.5075 18.0136 86.7272 18.927 87.1715 19.7379C87.6158 20.5488 88.2213 21.1826 88.9878 21.6346C89.7544 22.0867 90.6381 22.315 91.639 22.315Z" fill="#2A3547"/>
<path d="M107.143 25.1074L101.552 9.57925C101.308 8.89418 101.84 8.18581 102.597 8.18581H104.941C105.414 8.18581 105.839 8.47475 105.99 8.90816L110.394 21.5749L108.764 21.5423L113.461 8.88486C113.617 8.46543 114.032 8.18115 114.501 8.18115H116.878C117.347 8.18115 117.762 8.46543 117.918 8.88486L122.581 21.5376L120.95 21.5703L125.354 8.9035C125.506 8.47475 125.926 8.18115 126.404 8.18115H128.748C129.504 8.18115 130.037 8.89418 129.793 9.57459L124.197 25.1028C124.046 25.5269 123.626 25.8158 123.152 25.8158H120.755C120.281 25.8158 119.866 25.5315 119.71 25.1028L114.94 11.8395H116.434L111.595 25.1074C111.439 25.5315 111.024 25.8158 110.555 25.8158H108.187C107.714 25.8158 107.299 25.5315 107.143 25.1028V25.1074Z" fill="#2A3547"/>
<path d="M131.602 24.7617V9.2335C131.602 8.65096 132.095 8.18026 132.705 8.18026H134.707C135.317 8.18026 135.81 8.65096 135.81 9.2335V11.6475L135.469 11.0324C135.898 9.97449 136.606 9.16825 137.592 8.61833C138.579 8.06842 139.726 7.79346 141.039 7.79346C142.353 7.79346 143.603 8.07308 144.657 8.63698C145.712 9.20088 146.532 9.98381 147.118 10.9858C147.709 11.9924 148.002 13.1528 148.002 14.4717V24.7664C148.002 25.3489 147.509 25.8196 146.898 25.8196H144.657C144.047 25.8196 143.554 25.3489 143.554 24.7664V15.4783C143.554 14.7001 143.398 14.029 143.08 13.4697C142.763 12.9058 142.324 12.4771 141.757 12.1742C141.191 11.8712 140.546 11.7221 139.819 11.7221C139.091 11.7221 138.447 11.8759 137.885 12.1742C137.319 12.4771 136.88 12.9105 136.562 13.4697C136.245 14.0336 136.089 14.7001 136.089 15.4783V24.7664C136.089 25.3489 135.595 25.8196 134.985 25.8196H132.71C132.1 25.8196 131.606 25.3489 131.606 24.7664L131.602 24.7617Z" fill="#2A3547"/>
<defs>
<linearGradient id="paint0_linear_3788_23902" x1="35.8832" y1="17" x2="0" y2="17" gradientUnits="userSpaceOnUse">
<stop stop-color="#F9A6A7"/>
<stop offset="0.248" stop-color="#E382AF"/>
<stop offset="0.5" stop-color="#5D87FF"/>
<stop offset="1" stop-color="#62B6FF"/>
</linearGradient>
</defs>
</svg>
